<?xml version="1.0" encoding="UTF-8"?>
<svg width="17px" height="17px" viewBox="0 0 17 17" version="1.1" xmlns="http://www.w3.org/2000/svg" xmlns:xlink="http://www.w3.org/1999/xlink">
    <title>Group 25</title>
    <g id="Page-1" stroke="none" stroke-width="1" fill="none" fill-rule="evenodd">
        <g id="Artboard" transform="translate(-1015, -1596)">
            <g id="Group-14" transform="translate(100, 1273)">
                <g id="Group-9" transform="translate(712, 62)">
                    <g id="Group-21" transform="translate(203, 259)">
                        <g id="Group-25" transform="translate(0, 2)">
                            <circle id="Oval" fill="#819A23" cx="8.5" cy="8.5" r="8.5"></circle>
                            <path d="M9.87268074,6.1931571 L10.9897385,10.9963173 C11.1148431,11.534246 10.780183,12.0717407 10.2422543,12.1968453 C10.0932283,12.2315038 9.93823652,12.2315038 9.78921049,12.1968453 L4.98605032,11.0797875 C4.44812162,10.9546829 4.11346156,10.4171882 4.23856616,9.87925955 C4.28088944,9.69727654 4.37334983,9.53079029 4.50546545,9.39867467 L8.19156789,5.71257223 C8.58209218,5.32204794 9.21525716,5.32204794 9.60578145,5.71257223 C9.73789708,5.84468785 9.83035746,6.0111741 9.87268074,6.1931571 Z" id="Rectangle" fill="#FFFFFF" transform="translate(7.2929, 8.5) rotate(-45) translate(-7.2929, -8.5)"></path>
                        </g>
                    </g>
                </g>
            </g>
        </g>
    </g>
</svg>