<?xml version="1.0" encoding="utf-8"?>
<!-- Generator: Adobe Illustrator 27.7.0, SVG Export Plug-In . SVG Version: 6.00 Build 0)  -->
<svg version="1.1" id="Layer_1" xmlns="http://www.w3.org/2000/svg" xmlns:xlink="http://www.w3.org/1999/xlink" x="0px" y="0px"
	 viewBox="0 0 100 25" style="enable-background:new 0 0 100 25;" xml:space="preserve">
<style type="text/css">
	.st0{fill:#27361F;}
</style>
<path class="st0" d="M49.1,6h5.8c0.3-0.5,0.8-1.1,0.9-1.3h-6.7V0.5c0-0.3,0-0.5-0.2-0.5c-0.2,0-0.3,0.1-0.4,0.4
	c-1.4,2.9-2.9,3.9-5.1,4.7c-0.5,0.2-0.8,0.3-0.8,0.5C42.6,5.8,42.7,6,43,6h2.1v15.7c0,2.8,1.4,2.9,2.5,2.9h5.3
	c0.3,0,0.6-0.1,0.6-0.2c0-0.1-0.2-0.2-0.5-0.3c-2.2-0.5-4,0-3.8-6.6V6z"/>
<path class="st0" d="M75.5,17.9c-0.7-0.5-2-0.2-2.8,0.4c-0.6,0.6-1.2,1.4-1.6,2.1c-0.4,0.8-0.9,1.5-1.4,2.2
	c-0.3,0.4-0.7,0.9-2.4,0.8l-3.1,0c-1.1,0-2.1,0.1-2.4-0.4c0,0,0-0.1,0-0.1c0-0.3,0.4-0.8,0.9-1.5L75.8,4.6H62.3
	c-4.4,0.3-5.7,3.2-6,4c-0.3,0.7-0.7,2.3,0,2.8c0.7,0.5,2,0.2,2.8-0.4c0.6-0.6,1.2-1.4,1.6-2.1c0.4-0.8,0.9-1.5,1.4-2.2
	c0.3-0.4,0.7-0.9,2.4-0.8l2.9,0c1.1,0,2.1-0.1,2.3,0.4c0,0,0,0.1,0,0.1c0,0.3-0.4,0.8-0.9,1.5L55.5,24.6h14c4.4-0.3,5.7-3.2,6-4
	C75.7,19.9,76.2,18.4,75.5,17.9z"/>
<path class="st0" d="M34.9,4.5c0,0-1.4-0.1-2.9,0.4c-1,0.3-2,1.1-2.6,2.2V4.4c-1.6,0.6-3.3,1-5,1.3c-0.3,0-0.8,0-0.8,0.2
	c0,0.1,0.2,0.2,0.6,0.3c1.4,0.3,1.5,1.7,1.5,4.3v9.2c0,3.9-0.5,4.1-2.1,4.5c-0.3,0.1-0.5,0.1-0.5,0.3c0,0.1,0.2,0.2,0.6,0.2h3.4h0.7
	h4.7c0.3,0,0.6-0.1,0.6-0.2c0-0.1-0.2-0.2-0.5-0.3c-1.7-0.4-2.9-0.4-2.9-3.3c0-0.4,0-9,0-9.1v-0.2c0-2.3,1.2-5.6,4.1-5.6
	c0.7,0,1.3,0.1,1.8,0.6c0,0,0.1,0.1,0.1,0.1c0.1,0.1,0.1,0.2,0.2,0.2c1.2,1.5,1.7,3.6,3.4,4.5c0.3,0.1,0.6,0.2,0.9,0.2
	c0.6,0,1.2-0.2,1.4-0.7c0.1-0.3,0.1-0.6,0.1-0.9C41.3,6.5,38.1,4.6,34.9,4.5z"/>
<path class="st0" d="M21.2,24.2c-1.2-0.4-2-0.7-2-2.6c0-0.3,0-0.6,0-0.9c0-2.9,0-5.6,0-8.5c0-1.6,0-3.3-0.8-4.7
	c-0.8-1.3-2.1-2.3-3.6-2.8C11.4,3.4,7,3.5,3.9,5.5C2.2,6.5,1,8.2,0.8,10c0,0.3,0,0.6,0.1,0.9c0.3,0.8,1.5,0.9,2.3,0.5
	c1.7-0.9,2.2-3,3.4-4.5c0.9-1.1,2.1-1.8,3.5-2c1.4-0.2,2.8,0.3,3.7,1.3c1.4,1.5,1.5,3.8,1.5,5.9c-3.6,0-7.4,0-10.8,1.2
	c-1.2,0.4-2.3,1-3.2,2c-2,2.2-1.5,5.7,0.7,7.6c1.2,1,2.8,1.6,4.3,1.9c1.7,0.3,3.5,0.2,5-0.4c1.8-0.7,3.3-2.2,4-4
	c-0.1,1.1-0.1,2.9,0.3,3.5c0.5,0.7,1.4,0.7,1.4,0.7h4.1c0.3,0,0.6-0.1,0.6-0.2C21.7,24.4,21.5,24.3,21.2,24.2z M15.2,15.6
	c0,3.7-1.4,8.5-6,8.5c-2.7,0-4.8-2-4.8-4.8c0-5.1,4.3-6.3,8.4-6.3h2.3L15.2,15.6L15.2,15.6z"/>
<path class="st0" d="M99.5,24.2c-1.2-0.4-2-0.7-2-2.6c0-0.3,0-0.6,0-0.9c0-2.9,0-5.6,0-8.5c0-1.6,0-3.3-0.8-4.7
	c-0.8-1.3-2.1-2.3-3.6-2.8c-3.4-1.2-7.8-1.1-10.9,0.8c-1.6,1-2.9,2.7-3.1,4.5c0,0.3,0,0.6,0.1,0.9c0.3,0.8,1.5,0.9,2.3,0.5
	c1.7-0.9,2.2-3,3.4-4.5c0.9-1.1,2.1-1.8,3.5-2c1.4-0.2,2.8,0.3,3.7,1.3c1.4,1.5,1.5,3.8,1.5,5.9c-3.6,0-7.4,0-10.8,1.2
	c-1.2,0.4-2.3,1-3.2,2c-2,2.2-1.5,5.7,0.7,7.6c1.2,1,2.8,1.6,4.3,1.9c1.7,0.3,3.5,0.2,5-0.4c1.8-0.7,3.3-2.2,4-4
	c-0.1,1.1-0.1,2.9,0.3,3.5c0.5,0.7,1.4,0.7,1.4,0.7h4.1c0.3,0,0.6-0.1,0.6-0.2C100,24.4,99.8,24.3,99.5,24.2z M93.5,15.6
	c0,3.7-1.4,8.5-6,8.5c-2.7,0-4.8-2-4.8-4.8c0-5.1,4.3-6.3,8.4-6.3h2.3L93.5,15.6L93.5,15.6z"/>
</svg>
