<?xml version="1.0" encoding="UTF-8"?>
<svg width="100px" height="100px" viewBox="0 0 100 100" version="1.1" xmlns="http://www.w3.org/2000/svg" xmlns:xlink="http://www.w3.org/1999/xlink">
    <title>archetype-avatar-1</title>
    <g id="avatar-1" stroke="none" stroke-width="1" fill="none" fill-rule="evenodd">
        <rect id="Rectangle" fill="#162CB9" x="0" y="0" width="100" height="100" rx="50"></rect>
        <path d="M52.800772,22.2286182 C53.0590025,22.3781098 53.2734687,22.5930862 53.4226406,22.8519656 L75.7717262,61.6375591 C76.2413499,62.4525651 75.9631404,63.494991 75.1503279,63.9658824 C74.8918263,64.1156414 74.5985454,64.1944881 74.2999984,64.1944881 L56.1762186,64.1944881 C53.4705298,64.1944881 50.8757374,65.2725876 48.9630296,67.1914656 L45.6646317,70.5005035 C45.345847,70.8203168 44.9133816,71 44.4624335,71 L25.6997182,71 C24.7609898,71 24,70.2369566 24,69.2956949 C24,68.9965267 24.0785376,68.7026295 24.2277191,68.4435423 L50.4789139,22.8524371 C50.9482779,22.0372806 51.9878095,21.7579873 52.800772,22.2286182 Z M52.1611841,34.4565286 C51.9579433,34.3388708 51.6980606,34.4086941 51.5807197,34.6124833 L34.9157924,63.5548781 C34.8784487,63.6197342 34.8588626,63.6933133 34.8588626,63.7682021 C34.8588626,64.0035177 35.0493952,64.1939925 35.2840773,64.1939925 L47.739617,64.1856125 C50.4363734,64.1837978 53.0226328,63.1110451 54.9325645,61.2020538 L58.2734453,57.862819 C58.5920473,57.5443742 59.023556,57.365559 59.4734106,57.365559 L64.7058768,57.365559 C64.7805854,57.365559 64.8539733,57.3458095 64.918642,57.3083016 C65.1217868,57.1904774 65.1912101,56.9298363 65.0737031,56.7261433 L52.3165456,34.6121821 C52.2792563,34.547543 52.2256799,34.4938656 52.1611841,34.4565286 Z" id="Shape" fill="#FFFFFF" fill-rule="nonzero"></path>
    </g>
</svg>