<?xml version="1.0" encoding="UTF-8"?>
<svg width="100px" height="100px" viewBox="0 0 100 100" version="1.1" xmlns="http://www.w3.org/2000/svg" xmlns:xlink="http://www.w3.org/1999/xlink">
    <title>archetype-avatar-3</title>
    <g id="avatar-3" stroke="none" stroke-width="1" fill="none" fill-rule="evenodd">
        <rect id="Rectangle" fill="#181717" x="0" y="0" width="100" height="100" rx="50"></rect>
        <g id="archetype-logomark" transform="translate(24, 22)" fill="#FFFFFF" fill-rule="nonzero">
            <path d="M28.800772,0.228618171 C29.0590025,0.378109846 29.2734687,0.593086209 29.4226406,0.851965641 L51.7717262,39.6375591 C52.2413499,40.4525651 51.9631404,41.494991 51.1503279,41.9658824 C50.8918263,42.1156414 50.5985454,42.1944881 50.2999984,42.1944881 L32.1762186,42.1944881 C29.4705298,42.1944881 26.8757374,43.2725876 24.9630296,45.1914656 L21.6646317,48.5005035 C21.345847,48.8203168 20.9133816,49 20.4624335,49 L1.69971824,49 C0.760989775,49 0,48.2369566 0,47.2956949 C0,46.9965267 0.0785376482,46.7026295 0.227719071,46.4435423 L26.4789139,0.852437137 C26.9482779,0.0372805632 27.9878095,-0.242012696 28.800772,0.228618171 Z M28.1611841,12.4565286 C27.9579433,12.3388708 27.6980606,12.4086941 27.5807197,12.6124833 L10.9157924,41.5548781 C10.8784487,41.6197342 10.8588626,41.6933133 10.8588626,41.7682021 C10.8588626,42.0035177 11.0493952,42.1939925 11.2840773,42.1939925 L23.739617,42.1856125 C26.4363734,42.1837978 29.0226328,41.1110451 30.9325645,39.2020538 L34.2734453,35.862819 C34.5920473,35.5443742 35.023556,35.365559 35.4734106,35.365559 L40.7058768,35.365559 C40.7805854,35.365559 40.8539733,35.3458095 40.918642,35.3083016 C41.1217868,35.1904774 41.1912101,34.9298363 41.0737031,34.7261433 L28.3165456,12.6121821 C28.2792563,12.547543 28.2256799,12.4938656 28.1611841,12.4565286 Z" id="Shape"></path>
        </g>
    </g>
</svg>