<?xml version="1.0" encoding="UTF-8"?>
<svg width="256px" height="256px" viewBox="0 0 256 256" version="1.1" xmlns="http://www.w3.org/2000/svg" xmlns:xlink="http://www.w3.org/1999/xlink">
    <title>archetype-1</title>
    <g id="1" stroke="none" stroke-width="1" fill="none" fill-rule="evenodd">
        <g id="archetype-logomark" transform="translate(72, 73)" fill="#162CB9" fill-rule="nonzero">
            <path d="M58.8647106,0.466005683 C59.3924974,0.77072324 59.830836,1.20892203 60.1357224,1.736611 L105.814097,80.7955367 C106.773942,82.4568106 106.205321,84.5816478 104.544047,85.5414931 C104.015706,85.8467555 103.416281,86.0074733 102.806093,86.0074733 L65.7636469,86.0074733 C60.233601,86.0074733 54.9302118,88.2050262 51.0209071,92.1163865 L44.2794476,98.8613906 C43.6278968,99.5132845 42.7439986,99.8795432 41.8223243,99.8795432 L3.47398404,99.8795432 C1.55535563,99.8795432 0,98.3241876 0,96.4055592 C0,95.7957473 0.160519862,95.1966796 0.465425622,94.6685672 L54.1191607,1.73757208 C55.0784745,0.0759911351 57.2031301,-0.49330852 58.8647106,0.466005683 Z M57.5574834,25.390865 C57.1420879,25.1510364 56.6109244,25.2933613 56.3710962,25.7087566 L22.3103381,84.7037193 C22.2340129,84.8359191 22.1939817,84.9858997 22.1939817,85.13855 C22.1939817,85.6182073 22.5834034,86.0064633 23.0630605,86.0064633 L48.5204246,85.9893817 C54.0322138,85.9856828 59.3181628,83.7990287 63.2217936,79.9078209 L70.050082,73.1012648 C70.7012595,72.4521604 71.5832024,72.0876709 72.5026418,72.0876709 L83.1970637,72.0876709 C83.3497574,72.0876709 83.4997519,72.0474144 83.6319257,71.9709598 C84.047125,71.730792 84.1890164,71.1995122 83.9488486,70.7843129 L57.8750203,25.7081426 C57.7988063,25.5763849 57.6893037,25.4669712 57.5574834,25.390865 Z" id="Shape"></path>
        </g>
    </g>
</svg>