<?xml version="1.0" encoding="UTF-8"?>
<svg width="256px" height="256px" viewBox="0 0 256 256" version="1.1" xmlns="http://www.w3.org/2000/svg" xmlns:xlink="http://www.w3.org/1999/xlink">
    <title>archetype-2</title>
    <defs>
        <path d="M58.7092661,0.466029344 C59.2356587,0.770762423 59.67284,1.20898341 59.9769211,1.73669921 L105.534672,80.7996397 C106.491983,82.4609984 105.924863,84.5859434 104.267976,85.5458371 C103.74103,85.8511154 103.143189,86.0118415 102.534612,86.0118415 L65.5899838,86.0118415 C60.0745414,86.0118415 54.785157,88.2095054 50.8861756,92.1210646 L44.1625183,98.8664115 C43.5126881,99.5183381 42.631124,99.8846154 41.7118836,99.8846154 L3.46481024,99.8846154 C1.55124838,99.8846154 0,98.3291808 0,96.4104549 C0,95.8006124 0.160095938,95.2015138 0.464196553,94.6733747 L53.9762473,1.73766033 C54.9330282,0.0759950082 57.0520729,-0.493333577 58.7092661,0.466029344 Z M57.4054907,25.3921544 C56.9911924,25.1523137 56.4614312,25.2946458 56.222236,25.7100622 L22.2514229,84.7080213 C22.1752992,84.8402273 22.1353737,84.9902159 22.1353737,85.1428742 C22.1353737,85.6225555 22.5237672,86.0108315 23.0021575,86.0108315 L48.3922962,85.9937486 C53.88953,85.99005 59.1615205,83.8032841 63.0548434,79.9118792 L69.8651002,73.1049773 C70.5145578,72.4558397 71.3941716,72.0913317 72.3111829,72.0913317 L82.9773642,72.0913317 C83.1296543,72.0913317 83.2792529,72.051073 83.4110778,71.9746146 C83.8251806,71.7344348 83.9666972,71.2031279 83.7271638,70.7879076 L57.722189,25.7094482 C57.6461764,25.5776839 57.5369624,25.4682645 57.4054907,25.3921544 Z" id="path-1"></path>
        <linearGradient x1="69.0320543%" y1="43.0001777%" x2="81.7790808%" y2="46.8504948%" id="linearGradient-3">
            <stop stop-color="#162CB9" stop-opacity="0" offset="0%"></stop>
            <stop stop-color="#162CB9" offset="100%"></stop>
        </linearGradient>
        <filter x="-7.0%" y="-13.9%" width="114.0%" height="127.7%" filterUnits="objectBoundingBox" id="filter-4">
            <feGaussianBlur stdDeviation="4" in="SourceGraphic"></feGaussianBlur>
        </filter>
        <path d="M58.7092661,0.466029344 C59.2356587,0.770762423 59.67284,1.20898341 59.9769211,1.73669921 L105.534672,80.7996397 C106.491983,82.4609984 105.924863,84.5859434 104.267976,85.5458371 C103.74103,85.8511154 103.143189,86.0118415 102.534612,86.0118415 L65.5899838,86.0118415 C60.0745414,86.0118415 54.785157,88.2095054 50.8861756,92.1210646 L44.1625183,98.8664115 C43.5126881,99.5183381 42.631124,99.8846154 41.7118836,99.8846154 L3.46481024,99.8846154 C1.55124838,99.8846154 0,98.3291808 0,96.4104549 C0,95.8006124 0.160095938,95.2015138 0.464196553,94.6733747 L53.9762473,1.73766033 C54.9330282,0.0759950082 57.0520729,-0.493333577 58.7092661,0.466029344 Z M57.4054907,25.3921544 C56.9911924,25.1523137 56.4614312,25.2946458 56.222236,25.7100622 L22.2514229,84.7080213 C22.1752992,84.8402273 22.1353737,84.9902159 22.1353737,85.1428742 C22.1353737,85.6225555 22.5237672,86.0108315 23.0021575,86.0108315 L48.3922962,85.9937486 C53.88953,85.99005 59.1615205,83.8032841 63.0548434,79.9118792 L69.8651002,73.1049773 C70.5145578,72.4558397 71.3941716,72.0913317 72.3111829,72.0913317 L82.9773642,72.0913317 C83.1296543,72.0913317 83.2792529,72.051073 83.4110778,71.9746146 C83.8251806,71.7344348 83.9666972,71.2031279 83.7271638,70.7879076 L57.722189,25.7094482 C57.6461764,25.5776839 57.5369624,25.4682645 57.4054907,25.3921544 Z" id="path-5"></path>
        <filter x="-0.9%" y="-1.0%" width="101.9%" height="102.0%" filterUnits="objectBoundingBox" id="filter-6">
            <feGaussianBlur stdDeviation="0.5" in="SourceAlpha" result="shadowBlurInner1"></feGaussianBlur>
            <feOffset dx="0" dy="-1" in="shadowBlurInner1" result="shadowOffsetInner1"></feOffset>
            <feComposite in="shadowOffsetInner1" in2="SourceAlpha" operator="arithmetic" k2="-1" k3="1" result="shadowInnerInner1"></feComposite>
            <feColorMatrix values="0 0 0 0 1   0 0 0 0 1   0 0 0 0 1  0 0 0 1 0" type="matrix" in="shadowInnerInner1"></feColorMatrix>
        </filter>
    </defs>
    <g id="2" stroke="none" stroke-width="1" fill="none" fill-rule="evenodd">
        <g id="Path-15" transform="translate(72, 73)">
            <mask id="mask-2" fill="white">
                <use xlink:href="#path-1"></use>
            </mask>
            <use id="Mask" fill="#FFFFFF" fill-rule="nonzero" xlink:href="#path-1"></use>
            <polygon fill="url(#linearGradient-3)" opacity="0.300000012" filter="url(#filter-4)" mask="url(#mask-2)" points="-2.1344003 150.795557 74.4038462 67.2692308 -32.8630904 106.845687 -96.8269231 153.903846"></polygon>
            <g id="Mask" fill-rule="nonzero" mask="url(#mask-2)" fill="black" fill-opacity="1">
                <use filter="url(#filter-6)" xlink:href="#path-5"></use>
            </g>
        </g>
    </g>
</svg>