<?xml version="1.0" encoding="UTF-8"?>
<svg width="256px" height="256px" viewBox="0 0 256 256" version="1.1" xmlns="http://www.w3.org/2000/svg" xmlns:xlink="http://www.w3.org/1999/xlink">
    <title>astropay-1</title>
    <g id="1" stroke="none" stroke-width="1" fill="none" fill-rule="evenodd">
        <g id="astropay-logomark-1" transform="translate(76, 76)" fill-rule="nonzero">
            <path d="M65.8621324,0 L85.5737806,48.7060058 C82.2712381,48.3489286 78.9165645,48.1657199 75.5191001,48.1657199 C70.5577891,48.1657199 65.6877281,48.5564073 60.9380042,49.3086949 L53.4287968,30.7250719 L44.1795777,53.6111044 C31.5288468,58.167211 20.1576514,65.4031658 10.7509372,74.6340236 L40.9065096,0 L65.8621324,0 Z" id="Path" fill="#053634"></path>
            <path d="M75.5300339,55.8707416 C80.0720266,55.8707416 84.5305755,56.2279572 88.8791231,56.9158265 L99.8006781,83.9516025 C92.3520129,80.7583837 84.1474424,78.9902871 75.5299239,78.9902871 C56.0597855,78.9902871 38.6976393,88.0159918 27.3989773,102.111716 L0,102.111716 C14.0315931,74.6627307 42.5866977,55.8707416 75.5300339,55.8707416 Z" id="Path" fill="#00DBBF"></path>
        </g>
    </g>
</svg>