<?xml version="1.0" encoding="UTF-8"?>
<svg width="1256px" height="620px" viewBox="0 0 1256 620" version="1.1" xmlns="http://www.w3.org/2000/svg" xmlns:xlink="http://www.w3.org/1999/xlink">
    <title>clara-preview</title>
    <g id="clara-preview" stroke="none" fill="none" fill-rule="evenodd" stroke-width="1">
        <g id="clara-health-full-logo-1" transform="translate(478, 272)" fill="#1F3A34">
            <g id="clara-health-logomark" fill-rule="nonzero">
                <path d="M38,0 C47.63919,0 56.4401244,3.5889984 63.1393946,9.5035864 L46.2567033,26.3844268 C43.9272706,24.7256102 41.0775683,23.75 38,23.75 C30.1299423,23.75 23.75,30.1299423 23.75,38 C23.75,45.8700577 30.1299423,52.25 38,52.25 C41.0775683,52.25 43.9272706,51.2743898 46.2567033,49.6155732 L63.1382118,66.4974577 C56.4390886,72.4114239 47.6386227,76 38,76 C17.0131795,76 0,58.9868205 0,38 C0,17.0131795 17.0131795,0 38,0 Z" id="Path"></path>
                <path d="M76,38 C76,47.6414588 72.4093118,56.4442675 66.4922367,63.1441248 L63.1277025,59.7760321 C68.1877356,53.9422489 71.25,46.3287395 71.25,38 C71.25,29.6712605 68.1877356,22.0577511 63.1277025,16.223968 L66.4912518,12.8547601 C72.4089134,19.5547558 76,28.3580064 76,38 Z M66.5,38 C66.5,45.0169546 63.9641225,51.4416234 59.7588221,56.4075516 L56.3879832,53.0325854 C59.7392776,48.9381197 61.75,43.7038746 61.75,38 C61.75,32.2955745 59.7388892,27.0608691 56.387012,22.9662282 L59.7594042,19.5931357 C63.9643565,24.5589695 66.5,30.9833691 66.5,38 Z M57,38 C57,42.3907209 55.5106599,46.4335878 53.009608,49.6509728 L49.6152188,46.257201 C51.2742508,43.9276765 52.25,41.0777874 52.25,38 C52.25,34.9224317 51.2743898,32.0727294 49.6155732,29.7432967 L53.0086797,26.3478332 C55.5102915,29.5654119 57,33.6087359 57,38 Z" id="Shape"></path>
            </g>
            <g id="clara-health-wordmark" transform="translate(95, 7.125)" fill-rule="nonzero">
                <path d="M95.890625,14.25 C102.39316,14.25 107.947303,17.4762097 111.624929,22.5666112 L111.625,15.4375 L121.125,15.4375 L121.125,60.5625 L111.625,60.5625 L111.624068,53.4345798 C107.946437,58.5242934 102.392653,61.75 95.890625,61.75 C84.0855385,61.75 73.625,51.1167628 73.625,38 C73.625,24.8832372 84.0855385,14.25 95.890625,14.25 Z M97.375,23.75 C89.5049423,23.75 83.125,30.1299423 83.125,38 C83.125,45.8700577 89.5049423,52.25 97.375,52.25 C105.245058,52.25 111.625,45.8700577 111.625,38 C111.625,30.1299423 105.245058,23.75 97.375,23.75 Z M179.015625,14.25 C185.51816,14.25 191.072303,17.4762097 194.749929,22.5666112 L194.75,15.4375 L204.25,15.4375 L204.25,60.5625 L194.75,60.5625 L194.749068,53.4345798 C191.071437,58.5242934 185.517653,61.75 179.015625,61.75 C167.210539,61.75 156.75,51.1167628 156.75,38 C156.75,24.8832372 167.210539,14.25 179.015625,14.25 Z M180.5,23.75 C172.629942,23.75 166.25,30.1299423 166.25,38 C166.25,45.8700577 172.629942,52.25 180.5,52.25 C188.370058,52.25 194.75,45.8700577 194.75,38 C194.75,30.1299423 188.370058,23.75 180.5,23.75 Z M155.561312,14.252375 L155.563055,23.7988209 C155.171315,23.7664877 154.775083,23.75 154.375,23.75 C146.504942,23.75 140.125,30.1299423 140.125,38 L140.125,60.5625 L130.625,60.5625 L130.625,15.4375 L140.125,15.4375 L140.123966,22.5681407 C143.640305,17.7001301 148.872613,14.5366078 155.009351,14.2685027 L155.561312,14.252375 Z M30.875,0 C39.8699656,0 47.9665286,3.84651856 53.6095328,9.98439931 L46.6148123,16.4128426 C42.7080945,12.1632109 37.1025604,9.5 30.875,9.5 C19.0699135,9.5 9.5,19.0699135 9.5,30.875 C9.5,42.6800865 19.0699135,52.25 30.875,52.25 C37.1025604,52.25 42.7080945,49.5867891 46.6148123,45.3371574 L53.6095328,51.7656007 C47.9665286,57.9034815 39.8699656,61.75 30.875,61.75 C13.8232083,61.75 0,47.9267917 0,30.875 C0,13.8232083 13.8232083,0 30.875,0 Z M59.375,1.1875 L68.875,1.1875 L68.875,60.5625 L59.375,60.5625 L59.375,1.1875 Z" id="Shape"></path>
            </g>
        </g>
    </g>
</svg>