<?xml version="1.0" encoding="UTF-8"?>
<svg width="100px" height="100px" viewBox="0 0 100 100" version="1.1" xmlns="http://www.w3.org/2000/svg" xmlns:xlink="http://www.w3.org/1999/xlink">
    <title>clara-avatar-1</title>
    <defs>
        <linearGradient x1="119.476509%" y1="50%" x2="0%" y2="50%" id="linearGradient-1">
            <stop stop-color="#FFFFFF" stop-opacity="0.5" offset="0%"></stop>
            <stop stop-color="#FFFFFF" offset="100%"></stop>
        </linearGradient>
    </defs>
    <g id="clara-avatar-1" stroke="none" fill="none">
        <rect id="Rectangle" fill="#003327" fill-rule="nonzero" x="0" y="0" width="100" height="100" rx="50"></rect>
        <g id="1-clara-health-logomark-green" stroke-width="1" fill-rule="evenodd" transform="translate(18, 18)">
            <path d="M31.9698979,0 C40.0794747,0 47.4838162,3.02231444 53.12,8.00302013 L38.9163706,22.2184647 C36.9565884,20.8215665 34.5590965,20 31.9698979,20 C25.3487153,20 19.9811862,25.372583 19.9811862,32 C19.9811862,38.627417 25.3487153,44 31.9698979,44 C34.5590965,44 36.9565884,43.1784335 38.9163706,41.7815353 L53.1190049,55.9978591 C47.4829448,60.9780412 40.0789975,64 31.9698979,64 C14.3134108,64 0,49.673112 0,32 C0,14.326888 14.3134108,0 31.9698979,0 Z" id="Path" fill="url(#linearGradient-1)" fill-rule="nonzero"></path>
            <path d="M64,32.0004683 C64,40.0987059 60.9515982,47.4925284 55.9281537,53.12 L53.0717508,50.2910075 C57.3675886,45.3909853 59.9673723,38.9961017 59.9673723,32.0004683 C59.9673723,25.004835 57.3675886,18.6099513 53.0717508,13.7099292 L55.9273176,10.88 C60.9512599,16.5075879 64,23.9017816 64,32.0004683 Z M55.9347446,32.0004683 C55.9347446,37.8942824 53.7818498,43.2906124 50.211658,47.4616893 L47.3499026,44.6269235 C50.1950653,41.187822 51.9021168,36.7913752 51.9021168,32.0004683 C51.9021168,27.2090988 50.1947355,22.8122654 47.3490781,19.3730167 L50.2121522,16.5398247 C53.7820485,20.7108223 55.9347446,26.1069262 55.9347446,32.0004683 Z M47.8694891,32.0004683 C47.8694891,35.6884062 46.6050777,39.0841679 44.481749,41.7865751 L41.6,38.9360137 C43.0084755,36.9793552 43.8368614,34.5856221 43.8368614,32.0004683 C43.8368614,29.4154986 43.0085934,27.0219224 41.6003008,25.065341 L44.480961,22.2133587 C46.6047649,24.9159287 47.8694891,28.3120743 47.8694891,32.0004683 Z" id="Shape" fill="#FFFFFF" fill-rule="nonzero"></path>
        </g>
    </g>
</svg>