<?xml version="1.0" encoding="UTF-8"?>
<svg width="256px" height="256px" viewBox="0 0 256 256" version="1.1" xmlns="http://www.w3.org/2000/svg" xmlns:xlink="http://www.w3.org/1999/xlink">
    <title>clarahealth1</title>
    <defs>
        <linearGradient x1="119.476509%" y1="50%" x2="0%" y2="50%" id="linearGradient-1">
            <stop stop-color="#00C26E" stop-opacity="0.5" offset="0%"></stop>
            <stop stop-color="#00C26E" offset="100%"></stop>
        </linearGradient>
    </defs>
    <g id="1" stroke="none" stroke-width="1" fill="none" fill-rule="evenodd">
        <g id="1-clara-health-logomark-green" transform="translate(75, 75)" fill-rule="nonzero">
            <path d="M52.9501434,0 C66.38163,0 78.6450706,5.00570829 87.98,13.2550021 L64.4552388,36.7993322 C61.2093495,34.4857195 57.2385036,33.125 52.9501434,33.125 C41.9838097,33.125 33.0938396,42.0233406 33.0938396,53 C33.0938396,63.9766594 41.9838097,72.875 52.9501434,72.875 C57.2385036,72.875 61.2093495,71.5142805 64.4552388,69.2006678 L87.9783519,92.7464541 C78.6436273,100.994881 66.3808396,106 52.9501434,106 C23.7065867,106 0,82.2710918 0,53 C0,23.7289082 23.7065867,0 52.9501434,0 Z" id="Path" fill="url(#linearGradient-1)"></path>
            <path d="M106,53.0007757 C106,66.4134816 100.951084,78.6595001 92.6310046,87.98 L87.9000872,83.2944812 C95.0150686,75.1788195 99.3209603,64.5872935 99.3209603,53.0007757 C99.3209603,41.4142579 95.0150686,30.8227319 87.9000872,22.7070702 L92.6296197,18.02 C100.950524,27.3406925 106,39.5873258 106,53.0007757 Z M92.6419207,53.0007757 C92.6419207,62.7624051 89.0761888,71.7000768 83.1630586,78.6084229 L78.4232761,73.913342 C83.1355769,68.2173302 85.962881,60.9357152 85.962881,53.0007757 C85.962881,45.0650699 83.1350307,37.7828146 78.4219106,32.0865588 L83.1638772,27.3940846 C89.0765179,34.3022994 92.6419207,43.2395966 92.6419207,53.0007757 Z M79.2838413,53.0007757 C79.2838413,59.1089228 77.18966,64.7331531 73.6728968,69.209015 L68.9,64.4877727 C71.2327875,61.247057 72.6048017,57.2824366 72.6048017,53.0007757 C72.6048017,48.7194195 71.2329829,44.755059 68.9004983,41.5144711 L73.6715916,36.7908753 C77.1891419,41.2670068 79.2838413,46.891873 79.2838413,53.0007757 Z" id="Shape" fill="#00C26E"></path>
        </g>
    </g>
</svg>