<?xml version="1.0" encoding="UTF-8"?>
<svg width="256px" height="256px" viewBox="0 0 256 256" version="1.1" xmlns="http://www.w3.org/2000/svg" xmlns:xlink="http://www.w3.org/1999/xlink">
    <title>colorhunt-1</title>
    <defs>
        <path d="M75.5,30 L75.5,66.5 C75.3646166,79.5016154 64.7833228,90 51.75,90 C38.6332372,90 28,79.3667628 28,66.25 L28.002,66.499 L28,30 L75.5,30 Z" id="path-1"></path>
    </defs>
    <g id="1" stroke="none" stroke-width="1" fill="none" fill-rule="evenodd">
        <g id="Group" transform="translate(80, 83)">
            <mask id="mask-2" fill="white">
                <use xlink:href="#path-1"></use>
            </mask>
            <use id="Mask" fill="#924992" fill-rule="nonzero" xlink:href="#path-1"></use>
            <rect id="Rectangle" fill="#FEED30" mask="url(#mask-2)" x="28" y="31" width="43.5" height="27"></rect>
            <rect id="Rectangle" fill="#FF6868" mask="url(#mask-2)" x="28" y="58" width="43.5" height="16"></rect>
            <path d="M92,18.1700574 C94.209139,18.1700574 96,19.9609184 96,22.1700574 C96,23.9940048 94.7792116,25.5328217 93.1101489,26.0139942 L93.1182431,26.0416728 C88.8495519,27.6498207 84.4722637,29.0364014 80.0003979,30.1873955 L80,66 C80,83.673112 65.673112,98 48,98 C30.326888,98 16,83.673112 16,66 L16,30.1874995 C11.435139,29.0125841 6.96882346,27.5921816 2.61597189,25.9412039 L2.62157355,25.9262048 C1.09158378,25.3645606 0,23.8947855 0,22.1700574 C0,19.9609184 1.790861,18.1700574 4,18.1700574 C4.62150992,18.1700574 5.2099132,18.3118038 5.7346456,18.5647323 L5.56002504,18.4993657 C18.7542689,23.4891994 33.0582214,26.2200574 48,26.2200574 C62.8750645,26.2200574 77.1179859,23.5135311 90.2631743,18.5660684 C90.4692012,18.4663357 90.6848389,18.3840944 90.9084389,18.320811 L90.9690568,18.2978379 L90.971302,18.3035757 C91.2995425,18.2164726 91.6443508,18.1700574 92,18.1700574 Z M24,31.9737291 L24,66.5 L24.0031818,66.6427497 C24.2129131,79.5783642 34.7644048,90 47.75,90 C60.7832165,90 71.364444,79.5017867 71.4987079,66.5003344 L71.5004873,32.0674476 C63.8824654,33.4810823 56.0275312,34.2200574 48,34.2200574 C39.796902,34.2200574 31.7740331,33.4484052 24,31.9737291 Z M19.5,12 C22.8137085,12 25.5,9.3137085 25.5,6 C25.5,2.6862915 22.8137085,0 19.5,0 C16.1862915,0 13.5,2.6862915 13.5,6 C13.5,9.3137085 16.1862915,12 19.5,12 Z M76.5,12 C79.8137085,12 82.5,9.3137085 82.5,6 C82.5,2.6862915 79.8137085,0 76.5,0 C73.1862915,0 70.5,2.6862915 70.5,6 C70.5,9.3137085 73.1862915,12 76.5,12 Z" id="Shape" fill="#111111" fill-rule="nonzero"></path>
        </g>
    </g>
</svg>