<?xml version="1.0" encoding="UTF-8"?>
<svg width="100px" height="100px" viewBox="0 0 100 100" version="1.1" xmlns="http://www.w3.org/2000/svg" xmlns:xlink="http://www.w3.org/1999/xlink">
    <title>colorhunt-avatar-1</title>
    <defs>
        <path d="M42.46875,16.8367347 L42.46875,37.3214286 C42.3926038,44.6182467 36.4406234,50.5102041 29.109375,50.5102041 C21.7311959,50.5102041 15.75,44.542571 15.75,37.1811224 L15.751,37.3207347 L15.75,16.8367347 L42.46875,16.8367347 Z" id="path-1"></path>
    </defs>
    <g id="avatar-1" stroke="none" stroke-width="1" fill="none" fill-rule="evenodd">
        <rect id="Rectangle" fill="#EFEFEF" x="0" y="0" width="100" height="100" rx="50"></rect>
        <g id="Group" transform="translate(23, 25)">
            <path d="M10.96875,14.7129992 L10.96875,36.6520716 C10.96875,45.3505564 18.0202652,52.4020716 26.71875,52.4020716 C35.4172348,52.4020716 42.46875,45.3505564 42.46875,36.6520716 L42.46875,15.1296144 L42.46875,15.1296144 L43.03125,15.1296144 L25.251501,16.8367347 L10.96875,14.7129992 Z" id="Path-48" fill="#FFFFFF"></path>
            <mask id="mask-2" fill="white">
                <use xlink:href="#path-1"></use>
            </mask>
            <use id="Mask" fill="#924992" fill-rule="nonzero" xlink:href="#path-1"></use>
            <rect id="Rectangle" fill="#FEED30" mask="url(#mask-2)" x="15.75" y="17.3979592" width="24.46875" height="15.1530612"></rect>
            <rect id="Rectangle" fill="#FF6868" mask="url(#mask-2)" x="15.75" y="32.5510204" width="24.46875" height="8.97959184"></rect>
            <path d="M51.75,10.1974812 C52.9926407,10.1974812 54,11.2025563 54,12.4423792 C54,13.4660231 53.3133065,14.3296449 52.3744587,14.5996906 L52.3790117,14.6152245 C49.9778729,15.5177565 47.5156484,16.2959395 45.0002238,16.9419056 L45,37.0408163 C45,46.9593996 36.9411255,55 27,55 C17.0588745,55 9,46.9593996 9,37.0408163 L9,16.941964 C6.43226568,16.2825727 3.9199632,15.485408 1.47148419,14.5588389 L1.47463512,14.5504211 C0.614015875,14.2352126 0,13.4103388 0,12.4423792 C0,11.2025563 1.00735931,10.1974812 2.25,10.1974812 C2.59959933,10.1974812 2.93057617,10.2770327 3.22573815,10.4189824 L3.12751408,10.3822971 C10.5492763,13.1827139 18.5952496,14.7153384 27,14.7153384 C35.3672238,14.7153384 43.3788671,13.1963695 50.7730355,10.4197323 C50.8889257,10.3637598 51.0102219,10.317604 51.1359969,10.2820878 L51.1700944,10.2691947 L51.1713574,10.2724149 C51.3559926,10.2235305 51.5499473,10.1974812 51.75,10.1974812 Z M13.5,17.9444398 L13.5,37.3214286 L13.5017898,37.4015432 C13.6197636,44.6613269 19.5549777,50.5102041 26.859375,50.5102041 C34.1905593,50.5102041 40.1424997,44.6183497 40.2180232,37.3216162 L40.2190241,17.9970369 C35.9338868,18.7904033 31.5154863,19.2051343 27,19.2051343 C22.3857574,19.2051343 17.8728936,18.7720642 13.5,17.9444398 Z M10.96875,6.73469388 C12.832711,6.73469388 14.34375,5.2270813 14.34375,3.36734694 C14.34375,1.50761258 12.832711,0 10.96875,0 C9.10478897,0 7.59375,1.50761258 7.59375,3.36734694 C7.59375,5.2270813 9.10478897,6.73469388 10.96875,6.73469388 Z M43.03125,6.73469388 C44.895211,6.73469388 46.40625,5.2270813 46.40625,3.36734694 C46.40625,1.50761258 44.895211,0 43.03125,0 C41.167289,0 39.65625,1.50761258 39.65625,3.36734694 C39.65625,5.2270813 41.167289,6.73469388 43.03125,6.73469388 Z" id="Shape" fill="#111111" fill-rule="nonzero"></path>
        </g>
    </g>
</svg>