<?xml version="1.0" encoding="UTF-8"?>
<svg width="100px" height="100px" viewBox="0 0 100 100" version="1.1" xmlns="http://www.w3.org/2000/svg" xmlns:xlink="http://www.w3.org/1999/xlink">
    <title>daymind-avatar-4</title>
    <defs>
        <rect id="path-1" x="0" y="0" width="100" height="100" rx="50"></rect>
        <path d="M61.2831445,69.8733646 C61.2948141,69.853463 61.3024793,69.8403274 61.315302,69.8182047 C61.3544535,69.7506578 61.4009989,69.6692191 61.4543156,69.574539 C61.6110455,69.2962178 61.78755,68.9724897 61.9788451,68.6086218 C62.5296333,67.5609518 63.0817349,66.4131397 63.595319,65.2091578 C64.4690964,63.1607839 65.1346431,61.1739591 65.5097837,59.3639051 C66.0313679,56.8472615 65.9329948,54.9241445 65.2927535,53.7968928 C64.7735126,52.8826825 63.7302913,52.2499316 61.8112792,52.0247773 L61.7205642,52.0144141 L61.6978043,52.0495828 C57.4156818,58.4958659 51.4945969,64.5381063 44.7003022,69.5919931 L44.3654559,69.8397455 C39.561305,73.3754624 34.6584596,76.1274976 30.4652647,77.6513684 C28.2503337,78.4563081 26.2381005,78.9190815 24.4738641,78.9902156 C22.1941244,79.0821348 20.2186804,78.531998 18.7806754,77.1029466 C17.215999,75.5480125 16.7708062,73.4450206 17.2708046,71.2665663 C17.6343597,69.6825851 18.4892169,68.0423405 19.7601217,66.3209578 C21.9881836,63.3031495 25.5768095,59.9603405 29.9105126,56.8199404 C38.7299239,50.4289905 48.9711706,45.9070141 57.5867728,45.1448251 L57.8000953,45.1268263 L57.8140773,45.102081 C59.1176017,42.756606 60.1447936,40.3912134 60.8472548,38.0488549 L60.9299884,37.7678852 C63.5181856,28.8123995 61.2423135,23.6213878 55.5333422,22.265775 C48.9296792,20.6977148 38.7699448,24.1627903 28.6417193,32.248003 C13.9384367,43.9854163 3.31302088,58.5121522 -3.27514236,75.8798419 C-3.95177875,77.663588 -5.95552817,78.5645513 -7.75064196,77.8921998 C-9.54575576,77.2198482 -10.4524608,75.2287876 -9.77582446,73.4450415 C-2.74820893,54.9188694 8.62085039,39.3754474 24.2907393,26.8664066 C35.9373775,17.5690675 48.1306087,13.4104484 57.1480149,15.5516593 C67.1119827,17.9176342 71.2000012,27.2419506 67.6072558,39.6732982 C67.0339196,41.6571132 66.2763371,43.6374412 65.3541835,45.5992692 L65.2890324,45.7358268 L65.3231887,45.7463495 C67.9750608,46.5673531 69.9885275,48.0898445 71.2758009,50.2877052 L71.3428811,50.4040055 C72.6177702,52.6486607 73.0004489,55.2966224 72.7021566,58.270195 L72.6941045,58.3460583 L72.8871371,58.1790148 C73.0337698,58.0527316 73.1808226,57.9268142 73.3282867,57.801282 L73.771904,57.4258598 C82.9498416,49.7046655 91.7580709,45.0308385 99.8498368,45.0308385 C104.913095,45.0308385 108.561024,46.8039694 110.17486,50.3384428 C111.512716,53.2684906 111.158437,56.8156899 109.583344,60.7049549 C107.00467,67.0722885 101.101439,63.1577182 103.138468,58.1278299 C104.073609,55.8187522 104.248566,54.0670076 103.848409,53.1906224 C103.514327,52.4589468 102.434329,51.9339973 99.8498368,51.9339973 C93.8416277,51.9339973 86.2854782,55.9434452 78.260862,62.6943758 C75.353802,65.1400206 72.5945577,67.7691629 70.079659,70.3978976 C69.2004925,71.3168592 68.4161109,72.1685154 67.7380513,72.9300227 C67.503052,73.1939431 67.2988361,73.4268788 67.1268304,73.6259811 C67.027206,73.7412996 66.9625909,73.8171448 66.9344049,73.8506713 C64.1965397,77.1072851 59.1053412,73.5344754 61.2781756,69.8818185 L61.2831445,69.8733646 Z M51,53 L50.8933156,53.0320964 C45.2326075,54.7493311 38.9873585,58.0452263 33.3951467,62.2514349 C29.7109185,65.0225446 26.7195179,67.9148178 25.0175283,70.3075973 C24.5722684,70.9335756 24.2403013,71.4922595 24.0218366,71.9537926 L24,72 L24.0813672,71.9945253 C24.9589887,71.9262081 26.1253598,71.6402904 27.4930787,71.1354224 L27.651781,71.0761967 C31.0625101,69.7896318 35.2616949,67.3430928 39.4310525,64.1580788 C43.7224739,60.879819 47.6143126,57.1432374 50.8507969,53.1839392 L51,53 Z" id="path-3"></path>
    </defs>
    <g id="avatar-4" stroke="none" stroke-width="1" fill="none" fill-rule="evenodd">
        <g id="Mask">
            <mask id="mask-2" fill="white">
                <use xlink:href="#path-1"></use>
            </mask>
            <use fill="#21424C" fill-rule="nonzero" xlink:href="#path-1"></use>
            <mask id="mask-4" fill="white">
                <use xlink:href="#path-3"></use>
            </mask>
            <use fill="#EDF3D7" fill-rule="nonzero" xlink:href="#path-3"></use>
        </g>
    </g>
</svg>