<?xml version="1.0" encoding="UTF-8"?>
<svg width="256px" height="256px" viewBox="0 0 256 256" version="1.1" xmlns="http://www.w3.org/2000/svg" xmlns:xlink="http://www.w3.org/1999/xlink">
    <title>daymind-2</title>
    <defs>
        <path d="M139.46973,152.666484 L139.470441,152.665069 L139.472931,152.661036 L139.476365,152.655181 C139.489868,152.632095 139.498736,152.616857 139.513573,152.591194 C139.558872,152.512837 139.612726,152.418365 139.674415,152.308532 C139.855755,151.985669 140.059975,151.610132 140.281308,151.188032 C140.918584,149.972695 141.557379,148.64119 142.151609,147.244525 C143.162591,144.868334 143.932645,142.563542 144.366692,140.46381 C144.970178,137.544408 144.856358,135.31352 144.115583,134.005865 C143.514808,132.945347 142.307775,132.211332 140.087431,131.950144 L139.982471,131.938122 L139.956137,131.978919 C135.001615,139.456852 128.150773,146.46608 120.289606,152.32878 L119.90218,152.616182 C114.343659,156.717748 108.670945,159.910213 103.819315,161.677961 C101.256584,162.611721 98.9283807,163.148556 96.8871155,163.231074 C94.2494001,163.337704 91.9637625,162.699524 90.299955,161.04177 C88.4895856,159.237988 87.9744866,156.798438 88.5529971,154.271348 C88.9736393,152.43387 89.9627303,150.531124 91.4331987,148.534255 C94.0111215,145.033483 98.1632507,141.155698 103.177453,137.512715 C113.38173,130.098971 125.231106,124.853307 135.199572,123.969139 L135.446391,123.94826 L135.462569,123.919554 C136.970779,121.198714 138.159265,118.454769 138.97203,115.737545 L139.067755,115.411609 C142.062364,105.022907 139.429123,99.0011365 132.823702,97.4285742 C125.1831,95.609565 113.428035,99.6291838 101.709427,109.008337 C84.6973648,122.624181 72.4034952,139.475745 64.780827,159.622923 C63.9979419,161.692136 61.6795542,162.737287 59.602563,161.957334 C57.5255719,161.177381 56.4764916,158.867675 57.2593767,156.798462 C65.3905021,135.307401 78.5447856,117.276442 96.6752356,102.765481 C110.150685,91.9802156 124.258556,87.1560599 134.691918,89.6399457 C146.220476,92.3845662 150.950415,103.201126 146.793519,117.62196 C146.130155,119.923261 145.253613,122.220517 144.186659,124.496311 L144.111277,124.654723 L144.150797,124.66693 C147.219079,125.619325 149.548709,127.385473 151.038117,129.935075 L151.11573,130.069987 C152.590808,132.673872 153.033577,135.745608 152.688446,139.195065 L152.679129,139.28307 L152.902473,139.089293 C153.07213,138.942799 153.242274,138.79673 153.412894,138.651108 L153.92617,138.215604 C164.545271,129.258727 174.736611,123.83691 184.098985,123.83691 C189.957299,123.83691 194.178045,125.893809 196.045293,129.993932 C197.593225,133.392899 197.183316,137.507784 195.360893,142.019479 C192.377304,149.405827 185.490737,157.736686 179.265835,161.607356 C177.382858,162.778199 174.90368,162.206617 173.728436,160.330691 C172.553192,158.454766 173.126923,155.984872 175.0099,154.814029 C179.768861,151.854887 185.547119,144.864777 187.904012,139.029916 C188.985994,136.351299 189.188423,134.319209 188.725432,133.302569 C188.338891,132.453797 187.089306,131.844836 184.098985,131.844836 C177.147338,131.844836 168.404686,136.495947 159.120006,144.327283 C155.756465,147.164323 152.563951,150.214228 149.654151,153.26366 C148.636934,154.32969 147.729385,155.317643 146.944853,156.201021 C146.672953,156.507178 146.43667,156.777393 146.237655,157.008359 C146.122387,157.142133 146.047626,157.230116 146.015014,157.269008 C142.847236,161.046803 136.956593,156.902209 139.470616,152.664988 L139.46973,152.666484 Z M128.060606,133.545455 L127.934884,133.58308 C121.264016,135.596106 113.904295,139.459715 107.314146,144.390438 C102.972463,147.638868 99.4472433,151.029332 97.4415316,153.834265 C96.9168146,154.568067 96.5256076,155.222984 96.2681576,155.764015 L96.2424242,155.818182 L96.3383115,155.811764 C97.3725455,155.731679 98.747057,155.396513 100.358847,154.804682 L100.54587,154.735254 C104.565248,153.22708 109.513782,150.359128 114.427166,146.625499 C119.484397,142.782563 124.070739,138.40236 127.884778,133.761077 L128.060606,133.545455 Z" id="path-1"></path>
    </defs>
    <g id="2" stroke="none" stroke-width="1" fill="none" fill-rule="evenodd">
        <mask id="mask-2" fill="white">
            <use xlink:href="#path-1"></use>
        </mask>
        <use id="Mask" fill="#EDF3D7" fill-rule="nonzero" xlink:href="#path-1"></use>
    </g>
</svg>