<?xml version="1.0" encoding="UTF-8"?>
<svg width="100px" height="100px" viewBox="0 0 100 100" version="1.1" xmlns="http://www.w3.org/2000/svg" xmlns:xlink="http://www.w3.org/1999/xlink">
    <title>daymind-avatar-2</title>
    <defs>
        <path d="M56.2348649,59.833242 L56.2352206,59.8325347 L56.2364656,59.8305178 L56.2381827,59.8275907 C56.2449338,59.8160475 56.2493682,59.8084285 56.2567863,59.795597 C56.2794359,59.7564185 56.306363,59.7091825 56.3372074,59.6542662 C56.4278776,59.4928347 56.5299876,59.3050662 56.6406542,59.094016 C56.959292,58.4863475 57.2786896,57.8205948 57.5758044,57.1222624 C58.0812954,55.9341668 58.4663224,54.7817708 58.683346,53.7319052 C58.9850889,52.2722042 58.9281788,51.1567599 58.5577913,50.5029326 C58.257404,49.9726733 57.6538875,49.6056658 56.5437153,49.4750721 L56.4912355,49.4690612 L56.4780686,49.4894597 C54.0008076,53.228426 50.5753867,56.7330399 46.6448029,59.66439 L46.4510902,59.808091 C43.6718293,61.8588738 40.8354725,63.4551063 38.4096573,64.3389803 C37.1282922,64.8058605 35.9641903,65.0742778 34.9435577,65.115537 C33.6247,65.1688519 32.4818813,64.8497621 31.6499775,64.0208852 C30.7447928,63.118994 30.4872433,61.8992188 30.7764985,60.6356741 C30.9868196,59.716935 31.4813651,58.7655621 32.2165993,57.7671275 C33.5055608,56.0167415 35.5816254,54.077849 38.0887263,52.2563575 C43.1908651,48.5494855 49.1155532,45.9266535 54.0997859,45.4845695 L54.2231956,45.4741298 L54.2312844,45.4597771 C54.9853894,44.0993572 55.5796326,42.7273847 55.9860152,41.3687724 L56.0338776,41.2058046 C57.5311818,36.0114533 56.2145615,33.0005682 52.9118509,32.2142871 C49.09155,31.3047825 43.2140176,33.3145919 37.3547137,38.0041684 C28.8486824,44.8120904 22.7017476,53.2378724 18.8904135,63.3114613 C18.498971,64.3460678 17.3397771,64.8686436 16.3012815,64.478667 C15.2627859,64.0886904 14.7382458,62.9338375 15.1296883,61.899231 C19.195251,51.1537003 25.7723928,42.1382212 34.8376178,34.8827406 C41.5753423,29.4901078 48.6292778,27.0780299 53.845959,28.3199728 C59.610238,29.6922831 61.9752073,35.1005632 59.8967596,42.3109802 C59.5650774,43.4616305 59.1268066,44.6102583 58.5933293,45.7481557 L58.5556386,45.8273617 L58.5753984,45.833465 C60.1095393,46.3096626 61.2743547,47.1927365 62.0190584,48.4675373 L62.0578651,48.5349937 C62.7954042,49.8369362 63.0167886,51.3728042 62.8442228,53.0975326 L62.8395646,53.1415348 L62.9512363,53.0446464 C63.0360652,52.9713997 63.121137,52.8983652 63.2064469,52.8255542 L63.4630849,52.6078022 C68.7726357,48.1293633 73.8683055,45.4184551 78.5494924,45.4184551 C81.4786497,45.4184551 83.5890223,46.4469046 84.5226463,48.4969661 C85.2966125,50.1964494 85.0916578,52.2538921 84.1804467,54.5097395 C82.688652,58.2029136 79.2453683,62.3683432 76.1329177,64.303678 C75.1914292,64.8890995 73.9518401,64.6033083 73.364218,63.6653455 C72.776596,62.7273828 73.0634614,61.4924358 74.00495,60.9070143 C76.3844303,59.4274435 79.2735597,55.9323886 80.4520061,53.0149581 C80.992997,51.6756494 81.0942116,50.6596043 80.8627162,50.1512843 C80.6694456,49.7268986 80.0446531,49.422418 78.5494924,49.422418 C75.0736689,49.422418 70.7023428,51.7479737 66.0600028,55.6636413 C64.3782326,57.0821615 62.7819755,58.6071139 61.3270754,60.1318298 C60.8184668,60.664845 60.3646923,61.1588217 59.9724264,61.6005103 C59.8364764,61.7535892 59.7183349,61.8886963 59.6188275,62.0041794 C59.5611935,62.0710663 59.5238129,62.1150579 59.5075069,62.1345039 C57.923618,64.0234016 54.9782966,61.9511043 56.2353082,59.8324942 L56.2348649,59.833242 Z M50.530303,50.2727273 L50.4674419,50.2915398 C47.1320078,51.2980529 43.4521473,53.2298575 40.157073,55.695219 C37.9862315,57.319434 36.2236216,59.0146659 35.2207658,60.4171324 C34.9584073,60.7840336 34.7628038,61.1114918 34.6340788,61.3820076 L34.6212121,61.4090909 L34.6691557,61.4058821 C35.1862728,61.3658397 35.8735285,61.1982564 36.6794235,60.9023409 L36.772935,60.8676272 C38.7826238,60.1135402 41.256891,58.6795639 43.7135831,56.8127495 C46.2421984,54.8912814 48.5353694,52.7011798 50.4423888,50.3805385 L50.530303,50.2727273 Z" id="path-1"></path>
    </defs>
    <g id="avatar-2" stroke="none" stroke-width="1" fill="none" fill-rule="evenodd">
        <rect id="Rectangle" fill="#EDF3D7" fill-rule="nonzero" x="0" y="0" width="100" height="100" rx="50"></rect>
        <mask id="mask-2" fill="white">
            <use xlink:href="#path-1"></use>
        </mask>
        <use id="Mask" fill="#21424C" fill-rule="nonzero" xlink:href="#path-1"></use>
    </g>
</svg>