<?xml version="1.0" encoding="UTF-8"?>
<svg width="256px" height="256px" viewBox="0 0 256 256" version="1.1" xmlns="http://www.w3.org/2000/svg" xmlns:xlink="http://www.w3.org/1999/xlink">
    <title>daymind-2</title>
    <defs>
        <path d="M141.182286,156.304569 L141.183038,156.303073 L141.18567,156.298809 L141.189301,156.29262 C141.203574,156.268215 141.21295,156.252106 141.228634,156.224976 C141.276522,156.142142 141.333453,156.042271 141.398667,155.926163 C141.59037,155.58485 141.80626,155.187854 142.04024,154.741634 C142.713932,153.456849 143.389229,152.049257 144.017415,150.572783 C145.086167,148.06081 145.900225,145.624315 146.359074,143.4046 C146.997045,140.318375 146.876721,137.960007 146.093616,136.577629 C145.458511,135.456509 144.182505,134.680551 141.835284,134.404438 L141.724326,134.391729 L141.696488,134.434858 C136.45885,142.340101 129.216532,149.749856 120.906155,155.947567 L120.496591,156.251392 C114.620439,160.587333 108.62357,163.962225 103.494704,165.830987 C100.785532,166.818105 98.3242882,167.385616 96.1663792,167.47285 C93.3779372,167.585573 90.9616918,166.910926 89.2028096,165.158443 C87.2889905,163.251587 86.7444572,160.672634 87.3560255,158.00114 C87.8007044,156.058663 88.8463149,154.047188 90.40081,151.936212 C93.1260427,148.235396 97.5154365,144.136024 102.816164,140.28487 C113.603543,132.447484 126.130027,126.902068 136.668119,125.967375 L136.929042,125.945303 L136.946144,125.914957 C138.540538,123.038641 139.796938,120.137899 140.656146,117.265404 L140.757341,116.920844 C143.92307,105.938501 141.139359,99.57263 134.156485,97.910207 C126.079277,95.9872545 113.652494,100.236566 101.264252,110.15167 C83.2800714,124.545563 70.283695,142.360073 62.2254457,163.658518 C61.3978243,165.845972 58.9469573,166.950847 56.7512809,166.126325 C54.5556045,165.301803 53.4465768,162.860114 54.2741982,160.67266 C62.8699593,137.953538 76.7759162,118.892239 95.9423919,103.55208 C110.187867,92.1505136 125.101902,87.0506919 136.131456,89.676514 C148.318789,92.5779699 153.31901,104.012619 148.924577,119.257501 C148.223307,121.690304 147.296677,124.118832 146.168753,126.524672 L146.089064,126.692136 L146.130842,126.70504 C149.374454,127.711858 151.837207,129.578929 153.411723,132.274222 L153.493772,132.416844 C155.05314,135.169522 155.52121,138.416786 155.156357,142.063355 L155.146508,142.156388 L155.382614,141.951538 C155.561966,141.796674 155.741833,141.642258 155.922202,141.488315 L156.464808,141.027925 C167.690715,131.559225 178.464417,125.827591 188.361784,125.827591 C194.554859,125.827591 199.01679,128.002027 200.990738,132.336443 C202.627124,135.929636 202.193791,140.279658 200.26723,145.049163 C197.11315,152.857589 189.833064,161.664497 183.252455,165.756348 C181.261879,166.994096 178.641033,166.389852 177.398632,164.406731 C176.156232,162.423609 176.762747,159.812579 178.753323,158.57483 C183.784224,155.446595 189.892669,148.05705 192.384241,141.888769 C193.528051,139.057087 193.742047,136.908878 193.2526,135.834144 C192.843971,134.936871 191.522981,134.293112 188.361784,134.293112 C181.0129,134.293112 171.770668,139.210001 161.955435,147.488842 C158.399692,150.487999 155.024748,153.712184 151.948674,156.935869 C150.87333,158.062815 149.913921,159.107223 149.084559,160.041079 C148.797121,160.364731 148.547337,160.650386 148.33695,160.894551 C148.215095,161.035969 148.136062,161.12898 148.101586,161.170094 C144.752792,165.163763 138.525541,160.782335 141.183223,156.302988 L141.182286,156.304569 Z M129.121212,136.090909 L128.988306,136.130684 C121.936245,138.25874 114.155969,142.343127 107.18924,147.555606 C102.599461,150.98966 98.8728,154.573865 96.7524763,157.53908 C96.1977754,158.314814 95.7842138,159.007154 95.5120523,159.579102 L95.4848485,159.636364 L95.586215,159.629579 C96.6795482,159.544918 98.1326031,159.190599 99.8364954,158.564949 L100.034205,158.491555 C104.283262,156.897199 109.514569,153.865364 114.708719,149.918385 C120.054934,145.855852 124.903352,141.225352 128.935336,136.318853 L129.121212,136.090909 Z" id="path-1"></path>
    </defs>
    <g id="2" stroke="none" stroke-width="1" fill="none" fill-rule="evenodd">
        <mask id="mask-2" fill="white">
            <use xlink:href="#path-1"></use>
        </mask>
        <use id="Mask" fill="#EDF3D7" fill-rule="nonzero" xlink:href="#path-1"></use>
    </g>
</svg>