<?xml version="1.0" encoding="UTF-8"?>
<svg width="1256px" height="620px" viewBox="0 0 1256 620" version="1.1" xmlns="http://www.w3.org/2000/svg" xmlns:xlink="http://www.w3.org/1999/xlink">
    <title>deepdub-preview</title>
    <g id="deepdub-preview" stroke="none" fill="none" fill-rule="evenodd" stroke-width="1">
        <g id="deppdub-full-logo-magenta-black" transform="translate(411, 271)">
            <path d="M82.8545455,63.1272727 L82.8545455,0 L101.266667,0 C117.246105,0 130.2,9.20606061 130.2,31.5636364 C130.2,53.9212121 117.246105,63.1272727 101.266667,63.1272727 L82.8545455,63.1272727 Z M101.266667,5.26060606 L93.3757576,5.26060606 L93.3757576,57.8666667 L101.266667,57.8666667 C116.362519,57.8666667 119.612367,46.331957 119.677771,32.0120308 L119.678788,31.5636364 C119.678788,17.0368738 116.519768,5.26060606 101.266667,5.26060606 Z M402.436364,0 L402.436825,20.8802062 C405.778638,16.6045132 410.436173,14.4666667 415.587879,14.4666667 C425.756612,14.4666667 434,22.7959596 434,39.4545455 C434,56.1131314 425.756612,64.4424242 415.587879,64.4424242 C410.436173,64.4424242 405.778638,62.3045777 402.436825,58.0288847 L402.436364,63.1272727 L386.654545,63.1272727 L386.654545,60.4969697 L386.917102,60.4905316 C389.700478,60.3537219 391.915152,58.0536752 391.915152,55.2363636 L391.915152,7.89090909 C391.915152,5.07359756 389.700478,2.77355078 386.917102,2.63674109 L386.654545,2.63030303 L386.654545,0 L402.436364,0 Z M412.957576,19.7272727 C404.362574,19.7272727 402.48784,28.3158384 402.437422,39.001796 L402.437422,39.9072949 L402.446326,40.8179462 C402.600454,51.0770167 404.608146,59.1818182 412.957576,59.1818182 C421.552578,59.1818182 423.427312,50.5932525 423.477729,39.9072949 L423.478788,39.4545455 C423.478788,28.5594736 421.673633,19.7272727 412.957576,19.7272727 Z M256.454545,14.4666667 C266.623279,14.4666667 274.866667,22.7959596 274.866667,39.4545455 C274.866667,56.1131314 266.623279,64.4424242 256.454545,64.4424242 C251.302839,64.4424242 246.645305,62.3045777 243.303492,58.0288847 L243.30303,71.0181818 C243.30303,73.8354933 245.517703,76.1355401 248.30108,76.2723498 L248.563636,76.2787879 L248.563636,78.9090909 L227.521212,78.9090909 L227.521212,76.2787879 L227.783769,76.2723498 C230.567145,76.1355401 232.781818,73.8354933 232.781818,71.0181818 L232.781818,23.6727273 C232.781818,20.8554157 230.567145,18.555369 227.783769,18.4185593 L227.521212,18.4121212 L227.521212,15.7818182 L243.30303,15.7818182 L243.303492,20.8802062 C246.645305,16.6045132 251.302839,14.4666667 256.454545,14.4666667 Z M253.824242,19.7272727 C245.229241,19.7272727 243.354507,28.3158384 243.304089,39.001796 L243.304089,39.9072949 L243.312993,40.8179462 C243.46712,51.0770167 245.474812,59.1818182 253.824242,59.1818182 C262.419244,59.1818182 264.293978,50.5932525 264.344396,39.9072949 L264.345455,39.4545455 C264.345455,28.5594736 262.5403,19.7272727 253.824242,19.7272727 Z M336.678788,23.6727273 C336.678788,20.8554157 334.464115,18.555369 331.680739,18.4185593 L331.418182,18.4121212 L331.418182,15.7818182 L347.2,15.7818182 L347.201059,39.9072949 L347.210162,40.831257 C347.363538,50.9331849 349.316664,58.9430783 357.356955,59.1765787 L357.721212,59.1818182 C366.316214,59.1818182 368.190948,50.5932525 368.241366,39.9072949 L368.242424,23.6727273 C368.242424,20.8554157 366.027751,18.555369 363.244375,18.4185593 L362.981818,18.4121212 L362.981818,15.7818182 L378.763636,15.7818182 L378.763636,55.2363636 C378.763636,58.0536752 380.978309,60.3537219 383.761686,60.4905316 L384.024242,60.4969697 L384.024242,63.1272727 L368.242424,63.1272727 L368.244026,58.0262441 C364.902067,62.3036975 360.243675,64.4424242 355.090909,64.4424242 C344.922176,64.4424242 336.678788,56.1131314 336.678788,39.4545455 L336.678788,23.6727273 Z M324.842424,0 L324.842424,55.2363636 C324.842424,58.0536752 327.057097,60.3537219 329.840473,60.4905316 L330.10303,60.4969697 L330.10303,63.1272727 L314.321212,63.1272727 L314.322814,58.0262441 C310.980855,62.3036975 306.322463,64.4424242 301.169697,64.4424242 C291.000964,64.4424242 282.757576,56.1131314 282.757576,39.4545455 C282.757576,22.7959596 291.000964,14.4666667 301.169697,14.4666667 C306.322463,14.4666667 310.980855,16.6053934 314.322814,20.8828468 L314.321212,7.89090909 C314.321212,5.07359756 312.106539,2.77355078 309.323163,2.63674109 L309.060606,2.63030303 L309.060606,0 L324.842424,0 Z M303.8,19.7272727 C295.204998,19.7272727 293.330264,28.3158384 293.279847,39.001796 L293.279847,39.9072949 L293.28875,40.8179462 C293.442878,51.0770167 295.45057,59.1818182 303.8,59.1818182 C312.395002,59.1818182 314.269736,50.5932525 314.320153,39.9072949 L314.321212,39.4545455 C314.321212,28.5594736 312.516058,19.7272727 303.8,19.7272727 Z M156.898095,57.8666667 C162.140788,57.8666667 166.47607,55.2940687 169.19405,51.2919462 L175.564505,51.2918017 C172.206547,60.0588834 164.933801,64.4424242 156.50303,64.4424242 C144.88162,64.4424242 135.460606,56.1131314 135.460606,39.4545455 C135.460606,22.7959596 144.88162,14.4666667 156.50303,14.4666667 C168.12444,14.4666667 177.545455,22.7959596 177.545455,39.4545455 C177.545455,40.3561605 177.517857,41.2333763 177.463809,42.086193 L145.994733,42.0862979 L146.016828,42.8956456 C146.309092,51.3348 148.54424,57.8666667 156.898095,57.8666667 Z M156.50303,19.7272727 C148.798188,19.7272727 146.493699,27.0890895 146.062684,36.8249647 L166.943376,36.8249647 C166.512362,27.0890895 164.207873,19.7272727 156.50303,19.7272727 Z M204.24355,57.8666667 C209.486242,57.8666667 213.821525,55.2940687 216.539505,51.2919462 L222.909959,51.2918017 C219.552002,60.0588834 212.279256,64.4424242 203.848485,64.4424242 C192.227075,64.4424242 182.806061,56.1131314 182.806061,39.4545455 C182.806061,22.7959596 192.227075,14.4666667 203.848485,14.4666667 C215.469895,14.4666667 224.890909,22.7959596 224.890909,39.4545455 C224.890909,40.3561605 224.863312,41.2333763 224.809263,42.086193 L193.340188,42.0862979 L193.362282,42.8956456 C193.654547,51.3348 195.889694,57.8666667 204.24355,57.8666667 Z M203.848485,19.7272727 C196.143642,19.7272727 193.839153,27.0890895 193.408139,36.8249647 L214.288831,36.8249647 C213.857816,27.0890895 211.553328,19.7272727 203.848485,19.7272727 Z" id="Shape" fill="#20202A" fill-rule="nonzero"></path>
            <g id="deepdub-symbol" fill="#FF3390">
                <path d="M0,63.1272727 C17.432115,63.1272727 31.5636364,48.9957514 31.5636364,31.5636364 C31.5636364,14.1315213 17.432115,0 0,0 C0,13.443771 0,23.5265993 0,30.2484848 C0,37.5548822 0,48.5144781 0,63.1272727 Z" id="Path"></path>
                <path d="M31.5636364,63.1272727 C48.9957514,63.1272727 63.1272727,48.9957514 63.1272727,31.5636364 C63.1272727,14.1315213 48.9957514,0 31.5636364,0 C31.5636364,13.443771 31.5636364,23.5265993 31.5636364,30.2484848 C31.5636364,37.5548822 31.5636364,48.5144781 31.5636364,63.1272727 Z" id="Path"></path>
            </g>
        </g>
    </g>
</svg>