<?xml version="1.0" encoding="UTF-8"?>
<svg width="1256px" height="620px" viewBox="0 0 1256 620" version="1.1" xmlns="http://www.w3.org/2000/svg" xmlns:xlink="http://www.w3.org/1999/xlink">
    <title>flexxi-preview</title>
    <defs>
        <linearGradient x1="18.0002554%" y1="9.12084058%" x2="81.9997446%" y2="90.7235199%" id="linearGradient-1">
            <stop stop-color="#FFFFFF" stop-opacity="0" offset="0.0983391608%"></stop>
            <stop stop-color="#FFFFFF" offset="50.98066%"></stop>
            <stop stop-color="#FFFFFF" stop-opacity="0" offset="100%"></stop>
            <stop stop-color="#FFFFFF" stop-opacity="0" offset="100%"></stop>
        </linearGradient>
    </defs>
    <g id="flexxi-preview" stroke="none" fill="none" fill-rule="evenodd" stroke-width="1">
        <g id="2-black-wordmark" transform="translate(495, 257)">
            <g id="wordmark-2" transform="translate(23.5556, 23.5556)">
                <path d="M35.3333333,0 L35.3333333,11.7777778 L17.6666667,11.7777778 C13.141344,11.7777778 11.8202318,13.0259008 11.7787925,17.4466846 L11.7777778,23.5555556 L29.4444444,23.5555556 L29.4444444,35.3333333 L11.7777778,35.3333333 L11.7777778,58.8888889 L0,58.8888889 L0,17.6666667 C0,6.56247126 6.56247126,0 17.6666667,0 L35.3333333,0 Z M76.5555556,58.8888889 L76.5555556,47.1111111 L58.8888889,47.1111111 L58.4540408,47.1070182 C54.2783114,47.0258564 53.0410956,45.7180443 53.0010151,41.4422042 L53,0 L41.2222222,0 L41.2222222,41.2222222 C41.2222222,52.3264178 47.7846935,58.8888889 58.8888889,58.8888889 L76.5555556,58.8888889 Z M117.777778,0 L117.777778,11.7777778 L100.120643,11.7791971 L100.0246,11.7858158 C99.7997479,11.8018767 99.5333706,11.8326126 99.2389608,11.8816809 C98.4009616,12.0213474 97.5728211,12.2697894 96.8558136,12.6282934 C95.1043321,13.5040341 94.2222222,14.827199 94.2222222,17.6666667 L94.2222222,23.5555556 L111.888889,23.5555556 L111.888889,35.3333333 L94.2222222,35.3333333 L94.2222222,41.2222222 C94.2222222,45.6733593 95.4297588,47.0244808 99.676263,47.1070182 L100.111111,47.1111111 L117.777778,47.1111111 L117.777778,58.8888889 L100.111111,58.8888889 C89.0069155,58.8888889 82.4444444,52.3264178 82.4444444,41.2222222 L82.4444444,17.6666667 C82.4444444,10.2005788 85.9790012,4.8987437 91.5886309,2.09392878 C93.4480122,1.16423834 95.3802884,0.584555329 97.3027059,0.264152442 C97.9744419,0.152196419 98.6052,0.0794166722 99.1854691,0.0379689056 C99.5071526,0.0149914917 99.7773502,0.00394246389 99.9902748,0.000897761111 L117.777778,0 Z M223.777778,0 L223.777778,58.8888889 L235.555556,58.8888889 L235.555556,0 L223.777778,0 Z" id="Shape" fill="#000000" fill-rule="nonzero"></path>
                <g id="logomark" transform="translate(123.6667, 0)">
                    <path d="M94.2222222,0 L94.2222222,11.7777778 C88.0447822,11.7777778 84.1927429,15.964794 77.267562,29.4446039 L77.8826888,30.6328191 C84.426096,43.1716902 88.2302137,47.1111111 94.2222222,47.1111111 L94.2222222,58.8888889 C86.8285065,58.8888889 80.7978611,55.5117272 75.7121415,49.4088637 C73.859224,47.1853629 72.3642675,45.0343403 70.6668271,42.0992756 C68.9690658,45.0343403 67.4741093,47.1853629 65.621192,49.4088637 C60.5354724,55.5117272 54.5048265,58.8888889 47.1111111,58.8888889 C39.7173957,58.8888889 33.6867499,55.5117272 28.6010303,49.4088637 C26.7481129,47.1853629 25.2531564,45.0343403 23.555716,42.0992756 C21.8579547,45.0343403 20.3629982,47.1853629 18.5100808,49.4088637 C13.4243612,55.5117272 7.39371539,58.8888889 0,58.8888889 L0,47.1111111 C6.17732833,47.1111111 10.0293397,42.9242465 16.9542839,29.4450169 L16.3392022,28.2567507 C9.79626391,15.7173413 5.99211693,11.7777778 0,11.7777778 L0,0 C7.39371539,0 13.4243612,3.37716169 18.5100808,9.4800252 C20.3629982,11.703526 21.8579547,13.8545486 23.5553952,16.7896133 C25.2531564,13.8545486 26.7481129,11.703526 28.6010303,9.4800252 C33.6867499,3.37716169 39.7173957,0 47.1111111,0 C54.5048265,0 60.5354724,3.37716169 65.621192,9.4800252 C67.4741093,11.703526 68.9690658,13.8545486 70.6665063,16.7896133 C72.3642675,13.8545486 73.859224,11.703526 75.7121415,9.4800252 C80.7978611,3.37716169 86.8285065,0 94.2222222,0 Z M47.1111111,11.7777778 C40.933671,11.7777778 37.081632,15.964794 30.1564512,29.4446039 L30.7715778,30.6328191 C37.3149849,43.1716902 41.1191026,47.1111111 47.1111111,47.1111111 C53.2884395,47.1111111 57.1404508,42.9242465 64.065395,29.4450169 L63.4503133,28.2567507 C56.974828,15.8466135 53.1819551,11.8599199 47.2957421,11.779039 L47.1111111,11.7777778 Z" id="Shape" fill="#000000" fill-rule="nonzero"></path>
                    <path d="M0,0 C7.39371627,0 13.4243634,3.37716294 18.5100794,9.48002697 C21.9770801,13.6404311 24.1908697,17.547127 28.8227186,26.8108617 L29.0552533,27.2749809 C36.688895,42.4792676 40.6137252,47.1111111 47.1109231,47.1111111 L47.1109231,58.8888889 C39.7172667,58.8888889 33.6866679,55.511742 28.6009896,49.4089101 C25.1340175,45.2485314 22.9202435,41.3418603 18.288416,32.0781682 L18.0558798,31.614046 C10.4221888,16.4096615 6.49731565,11.7777778 0,11.7777778 L0,0 Z" id="Path-5" fill="url(#linearGradient-1)" opacity="0.200000003"></path>
                    <path d="M47.1111111,0 C54.5048274,0 60.5354746,3.37716294 65.6211906,9.48002697 C69.0881912,13.6404311 71.3019808,17.547127 75.9338295,26.8108617 L76.166364,27.2749809 C83.8000063,42.4792676 87.7248367,47.1111111 94.2220345,47.1111111 L94.2220345,58.8888889 C86.8283777,58.8888889 80.7977793,55.511742 75.712101,49.4089101 C72.2451286,45.2485314 70.0313546,41.3418603 65.3995271,32.0781682 L65.1669909,31.614046 C57.5332999,16.4096615 53.6084268,11.7777778 47.1111111,11.7777778 L47.1111111,0 Z" id="Path-5" fill="url(#linearGradient-1)" opacity="0.200000003"></path>
                </g>
            </g>
        </g>
    </g>
</svg>