<?xml version="1.0" encoding="UTF-8"?>
<svg width="256px" height="256px" viewBox="0 0 256 256" version="1.1" xmlns="http://www.w3.org/2000/svg" xmlns:xlink="http://www.w3.org/1999/xlink">
    <title>flexxi-1</title>
    <defs>
        <linearGradient x1="18.0002554%" y1="9.12084058%" x2="81.9997446%" y2="90.7235199%" id="linearGradient-1">
            <stop stop-color="#FFFFFF" stop-opacity="0" offset="0.0983391608%"></stop>
            <stop stop-color="#FFFFFF" offset="50.98066%"></stop>
            <stop stop-color="#FFFFFF" stop-opacity="0" offset="100%"></stop>
            <stop stop-color="#FFFFFF" stop-opacity="0" offset="100%"></stop>
        </linearGradient>
    </defs>
    <g id="1" stroke="none" stroke-width="1" fill="none" fill-rule="evenodd">
        <g id="1-black-logomark" transform="translate(74, 97)" fill-rule="nonzero">
            <path d="M108.8,0 L108.8,13.6 C101.666805,13.6 97.21879,18.4348187 89.2221659,34.0001841 L89.9324633,35.3722363 C97.4882468,49.8510837 101.880926,54.4 108.8,54.4 L108.8,68 C100.262351,68 93.2986622,64.1003343 87.4260955,57.0532538 C85.2865002,54.4857395 83.5602487,52.0019171 81.6001853,48.6127484 C79.6397513,52.0019171 77.9134999,54.4857395 75.7739045,57.0532538 C69.9013379,64.1003343 62.9376487,68 54.4,68 C45.8623513,68 38.8986621,64.1003343 33.0260953,57.0532538 C30.8865002,54.4857395 29.1602485,52.0019171 27.2001852,48.6127484 C25.2397515,52.0019171 23.5134998,54.4857395 21.3739047,57.0532538 C15.5013379,64.1003343 8.53764871,68 0,68 L0,54.4 C7.13306596,54.4 11.5810489,49.5653563 19.5773995,34.000661 L18.8671542,32.6285498 C11.3119123,18.1490809 6.91919916,13.6 0,13.6 L0,0 C8.53764871,0 15.5013379,3.89966595 21.3739047,10.9467461 C23.5134998,13.5142602 25.2397515,15.9980826 27.1998148,19.3872516 C29.1602485,15.9980826 30.8865002,13.5142602 33.0260953,10.9467461 C38.8986621,3.89966595 45.8623513,0 54.4,0 C62.9376487,0 69.9013379,3.89966595 75.7739045,10.9467461 C77.9134999,13.5142602 79.6397513,15.9980826 81.5998147,19.3872516 C83.5602487,15.9980826 85.2865002,13.5142602 87.4260955,10.9467461 C93.2986622,3.89966595 100.262351,0 108.8,0 Z M54.4,13.6 C47.266805,13.6 42.8187901,18.4348187 34.8221662,34.0001841 L35.5324635,35.3722363 C43.0882467,49.8510837 47.4809261,54.4 54.4,54.4 C61.533066,54.4 65.9810489,49.5653563 73.9773997,34.000661 L73.2671542,32.6285498 C65.7898014,18.2983538 61.4101067,13.6948509 54.6131965,13.6014563 L54.4,13.6 Z" id="Shape" fill="#000000"></path>
            <path d="M0,0 C8.53764973,0 15.5013404,3.8996674 21.3739031,10.9467481 C25.3773076,15.7508375 27.9336081,20.2619655 33.2820826,30.9589573 L33.5505944,31.4948836 C42.36529,49.0515317 46.8973581,54.4 54.3997829,54.4 L54.3997829,68 C45.8622023,68 38.8985675,64.1003513 33.0260483,57.0533073 C29.0226768,52.2492475 26.4663944,47.7381481 21.1179445,37.0412056 L20.849431,36.5052758 C12.0346784,18.9485148 7.5025607,13.6 0,13.6 L0,0 Z" id="Path-5" fill="url(#linearGradient-1)" opacity="0.200000003"></path>
            <path d="M54.4,0 C62.9376497,0 69.9013404,3.8996674 75.7739028,10.9467481 C79.7773076,15.7508375 82.3336078,20.2619655 87.6820824,30.9589573 L87.950594,31.4948836 C96.7652903,49.0515317 101.297359,54.4 108.799783,54.4 L108.799783,68 C100.262202,68 93.2985679,64.1003513 87.4260488,57.0533073 C83.4226771,52.2492475 80.8663947,47.7381481 75.5179449,37.0412056 L75.2494307,36.5052758 C66.4346784,18.9485148 61.9025607,13.6 54.4,13.6 L54.4,0 Z" id="Path-5" fill="url(#linearGradient-1)" opacity="0.200000003"></path>
        </g>
    </g>
</svg>