<?xml version="1.0" encoding="UTF-8"?>
<svg width="100px" height="100px" viewBox="0 0 100 100" version="1.1" xmlns="http://www.w3.org/2000/svg" xmlns:xlink="http://www.w3.org/1999/xlink">
    <title>flexxi-avatar-3</title>
    <defs>
        <linearGradient x1="18.0002554%" y1="9.12084058%" x2="81.9997446%" y2="90.7235199%" id="linearGradient-1">
            <stop stop-color="#FFFFFF" stop-opacity="0" offset="0.0983391608%"></stop>
            <stop stop-color="#FFFFFF" offset="52.067854%"></stop>
            <stop stop-color="#FFFFFF" stop-opacity="0" offset="100%"></stop>
            <stop stop-color="#FFFFFF" stop-opacity="0" offset="100%"></stop>
        </linearGradient>
    </defs>
    <g id="avatar-3" stroke="none" stroke-width="1" fill="none" fill-rule="evenodd">
        <rect id="Rectangle" fill="#1D1D1D" x="0" y="0" width="100" height="100" rx="50"></rect>
        <g id="7-white-logomark" transform="translate(19, 31)" fill-rule="nonzero">
            <path d="M62.4,0 L62.4,7.8 C58.3089029,7.8 55.7578354,10.5729107 51.1715363,19.5001056 L51.5789128,20.2870179 C55.9123768,28.5910627 58.4317076,31.2 62.4,31.2 L62.4,39 C57.5034072,39 53.5095269,36.763427 50.1414371,32.7217191 C48.9143163,31.2491741 47.9242603,29.8246289 46.8001063,27.880841 C45.6757397,29.8246289 44.6856837,31.2491741 43.4585629,32.7217191 C40.0904732,36.763427 36.0965926,39 31.2,39 C26.3034074,39 22.3095268,36.763427 18.941437,32.7217191 C17.7143163,31.2491741 16.7242602,29.8246289 15.6001062,27.880841 C14.4757398,29.8246289 13.4856837,31.2491741 12.258563,32.7217191 C8.8904732,36.763427 4.89659264,39 0,39 L0,31.2 C4.09102312,31.2 6.64207216,28.4271897 11.2282144,19.5003791 L10.8208679,18.713433 C6.4877144,10.4090317 3.96836422,7.8 0,7.8 L0,0 C4.89659264,0 8.8904732,2.23657312 12.258563,6.27828084 C13.4856837,7.75082573 14.4757398,9.17537088 15.5998938,11.119159 C16.7242602,9.17537088 17.7143163,7.75082573 18.941437,6.27828084 C22.3095268,2.23657312 26.3034074,0 31.2,0 C36.0965926,0 40.0904732,2.23657312 43.4585629,6.27828084 C44.6856837,7.75082573 45.6757397,9.17537088 46.7998937,11.119159 C47.9242603,9.17537088 48.9143163,7.75082573 50.1414371,6.27828084 C53.5095269,2.23657312 57.5034072,0 62.4,0 Z M31.2,7.8 C27.1089029,7.8 24.5578355,10.5729107 19.9715365,19.5001056 L20.3789129,20.2870179 C24.7123768,28.5910627 27.2317076,31.2 31.2,31.2 C35.2910231,31.2 37.8420722,28.4271897 42.4282146,19.5003791 L42.0208679,18.713433 C37.7323861,10.4946441 35.2205023,7.85439978 31.3222745,7.80083523 L31.2,7.8 Z" id="Shape" fill="#FFFFFF" opacity="0.900000036"></path>
            <path d="M31.2,0 C36.0965932,0 40.0904747,2.23657395 43.4585619,6.27828201 C45.7546323,9.03356854 47.2207457,11.6208332 50.2882531,17.7558726 L50.4422524,18.063242 C55.49774,28.1324961 58.0970145,31.2 62.3998757,31.2 L62.3998757,39 C57.5033219,39 53.5094727,36.7634368 50.1414103,32.7217498 C47.8453589,29.9664802 46.3792558,27.379232 43.3117625,21.2442208 L43.1577617,20.9368494 C38.102242,10.8675305 35.5029392,7.8 31.2,7.8 L31.2,0 Z" id="Path-5" fill="url(#linearGradient-1)" transform="translate(46.7999, 19.5) scale(-1, 1) translate(-46.7999, -19.5)"></path>
            <path d="M2.42472709e-13,0 C4.89659323,0 8.89047466,2.23657395 12.2585619,6.27828201 C14.5546323,9.03356854 16.0207457,11.6208332 19.0882531,17.7558726 L19.2422524,18.063242 C24.29774,28.1324961 26.8970145,31.2 31.1998757,31.2 L31.1998757,39 C26.3033219,39 22.3094727,36.7634368 18.9414103,32.7217498 C16.6453589,29.9664802 15.1792558,27.379232 12.1117625,21.2442208 L11.9577617,20.9368494 C6.90224204,10.8675305 4.30293923,7.8 2.42472709e-13,7.8 L2.42472709e-13,0 Z" id="Path-5" fill="url(#linearGradient-1)" transform="translate(15.5999, 19.5) scale(-1, 1) translate(-15.5999, -19.5)"></path>
        </g>
    </g>
</svg>