<?xml version="1.0" encoding="UTF-8"?>
<svg width="100px" height="100px" viewBox="0 0 100 100" version="1.1" xmlns="http://www.w3.org/2000/svg" xmlns:xlink="http://www.w3.org/1999/xlink">
    <title>flexxi-avatar-4</title>
    <defs>
        <linearGradient x1="18.4091936%" y1="9.12084058%" x2="81.5908064%" y2="90.7235199%" id="linearGradient-1">
            <stop stop-color="#FFFFFF" stop-opacity="0" offset="0.0983391608%"></stop>
            <stop stop-color="#FFFFFF" offset="50.98066%"></stop>
            <stop stop-color="#FFFFFF" stop-opacity="0" offset="100%"></stop>
            <stop stop-color="#FFFFFF" stop-opacity="0" offset="100%"></stop>
        </linearGradient>
    </defs>
    <g id="avatar-4" stroke="none" stroke-width="1" fill="none" fill-rule="evenodd">
        <rect id="Rectangle" fill="#E9E9F0" x="0" y="0" width="100" height="100" rx="50"></rect>
        <g id="1-black-logomark" transform="translate(19, 31)">
            <path d="M62,0 L62,7.8 C57.9351279,7.8 55.4004134,10.5729107 50.8435137,19.5001056 L51.2482787,20.2870179 C55.5539641,28.5910627 58.0571454,31.2 62,31.2 L62,39 C57.1347956,39 53.1665171,36.763427 49.8200177,32.7217191 C48.600763,31.2491741 47.6170535,29.8246289 46.5001056,27.880841 C45.3829465,29.8246289 44.399237,31.2491741 43.1799823,32.7217191 C39.833483,36.763427 35.8652042,39 31,39 C26.1347958,39 22.166517,36.763427 18.8200176,32.7217191 C17.600763,31.2491741 16.6170534,29.8246289 15.5001055,27.880841 C14.3829466,29.8246289 13.399237,31.2491741 12.1799824,32.7217191 C8.83348299,36.763427 4.86520423,39 0,39 L0,31.2 C4.06479861,31.2 6.59949477,28.4271897 11.1562387,19.5003791 L10.7515033,18.713433 C6.44612649,10.4090317 3.94292599,7.8 0,7.8 L0,0 C4.86520423,0 8.83348299,2.23657312 12.1799824,6.27828084 C13.399237,7.75082573 14.3829466,9.17537088 15.4998945,11.119159 C16.6170534,9.17537088 17.600763,7.75082573 18.8200176,6.27828084 C22.166517,2.23657312 26.1347958,0 31,0 C35.8652042,0 39.833483,2.23657312 43.1799823,6.27828084 C44.399237,7.75082573 45.3829465,9.17537088 46.4998944,11.119159 C47.6170535,9.17537088 48.600763,7.75082573 49.8200177,6.27828084 C53.1665171,2.23657312 57.1347956,0 62,0 Z M31,7.8 C26.9351279,7.8 24.4004135,10.5729107 19.8435139,19.5001056 L20.2482788,20.2870179 C24.5539641,28.5910627 27.0571454,31.2 31,31.2 C35.0647986,31.2 37.5994948,28.4271897 42.1562388,19.5003791 L41.7515033,18.713433 C37.4905119,10.4946441 34.9947299,7.85439978 31.1214906,7.80083523 L31,7.8 Z" id="Shape" fill="#AC55FF"></path>
            <path d="M0,0 C4.86520481,0 8.83348444,2.23657395 12.1799815,6.27828201 C14.4613334,9.03356854 15.9180487,11.6208332 18.9658927,17.7558726 L19.1189049,18.063242 C24.1419851,28.1324961 26.7245975,31.2 30.9998763,31.2 L30.9998763,39 C26.1347109,39 22.1664631,36.7634368 18.8199908,32.7217498 C16.5386578,29.9664802 15.0819527,27.379232 12.0341228,21.2442208 L11.8811096,20.9368494 C6.85799689,10.8675305 4.27535628,7.8 0,7.8 L0,0 Z" id="Path-5" fill="url(#linearGradient-1)" fill-rule="nonzero" opacity="0.200000003"></path>
            <path d="M31,0 C35.8652048,0 39.8334844,2.23657395 43.1799814,6.27828201 C45.4613334,9.03356854 46.9180486,11.6208332 49.9658925,17.7558726 L50.1189046,18.063242 C55.1419853,28.1324961 57.7245977,31.2 61.9998765,31.2 L61.9998765,39 C57.1347108,39 53.1664633,36.7634368 49.819991,32.7217498 C47.5386579,29.9664802 46.0819529,27.379232 43.034123,21.2442208 L42.8811094,20.9368494 C37.8579969,10.8675305 35.2753563,7.8 31,7.8 L31,0 Z" id="Path-5" fill="url(#linearGradient-1)" fill-rule="nonzero" opacity="0.200000003"></path>
        </g>
    </g>
</svg>