<?xml version="1.0" encoding="UTF-8"?>
<svg width="256px" height="256px" viewBox="0 0 256 256" version="1.1" xmlns="http://www.w3.org/2000/svg" xmlns:xlink="http://www.w3.org/1999/xlink">
    <title>flexxi-2</title>
    <defs>
        <linearGradient x1="18.0002554%" y1="9.12084058%" x2="81.9997446%" y2="90.7235199%" id="linearGradient-1">
            <stop stop-color="#FFFFFF" stop-opacity="0" offset="0.0983391608%"></stop>
            <stop stop-color="#FFFFFF" offset="52.067854%"></stop>
            <stop stop-color="#FFFFFF" stop-opacity="0" offset="100%"></stop>
            <stop stop-color="#FFFFFF" stop-opacity="0" offset="100%"></stop>
        </linearGradient>
    </defs>
    <g id="2" stroke="none" stroke-width="1" fill="none" fill-rule="evenodd">
        <g id="7-white-logomark" transform="translate(72, 96)" fill-rule="nonzero">
            <path d="M112,0 L112,14 C104.657005,14 100.078166,18.9770192 91.8463472,35.0001895 L92.5775357,36.4125962 C100.355548,51.3172921 104.877424,56 112,56 L112,70 C103.211244,70 96.0427405,65.9856383 89.9974512,58.7312906 C87.7949266,56.0882613 86.0179031,53.5313852 84.0001908,50.0425351 C81.9820969,53.5313852 80.2050734,56.0882613 78.0025488,58.7312906 C71.9572596,65.9856383 64.788756,70 56,70 C47.211244,70 40.0427404,65.9856383 33.9974511,58.7312906 C31.7949267,56.0882613 30.0179029,53.5313852 28.0001907,50.0425351 C25.9820971,53.5313852 24.2050733,56.0882613 22.0025489,58.7312906 C15.9572596,65.9856383 8.78875602,70 0,70 L0,56 C7.34286201,56 11.921668,51.0231609 20.1532054,35.0006805 L19.4220705,33.5882131 C11.6446156,18.6828774 7.12270501,14 0,14 L0,0 C8.78875602,0 15.9572596,4.01436201 22.0025489,11.2687092 C24.2050733,13.9117385 25.9820971,16.4686144 27.9998093,19.9574649 C30.0179029,16.4686144 31.7949267,13.9117385 33.9974511,11.2687092 C40.0427404,4.01436201 47.211244,0 56,0 C64.788756,0 71.9572596,4.01436201 78.0025488,11.2687092 C80.2050734,13.9117385 81.9820969,16.4686144 83.9998092,19.9574649 C86.0179031,16.4686144 87.7949266,13.9117385 89.9974512,11.2687092 C96.0427405,4.01436201 103.211244,0 112,0 Z M56,14 C48.6570052,14 44.0781663,18.9770192 35.8463476,35.0001895 L36.5775359,36.4125962 C44.355548,51.3172921 48.8774239,56 56,56 C63.342862,56 67.921668,51.0231609 76.1532056,35.0006805 L75.4220705,33.5882131 C67.7247956,18.8365406 63.2162863,14.0976406 56.219467,14.0014991 L56,14 Z" id="Shape" fill="#FFFFFF" opacity="0.900000036"></path>
            <path d="M56,0 C64.7887571,0 71.9572622,4.0143635 78.002547,11.2687113 C82.123699,16.2140974 84.7551845,20.8579057 90.2609671,31.8695149 L90.5373761,32.4212037 C99.6113283,50.4942238 104.276693,56 111.999777,56 L111.999777,70 C103.211091,70 96.0426434,65.9856558 89.9974031,58.7313458 C85.8762853,53.7859901 83.2448181,49.1422113 77.7390609,38.1306528 L77.4626493,37.5789604 C68.3886396,19.505824 63.7232243,14 56,14 L56,0 Z" id="Path-5" fill="url(#linearGradient-1)" transform="translate(83.9999, 35) scale(-1, 1) translate(-83.9999, -35)"></path>
            <path d="M4.35207426e-13,0 C8.78875708,0 15.9572622,4.0143635 22.002547,11.2687113 C26.123699,16.2140974 28.7551845,20.8579057 34.2609671,31.8695149 L34.5373761,32.4212037 C43.6113283,50.4942238 48.2766926,56 55.9997769,56 L55.9997769,70 C47.2110905,70 40.0426434,65.9856558 33.9974031,58.7313458 C29.8762853,53.7859901 27.2448181,49.1422113 21.7390609,38.1306528 L21.4626493,37.5789604 C12.3886396,19.505824 7.72322425,14 4.35207426e-13,14 L4.35207426e-13,0 Z" id="Path-5" fill="url(#linearGradient-1)" transform="translate(27.9999, 35) scale(-1, 1) translate(-27.9999, -35)"></path>
        </g>
    </g>
</svg>