<?xml version="1.0" encoding="UTF-8"?>
<svg width="1256px" height="620px" viewBox="0 0 1256 620" version="1.1" xmlns="http://www.w3.org/2000/svg" xmlns:xlink="http://www.w3.org/1999/xlink">
    <title>headroom-preview 2</title>
    <defs>
        <path d="M0,0 L1256,0 L1256,620 L0,620 L0,0 Z" id="path-1"></path>
        <radialGradient cx="50%" cy="50%" fx="50%" fy="50%" r="54.9327194%" gradientTransform="translate(0.5, 0.5), scale(1, 0.9041), rotate(-90), translate(-0.5, -0.5)" id="radialGradient-2">
            <stop stop-color="#00A8BF" offset="0%"></stop>
            <stop stop-color="#88FFFF" offset="100%"></stop>
        </radialGradient>
    </defs>
    <g id="headroom-preview" stroke="none" fill="none" xlink:href="#path-1" fill-rule="evenodd">
        <use fill="#19191A" xlink:href="#path-1"></use>
        <g id="tenzai-full-logo-blue-white" stroke-width="1" transform="translate(385.5, 259.5)">
            <path d="M133.333333,30.5555556 L133.333333,13.8888889 L194.444444,13.8888889 L194.444444,30.5555556 L172.222222,30.5555556 L172.222222,86.1111111 L155.555556,86.1111111 L155.555556,30.5555556 L133.333333,30.5555556 Z M202.777778,13.8888889 L255.555556,13.8888889 L255.555556,30.5555556 L219.444444,30.5555556 L219.444444,41.6666667 L252.777778,41.6666667 L252.777778,58.3333333 L219.444444,58.3333333 L219.444444,69.4444444 L255.555556,69.4444444 L255.555556,86.1111111 L202.777778,86.1111111 L202.777778,13.8888889 Z M366.666667,30.5555556 L336.111111,30.5555556 L336.111111,13.8888889 L388.888889,13.8888889 L388.888889,30.5555556 L358.333333,69.4444444 L388.888889,69.4444444 L388.888889,86.1111111 L336.111111,86.1111111 L336.111111,69.4444444 L366.666667,30.5555556 Z M413.888889,86.1111111 L394.444444,86.1111111 L416.666667,13.8888889 L441.666667,13.8888889 L463.888889,86.1111111 L444.444444,86.1111111 L439.958333,69.4444444 L418.375,69.4444444 L413.888889,86.1111111 Z M429.166667,29.3666667 L422.863889,52.7777778 L435.469444,52.7777778 L429.166667,29.3666667 Z M325,86.1111111 L308.333333,86.1111111 L283.333333,44.4444444 L283.333333,86.1111111 L266.666667,86.1111111 L266.666667,13.8888889 L283.333333,13.8888889 L308.333333,55.5555556 L308.333333,13.8888889 L325,13.8888889 L325,86.1111111 Z M469.444444,13.8888889 L486.111111,13.8888889 L486.111111,86.1111111 L469.444444,86.1111111 L469.444444,13.8888889 Z" id="Shape" fill="#FFFFFF" fill-rule="nonzero"></path>
            <g id="tenzai-symbol-black">
                <path d="M72.8937711,61.1083333 L91.2478956,79.4627825 L79.4627825,91.2478956 L61.1104378,72.8944444 L61.1111111,61.1111111 L72.8937711,61.1083333 Z M27.1021044,61.1083333 L38.8888889,61.1111111 L38.8882156,72.8944444 L20.5372175,91.2478956 L8.75210444,79.4627825 L27.1021044,61.1083333 Z M58.3333333,0 L58.3333333,29.8777778 L79.4627825,8.75210444 L91.2478956,20.5372175 L72.8993267,38.8861111 L27.1048822,38.8861111 L8.75210444,20.5372175 L20.5372175,8.75210444 L41.6666667,29.8777778 L41.6666667,0 L58.3333333,0 Z" id="Shape" fill="url(#radialGradient-2)" fill-rule="nonzero"></path>
                <polygon id="Path" fill="#88FFFF" points="100 41.6666667 100 58.3333333 58.3333333 58.3333333 58.3333333 100 41.6666667 100 41.6666667 58.3333333 0 58.3333333 0 41.6666667"></polygon>
            </g>
        </g>
    </g>
</svg>