<?xml version="1.0" encoding="UTF-8"?>
<svg width="1256px" height="620px" viewBox="0 0 1256 620" version="1.1" xmlns="http://www.w3.org/2000/svg" xmlns:xlink="http://www.w3.org/1999/xlink">
    <title>hotline-preview</title>
    <g id="hotline-preview" stroke="none" fill="none" fill-rule="evenodd" stroke-width="1">
        <g id="hotline-wordmark-black" transform="translate(474, 265)" fill="#202023">
            <g transform="translate(5.9426, 10.4464)" id="Shape">
                <path d="M152.437248,6.42902577 L150.630268,19.2857143 L163.473985,19.2861686 L162.118641,28.9290258 L149.275446,28.9285714 L145.726089,54.1961044 C145.479103,55.9540397 146.70397,57.5793493 148.461906,57.826335 C148.610065,57.8471511 148.759498,57.8575972 148.909112,57.8575972 L158.051938,57.8575972 L156.697083,67.5004543 L147.377788,67.5004543 C140.276984,67.5004543 134.520645,61.7441154 134.520645,54.6433115 C134.520645,54.0440381 134.562543,53.4454979 134.646033,52.8520689 L138.011785,28.9285714 L132.40688,28.9290258 L133.75125,19.2861686 L139.368214,19.2857143 L141.177335,6.42902577 L152.437248,6.42902577 Z M52.0924995,0 L48.0230357,28.9285714 L72.1165179,28.9285714 L76.1844926,0 L87.4514359,0 L77.9511637,67.5004543 L66.6935751,67.5004543 L70.7608929,38.5714286 L46.6674107,38.5714286 L42.5982307,67.5004543 L31.335235,67.5004543 L35.3989286,38.5714286 L0,38.5718829 L1.37656608,28.9290258 L36.75375,28.9285714 L40.8183912,0 L52.0924995,0 Z M185.48818,0 L176.00669,67.5004543 L164.740505,67.5004543 L174.216015,0 L185.48818,0 Z M202.054489,19.2857143 L195.282305,67.5004543 L184.006722,67.5004543 L190.804289,19.2857143 L202.054489,19.2857143 Z M221.343452,19.2857143 L220.659655,24.1461272 C223.339529,21.1462353 227.232586,19.2857143 231.51209,19.2857143 L231.929366,19.2920054 C232.485489,19.3075662 233.040414,19.354226 233.591539,19.4318022 C241.750458,20.58025 247.433568,28.1253615 246.285119,36.2842803 L241.891137,67.5004543 L230.625792,67.5004543 L235.263607,34.4198596 C235.2947,34.1980799 235.310303,33.9744031 235.310303,33.7504543 C235.310303,31.0876529 233.151676,28.9290258 230.488875,28.9290258 L224.172802,28.9290258 C221.84246,28.9290258 219.856562,30.5932477 219.433315,32.8650333 L214.561845,67.5004543 L203.298113,67.5004543 L210.084677,19.2857143 L221.343452,19.2857143 Z M204.774605,0.000454339286 L203.17933,11.2504543 L191.916835,11.2504543 L193.491303,0.000454339286 L204.774605,0.000454339286 Z M112.853001,19.2857143 C121.729005,19.2857143 128.924429,26.4811379 128.924429,35.3571429 C128.924429,36.1052933 128.872188,36.8525307 128.768086,37.5934032 L126.509794,53.6652861 C125.394966,61.5993328 118.606696,67.5004543 110.594709,67.5004543 L104.472744,67.5004543 C95.5967389,67.5004543 88.4013152,60.3050307 88.4013152,51.4290258 C88.4013152,50.680654 88.4535876,49.9331961 88.5577505,49.1921088 L90.8167184,33.1202259 C91.9318392,25.1864746 98.7199767,19.2857143 106.731712,19.2857143 L112.853001,19.2857143 Z M113.175773,28.9290258 L106.845173,28.9290258 C104.439782,28.9290258 102.402357,30.7019358 102.069992,33.0842537 L99.3793802,52.369968 C99.3485858,52.590699 99.3331323,52.8132998 99.3331323,53.0361686 C99.3331323,55.6989701 101.49176,57.8575972 104.154561,57.8575972 L110.460617,57.8575972 C112.863721,57.8575972 114.899943,56.0879659 115.234962,53.708329 L117.950118,34.4226147 C117.981469,34.1999334 117.997201,33.9753316 117.997201,33.7504543 C117.997201,31.0876529 115.838575,28.9290258 113.175773,28.9290258 Z M275.189117,19.2857143 C284.065122,19.2857143 291.260545,26.4811379 291.260545,35.3571429 C291.260545,36.106383 291.208152,36.8547061 291.103749,37.5966364 L290.679107,40.6108929 L289.648698,48.2147401 L262.275268,48.2142857 L261.689919,52.3620186 C261.658382,52.5853508 261.642555,52.8106207 261.642555,53.0361686 C261.642555,55.6989701 263.801182,57.8575972 266.463983,57.8575972 L272.79106,57.8575972 C275.19526,57.8575972 277.232058,56.0863959 277.565807,53.7054745 L277.659187,53.0353651 L288.930883,53.0353651 L288.842126,53.6685193 C287.725859,61.601111 280.938242,67.5004543 272.927495,67.5004543 L266.792176,67.5004543 C257.916171,67.5004543 250.720748,60.3050307 250.720748,51.4290258 C250.720748,50.6805942 250.773028,49.9330768 250.877208,49.1919314 L253.136359,33.1200485 C254.251559,25.1863771 261.03966,19.2857143 269.051327,19.2857143 L275.189117,19.2857143 Z M275.49446,28.9290258 L269.187337,28.9290258 C266.784996,28.9290258 264.749176,30.697563 264.413272,33.0763043 L263.636518,38.5714286 L279.687053,38.5714286 L280.269205,34.4197602 C280.300289,34.1980129 280.315888,33.9743697 280.315888,33.7504543 C280.315888,31.0876529 278.157261,28.9290258 275.49446,28.9290258 Z" fill-rule="nonzero"></path>
            </g>
        </g>
    </g>
</svg>