<?xml version="1.0" encoding="UTF-8"?>
<svg width="256px" height="256px" viewBox="0 0 256 256" version="1.1" xmlns="http://www.w3.org/2000/svg" xmlns:xlink="http://www.w3.org/1999/xlink">
    <title>kela-2</title>
    <g id="2" stroke="none" stroke-width="1" fill="none" fill-rule="evenodd">
        <g id="kela-symbol-black" transform="translate(71, 71)" fill="#F1F0EE" fill-rule="nonzero">
            <path d="M16.6949135,70.4350288 L56.9528581,70.4349478 L57.3760529,70.4298674 C64.6221341,70.2307246 70.4350288,64.2941995 70.4350288,57 L70.4336853,56.9059548 L70.4350288,16.6949135 L97.3050865,16.6949135 L97.3050865,97.3050865 L16.6949135,97.3050865 L16.6949135,70.4350288 Z M65.0610173,46.2507508 C62.8153255,44.5642933 60.0243649,43.5649712 57,43.5649712 C49.5800385,43.5649712 43.5649712,49.5800385 43.5649712,57 C43.5649712,60.0243649 44.5642933,62.8153255 46.2507508,65.0610173 L16.6949135,65.0610173 L16.6949135,16.6949135 L65.0610173,16.6949135 L65.0610173,46.2507508 Z" id="Shape" transform="translate(57, 57) rotate(45) translate(-57, -57)"></path>
        </g>
    </g>
</svg>