<?xml version="1.0" encoding="UTF-8"?>
<svg width="256px" height="256px" viewBox="0 0 256 256" version="1.1" xmlns="http://www.w3.org/2000/svg" xmlns:xlink="http://www.w3.org/1999/xlink">
    <title>kestrel-2</title>
    <g id="2" stroke="none" stroke-width="1" fill="none" fill-rule="evenodd">
        <g id="kestrel-symbol-orange-gradient" transform="translate(78, 84)" fill="#FFFFFF" fill-rule="nonzero">
            <path d="M39.9327864,0 L39.9327864,29.3322006 L5.67450826,70.2312839 C2.20411969,67.2962818 0,62.9061741 0,58.0003966 C0,49.1637802 7.15140698,42.0002872 15.9731146,42.0002872 L15.9731146,16.0001094 C15.9731146,7.16349299 23.1245215,0 31.9462291,0 L39.9327864,0 Z M101,5.68434189e-14 L50.5092958,60.2747972 C47.4692667,63.9039235 42.9781531,66.0004513 38.2439863,66.0004513 L14.4337056,66.0004513 L64.9264159,5.72543609 C67.9664457,2.09644012 72.4574755,5.68434189e-14 77.1915427,5.68434189e-14 L101,5.68434189e-14 Z" id="Shape"></path>
            <path d="M66.7521321,47.1557207 L100.96854,88 L77.1626028,88 C72.428235,88 67.936952,85.9032948 64.8969241,82.2739052 L51.1164496,65.8218483 L66.7521321,47.1557207 Z" id="Path"></path>
        </g>
    </g>
</svg>