<?xml version="1.0" encoding="UTF-8"?>
<svg width="1256px" height="620px" viewBox="0 0 1256 620" version="1.1" xmlns="http://www.w3.org/2000/svg" xmlns:xlink="http://www.w3.org/1999/xlink">
    <title>kestrel-preview</title>
    <defs>
        <linearGradient x1="50%" y1="70.1004155%" x2="50%" y2="90.9972963%" id="linearGradient-1">
            <stop stop-color="#FF711F" offset="0%"></stop>
            <stop stop-color="#F55200" offset="100%"></stop>
        </linearGradient>
        <linearGradient x1="50%" y1="37.4150042%" x2="50%" y2="90.9972963%" id="linearGradient-2">
            <stop stop-color="#F55200" offset="0%"></stop>
            <stop stop-color="#FF711F" offset="100%"></stop>
        </linearGradient>
    </defs>
    <g id="kestrel-preview" stroke="none" fill="none" fill-rule="evenodd" stroke-width="1">
        <g id="kestrel-full-logo-orange-gradient" transform="translate(441, 262)">
            <g transform="translate(13.1223, 16.5755)">
                <path d="M154.705036,13.1223022 C168.055228,13.1223022 178.877698,23.9447715 178.877698,37.294964 C178.877698,38.2292408 178.824695,39.151138 178.721531,40.0578127 L138.954082,40.0578292 C139.96947,47.8516974 146.634369,53.8705036 154.705036,53.8705036 C160.725777,53.8705036 165.96418,50.5209152 168.658387,45.5835962 L177.419345,45.5832555 C174.036682,54.8511319 165.143541,61.4676259 154.705036,61.4676259 C141.354844,61.4676259 130.532374,50.6451565 130.532374,37.294964 C130.532374,23.9447715 141.354844,13.1223022 154.705036,13.1223022 Z M93.2374101,0 L93.2374101,35.6222158 L123.128106,0 L133.045804,0 L107.490993,30.4541007 L132.934854,60.7769784 L123.017156,60.7769784 L102.532144,36.3639712 L93.2374101,47.4412662 L93.2374101,60.7769784 L84.9496403,60.7769784 L84.9496403,0 L93.2374101,0 Z M154.705036,20.7194245 C147.365473,20.7194245 141.188523,25.6971613 139.365955,32.4608652 L170.044117,32.4608652 C168.221549,25.6971613 162.044599,20.7194245 154.705036,20.7194245 Z M306.647482,53.8705036 C312.668224,53.8705036 317.906626,50.5209152 320.600833,45.5835962 L329.361791,45.5832555 C325.979128,54.8511319 317.085987,61.4676259 306.647482,61.4676259 C293.29729,61.4676259 282.47482,50.6451565 282.47482,37.294964 C282.47482,23.9447715 293.29729,13.1223022 306.647482,13.1223022 C319.997674,13.1223022 330.820144,23.9447715 330.820144,37.294964 C330.820144,38.2292408 330.767141,39.151138 330.663977,40.0578127 L290.896528,40.0578292 C291.911916,47.8516974 298.576815,53.8705036 306.647482,53.8705036 Z M282.47482,13.8129496 L282.47482,21.4100719 L271.42446,21.4100719 C269.898724,21.4100719 268.661871,22.6469256 268.661871,24.1726619 L268.661871,60.7769784 L260.374101,60.7769784 L260.374101,24.8633094 C260.374101,18.7603642 265.321515,13.8129496 271.42446,13.8129496 L282.47482,13.8129496 Z M306.647482,20.7194245 C299.307919,20.7194245 293.130969,25.6971613 291.308401,32.4608652 L321.986563,32.4608652 C320.163995,25.6971613 313.987045,20.7194245 306.647482,20.7194245 Z M241.035971,2.76258993 L241.035971,13.8129496 L253.467626,13.8129496 L253.467626,21.4100719 L241.035971,21.4100719 L241.035971,50.4172662 C241.035971,51.9430025 242.272825,53.1798561 243.798561,53.1798561 L253.467626,53.1798561 L253.467626,60.7769784 L243.798561,60.7769784 C237.695616,60.7769784 232.748201,55.8295639 232.748201,49.7266187 L232.748201,21.4100719 L227.223022,21.4100719 L227.223022,13.8129496 L232.748201,13.8129496 L232.748201,2.76258993 L241.035971,2.76258993 Z M203.05036,13.1223022 C211.050219,13.1223022 217.968862,16.6429898 222.1912,20.7882918 L217.358638,26.54753 C215.05211,23.5924368 208.865301,20.7194245 203.05036,20.7194245 C196.143885,20.7194245 192,23.4820144 192,26.9352518 C192,30.1582734 195.683453,32.2302159 203.05036,33.1510791 L203.049669,33.1793957 L203.2379,33.2072288 C215.873433,35.0897957 222.1912,39.9056115 222.1912,47.6546763 C222.1912,56.6330935 213.90343,61.4676259 202.853071,61.4676259 C194.853212,61.4676259 187.934569,57.9469385 183.71223,53.8016364 L188.544792,48.042398 C190.85132,50.9974912 197.038129,53.8705036 202.853071,53.8705036 C209.759546,53.8705036 213.90343,51.1079137 213.90343,47.6546763 C213.90343,44.4316547 210.219977,42.3597122 202.853071,41.4388489 L202.852835,41.4098417 L202.665531,41.3826993 C190.029997,39.5001324 183.71223,34.6843165 183.71223,26.9352518 C183.71223,17.9568345 192,13.1223022 203.05036,13.1223022 Z M336.345324,0 L344.633094,0 L344.633094,60.7769784 L336.345324,60.7769784 L336.345324,0 Z" id="Shape" fill="#1E1611" fill-rule="nonzero"></path>
                <g id="kestrel-symbol">
                    <path d="M27.5794784,0 L27.5794784,20.2582105 L3.91908484,48.5050594 C1.52226971,46.4780076 0,43.4459907 0,40.0578279 C0,33.954841 4.93910122,29.0073926 11.0317914,29.0073926 L11.0317914,11.0504353 C11.0317914,4.9474484 15.9708925,0 22.0635827,0 L27.5794784,0 Z M69.7553957,3.90798505e-14 L34.884118,41.6286369 C32.7845295,44.1350839 29.6827532,45.5830455 26.4131128,45.5830455 L9.96860243,45.5830455 L44.8412657,3.95425802 C46.9408546,1.44790109 50.042573,3.90798505e-14 53.3121446,3.90798505e-14 L69.7553957,3.90798505e-14 Z" id="Shape" fill="url(#linearGradient-1)" fill-rule="nonzero"></path>
                    <path d="M46.102192,32.5679798 L69.7336679,60.7769784 L53.2921573,60.7769784 C50.0223781,60.7769784 46.9204848,59.3288943 44.8208972,56.8222655 L35.3034472,45.4596938 L46.102192,32.5679798 Z" id="Path" fill="url(#linearGradient-2)"></path>
                </g>
            </g>
        </g>
    </g>
</svg>