<?xml version="1.0" encoding="UTF-8"?>
<svg width="100px" height="100px" viewBox="0 0 100 100" version="1.1" xmlns="http://www.w3.org/2000/svg" xmlns:xlink="http://www.w3.org/1999/xlink">
    <title>kestrel-avatar-4</title>
    <defs>
        <linearGradient x1="50%" y1="70.1004155%" x2="50%" y2="90.9972963%" id="linearGradient-1">
            <stop stop-color="#FF711F" offset="0%"></stop>
            <stop stop-color="#F55200" offset="100%"></stop>
        </linearGradient>
        <linearGradient x1="50%" y1="37.4150042%" x2="50%" y2="90.9972963%" id="linearGradient-2">
            <stop stop-color="#F55200" offset="0%"></stop>
            <stop stop-color="#FF711F" offset="100%"></stop>
        </linearGradient>
    </defs>
    <g id="avatar-4" stroke="none" stroke-width="1" fill="none" fill-rule="evenodd">
        <rect id="Rectangle" fill="#1E1611" fill-rule="nonzero" x="0" y="0" width="100" height="100" rx="50"></rect>
        <g id="kestrel-symbol-orange-gradient" transform="translate(22, 25)" fill-rule="nonzero">
            <path d="M22.536325,0 L22.536325,16.6642946 L3.20244526,39.9 C1.24390913,38.2325581 0,35.7384374 0,32.951353 C0,27.9310689 4.03594255,23.8613246 9.01453002,23.8613246 L9.01453002,9.0900284 C9.01453002,4.06974434 13.0504725,0 18.02906,0 L22.536325,0 Z M57,3.19744231e-14 L28.5052461,34.243492 C26.7895862,36.3052817 24.2549973,37.4963672 21.5832398,37.4963672 L8.14575465,37.4963672 L36.6416407,3.2527513 C38.357301,1.19103562 40.8918426,3.19744231e-14 43.5635439,3.19744231e-14 L57,3.19744231e-14 Z" id="Shape" fill="url(#linearGradient-1)"></path>
            <path d="M37.1408223,26.6 L56.05,49.4 L42.8940107,49.4 C40.2776343,49.4 37.795595,48.229582 36.1155698,46.2035925 L28.5,37.019763 L37.1408223,26.6 Z" id="Path" fill="url(#linearGradient-2)"></path>
        </g>
    </g>
</svg>