<?xml version="1.0" encoding="UTF-8"?>
<svg width="256px" height="256px" viewBox="0 0 256 256" version="1.1" xmlns="http://www.w3.org/2000/svg" xmlns:xlink="http://www.w3.org/1999/xlink">
    <title>kooply-1</title>
    <defs>
        <path d="M16.3006609,0.00516832186 L29.7853422,0 C35.7712538,0 37.9418901,0.623257674 40.1302497,1.7936053 C42.3186096,2.96395292 44.0360471,4.68139048 45.2063947,6.86975027 C46.3767424,9.05811005 47,11.2287462 47,17.2146578 L47,29.7853422 C47,35.7712538 46.3767424,37.9418901 45.2063947,40.1302497 C44.0360471,42.3186096 42.3186096,44.0360471 40.1302497,45.2063947 C37.9418901,46.3767424 35.7712538,47 29.7853422,47 L17.2146578,47 C11.2287462,47 9.05811005,46.3767424 6.86975027,45.2063947 C4.68139048,44.0360471 2.96395292,42.3186096 1.7936053,40.1302497 C0.684854917,38.0570666 0.0671215557,35.999791 0.00516832186,30.6993391 L0,17.2146578 C0,11.2287462 0.623257674,9.05811005 1.7936053,6.86975027 C2.96395292,4.68139048 4.68139048,2.96395292 6.86975027,1.7936053 C8.94293322,0.684854917 11.0002091,0.0671215557 16.3006609,0.00516832186 L16.3006609,0.00516832186 Z" id="path-1"></path>
        <linearGradient x1="50%" y1="0%" x2="50%" y2="100%" id="linearGradient-3">
            <stop stop-color="#FFFFFF" offset="0%"></stop>
            <stop stop-color="#FFFFFF" stop-opacity="0.2" offset="49.9380578%"></stop>
            <stop stop-color="#FFFFFF" offset="100%"></stop>
        </linearGradient>
        <path d="M16.3006609,0.00516832186 L29.7853422,0 C35.7712538,0 37.9418901,0.623257674 40.1302497,1.7936053 C42.3186096,2.96395292 44.0360471,4.68139048 45.2063947,6.86975027 C46.3767424,9.05811005 47,11.2287462 47,17.2146578 L47,29.7853422 C47,35.7712538 46.3767424,37.9418901 45.2063947,40.1302497 C44.0360471,42.3186096 42.3186096,44.0360471 40.1302497,45.2063947 C37.9418901,46.3767424 35.7712538,47 29.7853422,47 L17.2146578,47 C11.2287462,47 9.05811005,46.3767424 6.86975027,45.2063947 C4.68139048,44.0360471 2.96395292,42.3186096 1.7936053,40.1302497 C0.684854917,38.0570666 0.0671215557,35.999791 0.00516832186,30.6993391 L0,17.2146578 C0,11.2287462 0.623257674,9.05811005 1.7936053,6.86975027 C2.96395292,4.68139048 4.68139048,2.96395292 6.86975027,1.7936053 C8.94293322,0.684854917 11.0002091,0.0671215557 16.3006609,0.00516832186 L16.3006609,0.00516832186 Z" id="path-4"></path>
        <path d="M16.3006609,0.00516832186 L29.7853422,0 C35.7712538,0 37.9418901,0.623257674 40.1302497,1.7936053 C42.3186096,2.96395292 44.0360471,4.68139048 45.2063947,6.86975027 C46.3767424,9.05811005 47,11.2287462 47,17.2146578 L47,29.7853422 C47,35.7712538 46.3767424,37.9418901 45.2063947,40.1302497 C44.0360471,42.3186096 42.3186096,44.0360471 40.1302497,45.2063947 C37.9418901,46.3767424 35.7712538,47 29.7853422,47 L17.2146578,47 C11.2287462,47 9.05811005,46.3767424 6.86975027,45.2063947 C4.68139048,44.0360471 2.96395292,42.3186096 1.7936053,40.1302497 C0.684854917,38.0570666 0.0671215557,35.999791 0.00516832186,30.6993391 L0,17.2146578 C0,11.2287462 0.623257674,9.05811005 1.7936053,6.86975027 C2.96395292,4.68139048 4.68139048,2.96395292 6.86975027,1.7936053 C8.94293322,0.684854917 11.0002091,0.0671215557 16.3006609,0.00516832186 L16.3006609,0.00516832186 Z" id="path-6"></path>
        <path d="M16.3006609,0.00516832186 L29.7853422,0 C35.7712538,0 37.9418901,0.623257674 40.1302497,1.7936053 C42.3186096,2.96395292 44.0360471,4.68139048 45.2063947,6.86975027 C46.3767424,9.05811005 47,11.2287462 47,17.2146578 L47,29.7853422 C47,35.7712538 46.3767424,37.9418901 45.2063947,40.1302497 C44.0360471,42.3186096 42.3186096,44.0360471 40.1302497,45.2063947 C37.9418901,46.3767424 35.7712538,47 29.7853422,47 L17.2146578,47 C11.2287462,47 9.05811005,46.3767424 6.86975027,45.2063947 C4.68139048,44.0360471 2.96395292,42.3186096 1.7936053,40.1302497 C0.684854917,38.0570666 0.0671215557,35.999791 0.00516832186,30.6993391 L0,17.2146578 C0,11.2287462 0.623257674,9.05811005 1.7936053,6.86975027 C2.96395292,4.68139048 4.68139048,2.96395292 6.86975027,1.7936053 C8.94293322,0.684854917 11.0002091,0.0671215557 16.3006609,0.00516832186 L16.3006609,0.00516832186 Z" id="path-8"></path>
        <path d="M16.3006609,0.00516832186 L29.7853422,0 C35.7712538,0 37.9418901,0.623257674 40.1302497,1.7936053 C42.3186096,2.96395292 44.0360471,4.68139048 45.2063947,6.86975027 L45.5577036,7.56469274 C46.5010487,9.55736063 47,11.8588422 47,17.2146578 L47,29.7853422 L46.979371,31.5532771 C46.8627258,36.2284262 46.2535477,38.1722435 45.2063947,40.1302497 C44.0360471,42.3186096 42.3186096,44.0360471 40.1302497,45.2063947 L39.4353074,45.5577036 C37.4426393,46.5010487 35.1411577,47 29.7853422,47 L17.2146578,47 C11.2287462,47 9.05811005,46.3767424 6.86975027,45.2063947 C4.68139048,44.0360471 2.96395292,42.3186096 1.7936053,40.1302497 C0.684854917,38.0570666 0.0671215557,35.999791 0.00516832186,30.6993391 L0,17.2146578 C0,11.2287462 0.623257674,9.05811005 1.7936053,6.86975027 C2.96395292,4.68139048 4.68139048,2.96395292 6.86975027,1.7936053 C8.94293322,0.684854917 11.0002091,0.0671215557 16.3006609,0.00516832186 L16.3006609,0.00516832186 Z" id="path-10"></path>
        <linearGradient x1="93.1145936%" y1="7.79603635%" x2="10.0952486%" y2="88.7053703%" id="linearGradient-12">
            <stop stop-color="#FFFFFF" offset="0%"></stop>
            <stop stop-color="#FFFFFF" stop-opacity="0.2" offset="100%"></stop>
        </linearGradient>
        <path d="M16.3006609,0.00516832186 L29.7853422,0 C35.7712538,0 37.9418901,0.623257674 40.1302497,1.7936053 C42.3186096,2.96395292 44.0360471,4.68139048 45.2063947,6.86975027 L45.5577036,7.56469274 C46.5010487,9.55736063 47,11.8588422 47,17.2146578 L47,29.7853422 L46.979371,31.5532771 C46.8627258,36.2284262 46.2535477,38.1722435 45.2063947,40.1302497 C44.0360471,42.3186096 42.3186096,44.0360471 40.1302497,45.2063947 L39.4353074,45.5577036 C37.4426393,46.5010487 35.1411577,47 29.7853422,47 L17.2146578,47 C11.2287462,47 9.05811005,46.3767424 6.86975027,45.2063947 C4.68139048,44.0360471 2.96395292,42.3186096 1.7936053,40.1302497 C0.684854917,38.0570666 0.0671215557,35.999791 0.00516832186,30.6993391 L0,17.2146578 C0,11.2287462 0.623257674,9.05811005 1.7936053,6.86975027 C2.96395292,4.68139048 4.68139048,2.96395292 6.86975027,1.7936053 C8.94293322,0.684854917 11.0002091,0.0671215557 16.3006609,0.00516832186 L16.3006609,0.00516832186 Z" id="path-13"></path>
        <path d="M16.3006609,0.00516832187 L29.7853422,6.9549278e-16 C35.7712538,6.9549278e-16 37.9418901,0.623257674 40.1302497,1.7936053 C42.3186096,2.96395292 44.0360471,4.68139048 45.2063947,6.86975027 C46.3767424,9.05811005 47,11.2287462 47,17.2146578 L47,29.7853422 C47,35.7712538 46.3767424,37.9418901 45.2063947,40.1302497 C44.0360471,42.3186096 42.3186096,44.0360471 40.1302497,45.2063947 C37.9418901,46.3767424 35.7712538,47 29.7853422,47 L17.2146578,47 C11.2287462,47 9.05811005,46.3767424 6.86975027,45.2063947 C4.68139048,44.0360471 2.96395292,42.3186096 1.7936053,40.1302497 C0.684854917,38.0570666 0.0671215557,35.999791 0.00516832186,30.6993391 L4.63661852e-16,17.2146578 C4.63661852e-16,11.2287462 0.623257674,9.05811005 1.7936053,6.86975027 C2.96395292,4.68139048 4.68139048,2.96395292 6.86975027,1.7936053 C8.94293322,0.684854917 11.0002091,0.0671215557 16.3006609,0.00516832187 L16.3006609,0.00516832187 Z" id="path-15"></path>
        <linearGradient x1="95.7887787%" y1="94.4514597%" x2="12.5324806%" y2="10.1051772%" id="linearGradient-17">
            <stop stop-color="#FFFFFF" offset="0%"></stop>
            <stop stop-color="#FFFFFF" stop-opacity="0.2" offset="100%"></stop>
        </linearGradient>
        <path d="M16.3006609,0.00516832187 L29.7853422,6.9549278e-16 C35.7712538,6.9549278e-16 37.9418901,0.623257674 40.1302497,1.7936053 C42.3186096,2.96395292 44.0360471,4.68139048 45.2063947,6.86975027 C46.3767424,9.05811005 47,11.2287462 47,17.2146578 L47,29.7853422 C47,35.7712538 46.3767424,37.9418901 45.2063947,40.1302497 C44.0360471,42.3186096 42.3186096,44.0360471 40.1302497,45.2063947 C37.9418901,46.3767424 35.7712538,47 29.7853422,47 L17.2146578,47 C11.2287462,47 9.05811005,46.3767424 6.86975027,45.2063947 C4.68139048,44.0360471 2.96395292,42.3186096 1.7936053,40.1302497 C0.684854917,38.0570666 0.0671215557,35.999791 0.00516832186,30.6993391 L4.63661852e-16,17.2146578 C4.63661852e-16,11.2287462 0.623257674,9.05811005 1.7936053,6.86975027 C2.96395292,4.68139048 4.68139048,2.96395292 6.86975027,1.7936053 C8.94293322,0.684854917 11.0002091,0.0671215557 16.3006609,0.00516832187 L16.3006609,0.00516832187 Z" id="path-18"></path>
    </defs>
    <g id="1" stroke="none" stroke-width="1" fill="none" fill-rule="evenodd">
        <g id="1-kooply-logomark" transform="translate(87, 78)">
            <g id="Rectangle">
                <g id="Mask" fill="#F59300" fill-rule="nonzero">
                    <path d="M16.3006609,0.00516832186 L29.7853422,0 C35.7712538,0 37.9418901,0.623257674 40.1302497,1.7936053 C42.3186096,2.96395292 44.0360471,4.68139048 45.2063947,6.86975027 C46.3767424,9.05811005 47,11.2287462 47,17.2146578 L47,29.7853422 C47,35.7712538 46.3767424,37.9418901 45.2063947,40.1302497 C44.0360471,42.3186096 42.3186096,44.0360471 40.1302497,45.2063947 C37.9418901,46.3767424 35.7712538,47 29.7853422,47 L17.2146578,47 C11.2287462,47 9.05811005,46.3767424 6.86975027,45.2063947 C4.68139048,44.0360471 2.96395292,42.3186096 1.7936053,40.1302497 C0.684854917,38.0570666 0.0671215557,35.999791 0.00516832186,30.6993391 L0,17.2146578 C0,11.2287462 0.623257674,9.05811005 1.7936053,6.86975027 C2.96395292,4.68139048 4.68139048,2.96395292 6.86975027,1.7936053 C8.94293322,0.684854917 11.0002091,0.0671215557 16.3006609,0.00516832186 L16.3006609,0.00516832186 Z" id="path-1"></path>
                </g>
                <g id="Mask-Clipped">
                    <mask id="mask-2" fill="white">
                        <use xlink:href="#path-1"></use>
                    </mask>
                    <g id="path-1"></g>
                    <path d="M23.5,16.7857143 C27.2081976,16.7857143 30.2142857,19.7918024 30.2142857,23.5 L30.2142857,77.2142857 C30.2142857,80.9224833 27.2081976,83.9285714 23.5,83.9285714 C19.7918024,83.9285714 16.7857143,80.9224833 16.7857143,77.2142857 L16.7857143,23.5 C16.7857143,19.7918024 19.7918024,16.7857143 23.5,16.7857143 Z" id="Mask" fill="url(#linearGradient-3)" fill-rule="nonzero" mask="url(#mask-2)"></path>
                </g>
                <g id="Oval-Clipped">
                    <mask id="mask-5" fill="white">
                        <use xlink:href="#path-4"></use>
                    </mask>
                    <g id="path-1"></g>
                    <circle id="Oval" fill="#FFFFFF" fill-rule="nonzero" mask="url(#mask-5)" cx="23.5" cy="23.5" r="6.71428571"></circle>
                </g>
            </g>
            <g id="Rectangle" transform="translate(0, 53)">
                <g id="path-4-link" fill="#0080FF" fill-rule="nonzero">
                    <path d="M16.3006609,0.00516832186 L29.7853422,0 C35.7712538,0 37.9418901,0.623257674 40.1302497,1.7936053 C42.3186096,2.96395292 44.0360471,4.68139048 45.2063947,6.86975027 C46.3767424,9.05811005 47,11.2287462 47,17.2146578 L47,29.7853422 C47,35.7712538 46.3767424,37.9418901 45.2063947,40.1302497 C44.0360471,42.3186096 42.3186096,44.0360471 40.1302497,45.2063947 C37.9418901,46.3767424 35.7712538,47 29.7853422,47 L17.2146578,47 C11.2287462,47 9.05811005,46.3767424 6.86975027,45.2063947 C4.68139048,44.0360471 2.96395292,42.3186096 1.7936053,40.1302497 C0.684854917,38.0570666 0.0671215557,35.999791 0.00516832186,30.6993391 L0,17.2146578 C0,11.2287462 0.623257674,9.05811005 1.7936053,6.86975027 C2.96395292,4.68139048 4.68139048,2.96395292 6.86975027,1.7936053 C8.94293322,0.684854917 11.0002091,0.0671215557 16.3006609,0.00516832186 L16.3006609,0.00516832186 Z" id="path-4"></path>
                </g>
                <g id="Mask-Clipped">
                    <mask id="mask-7" fill="white">
                        <use xlink:href="#path-6"></use>
                    </mask>
                    <g id="path-4"></g>
                    <path d="M23.5,-36.9285714 C27.2081976,-36.9285714 30.2142857,-33.9224833 30.2142857,-30.2142857 L30.2142857,23.5 C30.2142857,27.2081976 27.2081976,30.2142857 23.5,30.2142857 C19.7918024,30.2142857 16.7857143,27.2081976 16.7857143,23.5 L16.7857143,-30.2142857 C16.7857143,-33.9224833 19.7918024,-36.9285714 23.5,-36.9285714 Z" id="Mask" fill="url(#linearGradient-3)" fill-rule="nonzero" mask="url(#mask-7)"></path>
                </g>
                <g id="Oval-Clipped">
                    <mask id="mask-9" fill="white">
                        <use xlink:href="#path-8"></use>
                    </mask>
                    <g id="path-4"></g>
                    <circle id="Oval" fill="#FFFFFF" fill-rule="nonzero" mask="url(#mask-9)" cx="23.5" cy="23.5" r="6.71428571"></circle>
                </g>
            </g>
            <g id="Rectangle" transform="translate(53, 0)">
                <g id="path-6-link" fill="#FF374C" fill-rule="nonzero">
                    <path d="M16.3006609,0.00516832186 L29.7853422,0 C35.7712538,0 37.9418901,0.623257674 40.1302497,1.7936053 C42.3186096,2.96395292 44.0360471,4.68139048 45.2063947,6.86975027 L45.5577036,7.56469274 C46.5010487,9.55736063 47,11.8588422 47,17.2146578 L47,29.7853422 L46.979371,31.5532771 C46.8627258,36.2284262 46.2535477,38.1722435 45.2063947,40.1302497 C44.0360471,42.3186096 42.3186096,44.0360471 40.1302497,45.2063947 L39.4353074,45.5577036 C37.4426393,46.5010487 35.1411577,47 29.7853422,47 L17.2146578,47 C11.2287462,47 9.05811005,46.3767424 6.86975027,45.2063947 C4.68139048,44.0360471 2.96395292,42.3186096 1.7936053,40.1302497 C0.684854917,38.0570666 0.0671215557,35.999791 0.00516832186,30.6993391 L0,17.2146578 C0,11.2287462 0.623257674,9.05811005 1.7936053,6.86975027 C2.96395292,4.68139048 4.68139048,2.96395292 6.86975027,1.7936053 C8.94293322,0.684854917 11.0002091,0.0671215557 16.3006609,0.00516832186 L16.3006609,0.00516832186 Z" id="path-6"></path>
                </g>
                <g id="Clipped">
                    <mask id="mask-11" fill="white">
                        <use xlink:href="#path-10"></use>
                    </mask>
                    <g id="path-6"></g>
                    <path d="M28.2173301,18.752283 C30.8394217,21.3743747 30.8394217,25.6256253 28.2173301,28.247717 L9.22646224,47.2385848 C6.60437057,49.8606765 2.35312,49.8606765 -0.268971677,47.2385848 C-2.89106335,44.616493 -2.89106335,40.3652426 -0.268971677,37.7431509 L18.7218962,18.752283 C21.205983,16.2681962 25.1522513,16.1374548 27.7902519,18.3600588 L28.2173301,18.752283 Z" id="Path" fill="url(#linearGradient-12)" fill-rule="nonzero" mask="url(#mask-11)"></path>
                </g>
                <g id="Oval-Clipped">
                    <mask id="mask-14" fill="white">
                        <use xlink:href="#path-13"></use>
                    </mask>
                    <g id="path-6"></g>
                    <circle id="Oval" fill="#FFFFFF" fill-rule="nonzero" mask="url(#mask-14)" cx="23.5" cy="23.5" r="6.71428571"></circle>
                </g>
            </g>
            <g id="Rectangle" transform="translate(53, 53)">
                <g id="path-9-link" fill="#D23EEA" fill-rule="nonzero">
                    <path d="M16.3006609,0.00516832187 L29.7853422,6.9549278e-16 C35.7712538,6.9549278e-16 37.9418901,0.623257674 40.1302497,1.7936053 C42.3186096,2.96395292 44.0360471,4.68139048 45.2063947,6.86975027 C46.3767424,9.05811005 47,11.2287462 47,17.2146578 L47,29.7853422 C47,35.7712538 46.3767424,37.9418901 45.2063947,40.1302497 C44.0360471,42.3186096 42.3186096,44.0360471 40.1302497,45.2063947 C37.9418901,46.3767424 35.7712538,47 29.7853422,47 L17.2146578,47 C11.2287462,47 9.05811005,46.3767424 6.86975027,45.2063947 C4.68139048,44.0360471 2.96395292,42.3186096 1.7936053,40.1302497 C0.684854917,38.0570666 0.0671215557,35.999791 0.00516832186,30.6993391 L4.63661852e-16,17.2146578 C4.63661852e-16,11.2287462 0.623257674,9.05811005 1.7936053,6.86975027 C2.96395292,4.68139048 4.68139048,2.96395292 6.86975027,1.7936053 C8.94293322,0.684854917 11.0002091,0.0671215557 16.3006609,0.00516832187 L16.3006609,0.00516832187 Z" id="path-9"></path>
                </g>
                <g id="Clipped">
                    <mask id="mask-16" fill="white">
                        <use xlink:href="#path-15"></use>
                    </mask>
                    <g id="path-9"></g>
                    <path d="M28.2173301,28.247717 C25.5952384,30.8698086 21.3439878,30.8698086 18.7218962,28.247717 L-0.268971677,9.25684911 C-2.89106335,6.63475745 -2.89106335,2.38350688 -0.268971677,-0.238584797 C2.35312,-2.86067647 6.60437057,-2.86067647 9.22646224,-0.238584797 L28.2173301,18.752283 C30.7014169,21.2363699 30.8321584,25.1826381 28.6095543,27.8206388 L28.2173301,28.247717 Z" id="Path" fill="url(#linearGradient-17)" fill-rule="nonzero" mask="url(#mask-16)"></path>
                </g>
                <g id="Oval-Clipped">
                    <mask id="mask-19" fill="white">
                        <use xlink:href="#path-18"></use>
                    </mask>
                    <g id="path-9"></g>
                    <circle id="Oval" fill="#FFFFFF" fill-rule="nonzero" mask="url(#mask-19)" cx="23.5" cy="23.5" r="6.71428571"></circle>
                </g>
            </g>
        </g>
    </g>
</svg>