<?xml version="1.0" encoding="UTF-8"?>
<svg width="100px" height="100px" viewBox="0 0 100 100" version="1.1" xmlns="http://www.w3.org/2000/svg" xmlns:xlink="http://www.w3.org/1999/xlink">
    <title>kooply-avatar-3</title>
    <defs>
        <circle id="path-1" cx="50" cy="50" r="50"></circle>
        <rect id="path-3" x="0" y="0" width="100" height="100"></rect>
        <path d="M46.8673044,0 C51.8201863,0 53.616221,0.51569784 55.4269206,1.48407058 C57.2376202,2.45244331 58.6586678,3.87349095 59.6270405,5.68419054 C60.5954133,7.49489012 61.1111111,9.29092478 61.1111111,14.2438067 L61.1111111,46.8673044 C61.1111111,51.8201863 60.5954133,53.616221 59.6270405,55.4269206 C58.6586678,57.2376202 57.2376202,58.6586678 55.4269206,59.6270405 C53.616221,60.5954133 51.8201863,61.1111111 46.8673044,61.1111111 L14.2438067,61.1111111 C9.29092478,61.1111111 7.49489012,60.5954133 5.68419054,59.6270405 C3.87349095,58.6586678 2.45244331,57.2376202 1.48407058,55.4269206 C0.566664826,53.711521 0.0555379302,52.0092832 0.00427638926,47.6235666 L0,14.2438067 C0,9.29092478 0.51569784,7.49489012 1.48407058,5.68419054 C2.45244331,3.87349095 3.87349095,2.45244331 5.68419054,1.48407058 C7.39959015,0.566664826 9.10182788,0.0555379302 13.4875445,0.00427638926 L46.8673044,0 Z" id="path-5"></path>
        <linearGradient x1="50%" y1="0%" x2="50%" y2="50%" id="linearGradient-7">
            <stop stop-color="#FFFFFF" offset="0%"></stop>
            <stop stop-color="#FFFFFF" stop-opacity="0.2" offset="100%"></stop>
        </linearGradient>
        <path d="M46.8673044,0 C51.8201863,0 53.616221,0.51569784 55.4269206,1.48407058 C57.2376202,2.45244331 58.6586678,3.87349095 59.6270405,5.68419054 L59.9177216,6.25920202 C60.6982671,7.9079816 61.1111111,9.81228077 61.1111111,14.2438067 L61.1111111,46.8673044 L61.0940423,48.3301348 C60.9975274,52.1984614 60.4934793,53.8068209 59.6270405,55.4269206 C58.6586678,57.2376202 57.2376202,58.6586678 55.4269206,59.6270405 L54.8519091,59.9177216 C53.2031295,60.6982671 51.2988303,61.1111111 46.8673044,61.1111111 L14.2438067,61.1111111 C9.29092478,61.1111111 7.49489012,60.5954133 5.68419054,59.6270405 C3.87349095,58.6586678 2.45244331,57.2376202 1.48407058,55.4269206 C0.566664826,53.711521 0.0555379302,52.0092832 0.00427638926,47.6235666 L0,14.2438067 C0,9.29092478 0.51569784,7.49489012 1.48407058,5.68419054 C2.45244331,3.87349095 3.87349095,2.45244331 5.68419054,1.48407058 C7.39959015,0.566664826 9.10182788,0.0555379302 13.4875445,0.00427638926 L46.8673044,0 Z" id="path-8"></path>
        <linearGradient x1="94.6326408%" y1="5.89785915%" x2="-1.07474158e-13%" y2="100%" id="linearGradient-10">
            <stop stop-color="#FFFFFF" offset="0%"></stop>
            <stop stop-color="#FFFFFF" stop-opacity="0.2" offset="100%"></stop>
        </linearGradient>
        <path d="M46.8673044,0 C51.8201863,0 53.616221,0.51569784 55.4269206,1.48407058 C57.2376202,2.45244331 58.6586678,3.87349095 59.6270405,5.68419054 C60.5954133,7.49489012 61.1111111,9.29092478 61.1111111,14.2438067 L61.1111111,46.8673044 C61.1111111,51.8201863 60.5954133,53.616221 59.6270405,55.4269206 C58.6586678,57.2376202 57.2376202,58.6586678 55.4269206,59.6270405 C53.616221,60.5954133 51.8201863,61.1111111 46.8673044,61.1111111 L14.2438067,61.1111111 C9.29092478,61.1111111 7.49489012,60.5954133 5.68419054,59.6270405 C3.87349095,58.6586678 2.45244331,57.2376202 1.48407058,55.4269206 C0.566664826,53.711521 0.0555379302,52.0092832 0.00427638926,47.6235666 L0,14.2438067 C0,9.29092478 0.51569784,7.49489012 1.48407058,5.68419054 C2.45244331,3.87349095 3.87349095,2.45244331 5.68419054,1.48407058 C7.39959015,0.566664826 9.10182788,0.0555379302 13.4875445,0.00427638926 L46.8673044,0 Z" id="path-11"></path>
        <linearGradient x1="50%" y1="43.9487953%" x2="50%" y2="98.2749179%" id="linearGradient-13">
            <stop stop-color="#FFFFFF" stop-opacity="0.2" offset="0%"></stop>
            <stop stop-color="#FFFFFF" offset="100%"></stop>
            <stop stop-color="#FFFFFF" offset="100%"></stop>
        </linearGradient>
        <path d="M46.8673044,0 C51.8201863,0 53.616221,0.51569784 55.4269206,1.48407058 C57.2376202,2.45244331 58.6586678,3.87349095 59.6270405,5.68419054 C60.5954133,7.49489012 61.1111111,9.29092478 61.1111111,14.2438067 L61.1111111,46.8673044 C61.1111111,51.8201863 60.5954133,53.616221 59.6270405,55.4269206 C58.6586678,57.2376202 57.2376202,58.6586678 55.4269206,59.6270405 C53.616221,60.5954133 51.8201863,61.1111111 46.8673044,61.1111111 L14.2438067,61.1111111 C9.29092478,61.1111111 7.49489012,60.5954133 5.68419054,59.6270405 C3.87349095,58.6586678 2.45244331,57.2376202 1.48407058,55.4269206 C0.566664826,53.711521 0.0555379302,52.0092832 0.00427638926,47.6235666 L0,14.2438067 C0,9.29092478 0.51569784,7.49489012 1.48407058,5.68419054 C2.45244331,3.87349095 3.87349095,2.45244331 5.68419054,1.48407058 C7.39959015,0.566664826 9.10182788,0.0555379302 13.4875445,0.00427638926 L46.8673044,0 Z" id="path-14"></path>
        <linearGradient x1="93.6955104%" y1="92.3965696%" x2="8.67804723e-13%" y2="1.20100303e-12%" id="linearGradient-16">
            <stop stop-color="#FFFFFF" offset="0%"></stop>
            <stop stop-color="#FFFFFF" stop-opacity="0.2" offset="100%"></stop>
        </linearGradient>
    </defs>
    <g id="avatar-3" stroke="none" stroke-width="1" fill="none" fill-rule="evenodd">
        <g id="kooply-logomark">
            <mask id="mask-2" fill="white">
                <use xlink:href="#path-1"></use>
            </mask>
            <use id="Mask" fill="#291C2B" xlink:href="#path-1"></use>
            <g mask="url(#mask-2)" id="Rectangle-+-Rectangle-+-Rectangle-+-Rectangle-Mask">
                <g>
                    <mask id="mask-4" fill="white">
                        <use xlink:href="#path-3"></use>
                    </mask>
                    <g id="Mask"></g>
                    <g id="Rectangle" mask="url(#mask-4)">
                        <g transform="translate(-13.8889, -13.8889)">
                            <g id="Rectangle" stroke-width="1" fill="none">
                                <mask id="mask-6" fill="white">
                                    <use xlink:href="#path-5"></use>
                                </mask>
                                <use id="Mask" fill="#F59300" xlink:href="#path-5"></use>
                                <path d="M41.6666667,36.1111111 C44.7349153,36.1111111 47.2222222,38.5984181 47.2222222,41.6666667 L47.2222222,86.1111111 C47.2222222,89.1793597 44.7349153,91.6666667 41.6666667,91.6666667 C38.5984181,91.6666667 36.1111111,89.1793597 36.1111111,86.1111111 L36.1111111,41.6666667 C36.1111111,38.5984181 38.5984181,36.1111111 41.6666667,36.1111111 Z" fill="url(#linearGradient-7)" mask="url(#mask-6)"></path>
                            </g>
                            <circle id="Oval" fill="#FFFFFF" cx="41.6666667" cy="41.6666667" r="5.55555556"></circle>
                        </g>
                    </g>
                    <g id="Rectangle" mask="url(#mask-4)">
                        <g transform="translate(52.7778, -13.8889)">
                            <mask id="mask-9" fill="white">
                                <use xlink:href="#path-8"></use>
                            </mask>
                            <use id="Rectangle" stroke="none" fill="#FF374C" fill-rule="evenodd" xlink:href="#path-8"></use>
                            <path d="M23.3476726,37.7382957 C25.517252,39.9078751 25.517252,43.4254583 23.3476726,45.5950377 L7.63418862,61.3085217 C5.46460922,63.4781011 1.947026,63.4781011 -0.222553397,61.3085217 C-2.3921328,59.1389423 -2.3921328,55.6213591 -0.222553397,53.4517797 L15.4909306,37.7382957 C17.5463216,35.6829047 20.8115554,35.5747262 22.9942983,37.4137602 L23.3476726,37.7382957 Z" id="Rectangle" stroke="none" fill="url(#linearGradient-10)" fill-rule="evenodd" mask="url(#mask-9)"></path>
                            <circle id="Oval" stroke="none" fill="#FFFFFF" fill-rule="evenodd" mask="url(#mask-9)" cx="19.4444444" cy="41.6666667" r="5.55555556"></circle>
                        </g>
                    </g>
                    <g id="Rectangle" mask="url(#mask-4)">
                        <g transform="translate(-13.8889, 52.7778)">
                            <mask id="mask-12" fill="white">
                                <use xlink:href="#path-11"></use>
                            </mask>
                            <use id="Rectangle" stroke="none" fill="#0080FF" fill-rule="evenodd" xlink:href="#path-11"></use>
                            <path d="M41.6666667,-25 C44.7349153,-25 47.2222222,-22.5126931 47.2222222,-19.4444444 L47.2222222,19.4444444 C47.2222222,22.5126931 44.7349153,25 41.6666667,25 C38.5984181,25 36.1111111,22.5126931 36.1111111,19.4444444 L36.1111111,-19.4444444 C36.1111111,-22.5126931 38.5984181,-25 41.6666667,-25 Z" id="Rectangle" stroke="none" fill="url(#linearGradient-13)" fill-rule="evenodd" mask="url(#mask-12)"></path>
                            <circle id="Oval" stroke="none" fill="#FFFFFF" fill-rule="evenodd" mask="url(#mask-12)" cx="41.6666667" cy="19.4444444" r="5.55555556"></circle>
                        </g>
                    </g>
                    <g id="Rectangle" mask="url(#mask-4)">
                        <g transform="translate(52.7778, 52.7778)">
                            <mask id="mask-15" fill="white">
                                <use xlink:href="#path-14"></use>
                            </mask>
                            <use id="Rectangle" stroke="none" fill="#D23EEA" fill-rule="evenodd" xlink:href="#path-14"></use>
                            <path d="M23.3476726,23.3728155 C21.1780932,25.5423948 17.66051,25.5423948 15.4909306,23.3728155 L-0.222553397,7.65933142 C-2.3921328,5.48975203 -2.3921328,1.97216881 -0.222553397,-0.197410589 C1.947026,-2.36698999 5.46460922,-2.36698999 7.63418862,-0.197410589 L23.3476726,15.5160734 C25.4030637,17.5714644 25.5112421,20.8366982 23.6722081,23.0194411 L23.3476726,23.3728155 Z" id="Rectangle" stroke="none" fill="url(#linearGradient-16)" fill-rule="evenodd" mask="url(#mask-15)"></path>
                            <circle id="Oval" stroke="none" fill="#FFFFFF" fill-rule="evenodd" mask="url(#mask-15)" cx="19.4444444" cy="19.4444444" r="5.55555556"></circle>
                        </g>
                    </g>
                </g>
            </g>
        </g>
    </g>
</svg>