<?xml version="1.0" encoding="UTF-8"?>
<svg width="256px" height="256px" viewBox="0 0 256 256" version="1.1" xmlns="http://www.w3.org/2000/svg" xmlns:xlink="http://www.w3.org/1999/xlink">
    <title>lemonade-2</title>
    <defs>
        <path d="M223.642313,135.259259 L223.491564,134.012851 C223.459213,133.80466 222.745486,128.892525 226.130017,125.437382 C227.114892,124.429247 228.303547,123.851852 229.390145,123.851852 C230.316322,123.851852 231.078075,124.250115 231.464287,125.00972 C233.33365,128.686044 223.642313,135.259259 223.642313,135.259259 L223.642313,135.259259 Z M208.244306,128 L208.109888,125.848255 L208.089743,125.578001 C208.085575,125.510615 207.596876,118.703552 208.032433,113.858489 C208.510364,108.589249 210.079271,105.185185 212.027119,105.185185 C212.425859,105.185185 212.807926,105.38628 213.106633,105.753357 C214.078473,106.944318 214.362939,110.121042 213.754411,112.983179 C212.774929,117.553732 211.223041,121.178041 210.086218,123.831991 C209.764587,124.582459 209.479773,125.24639 209.25609,125.823428 L208.244306,128 Z M197.82317,142.518519 C195.477965,142.518519 194.37037,140.15097 194.37037,137.925302 C194.37037,126.441903 200.385505,124.178258 203.015633,125.060356 C203.015633,125.060356 203.102092,127.241596 203.313982,130.048761 C203.498363,132.486533 203.664404,135.372162 203.703704,135.62117 C203.703704,135.62117 201.518317,142.518519 197.82317,142.518519 L197.82317,142.518519 Z M177.777778,125.429507 C177.777778,125.429507 177.077388,142.518519 170.69979,142.518519 C167.644415,142.518519 167.407407,139.074515 167.407407,138.017811 C167.407407,125.830089 176.550209,123.660176 177.777778,125.429507 L177.777778,125.429507 Z M118.233815,142.518519 C114.729277,142.518519 113.481481,138.966693 113.481481,135.642535 C113.481481,129.586712 116.93641,124.888889 119.90707,124.888889 C122.800852,124.888889 123.851852,128.94966 123.851852,131.678192 C123.851852,137.75699 121.38353,142.518519 118.233815,142.518519 L118.233815,142.518519 Z M55.7716421,124.876652 C59.7863519,122.072111 61.6121044,125.655631 60.0194803,128.074333 C57.8161102,131.420947 52.7975428,134.731788 51.3393189,135.259259 C51.3393189,135.259259 50.2922226,128.704378 55.7716421,124.876652 L55.7716421,124.876652 Z M212.272561,145.791976 C216.797958,146.04593 219.906956,142.921025 219.906956,142.921025 C221.398932,145.255419 224.056525,146.392552 227.813432,146.392552 C231.944107,146.392552 236.218035,143.309029 238.66401,140.437017 C240.117166,138.733616 240.274506,137.754939 239.663012,137.220151 C239.107171,136.734172 237.878344,137.370118 236.753264,138.381335 C235.235866,139.74448 232.021746,141.70431 229.208875,141.70431 C225.798939,141.70431 224.244783,139.502552 224.244783,139.502552 C231.189702,135.294629 236.30495,130.517963 236.30495,126.418271 C236.30495,121.823758 232.874745,119.769137 229.475115,119.769137 C223.393501,119.769137 216.828189,125.289273 216.828189,134.208428 C216.828189,137.156132 217.827191,139.660654 217.827191,139.660654 C217.827191,139.660654 216.620693,141.524279 212.785803,141.209489 C208.709751,140.875246 208.96809,133.555859 208.96809,133.555859 C208.96809,133.555859 210.215125,131.247284 210.685769,130.387449 C213.444705,125.353646 217.22085,118.461169 217.83097,110.196352 C218.170727,105.565409 216.850519,103.078571 215.682497,101.807034 C214.643645,100.674852 213.25576,100 211.969562,100 C207.254877,100 203.98373,104.805316 203.190849,109.551918 C202.415489,114.206559 202.727763,121.130514 202.727763,121.130514 C202.727763,121.130514 198.491967,120.08994 194.240711,122.955232 C190.351199,125.576474 188.625619,130.822495 188.082489,133.470264 C187.835143,134.655146 187.751321,135.898742 187.831708,137.164267 C187.869153,137.754585 188.051227,138.891365 188.051227,138.891365 C188.051227,138.891365 186.652693,141.818908 184.167555,141.818908 C180.163989,141.818908 182.80681,123.380375 182.960371,122.343338 C183.084044,121.508261 183.597286,119.725987 180.773078,119.601132 C179.066393,119.525795 178.354586,120.158911 178.223699,120.985145 L178.108958,121.807842 C178.108958,121.807842 172.319693,117.894194 165.765718,124.942651 C162.27402,128.691476 161.006373,134.116467 160.949003,138.469052 L160.945911,138.743166 C160.945911,138.743166 159.509931,142.868324 156.168015,142.250771 C153.942934,141.839776 153.662952,137.906675 153.662952,136.386489 C153.662952,133.470264 154.339031,130.220504 154.883192,127.609166 C155.226727,125.954222 155.524573,124.527411 155.524573,123.746804 C155.524573,120.958264 154.737876,119.769137 152.896181,119.769137 C150.389744,119.769137 148.139928,121.742408 145.647576,124.788793 C142.466778,128.676621 140.100503,134.750998 140.100503,134.750998 C140.100503,134.750998 140.204595,133.665151 140.368805,132.61821 C140.475301,131.941236 140.764558,128.80572 141.298413,125.958466 C141.594541,124.382396 141.702411,123.092113 141.721305,122.95311 C141.814747,122.181345 141.6392,121.514982 141.214934,121.02582 C140.797538,120.545147 140.158905,120.268556 139.463932,120.268556 C138.350189,120.268556 136.917301,121.008135 136.236757,123.083624 C135.925857,124.020919 135.747562,124.712041 135.525981,125.825123 L135.317455,126.857915 L134.543125,126.156182 C131.475694,123.369057 127.2265,120.047496 121.133206,120.047496 C112.552369,120.047496 107.921164,127.940225 107.921164,135.368551 C107.921164,136.283917 107.978534,137.156839 108.089496,137.965388 L108.132782,138.284422 C108.132782,138.284422 106.341586,142.593856 103.197547,141.80865 C101.820999,141.464858 100.973153,140.006215 100.973153,136.532919 C100.973153,133.643222 101.557507,129.716487 101.906883,127.360164 C102.025059,126.560457 102.119875,125.929109 102.145984,125.634834 L102.223623,124.763327 C102.463754,122.140316 102.531431,120.955434 101.656789,120.384215 C101.01369,119.969683 100.335894,119.769137 99.5876728,119.769137 C98.8683088,119.769137 98.3014748,120.100197 97.7964772,120.45743 C97.0197428,121.00955 94.4786087,124.370724 89.6790703,132.153807 C89.6014312,132.279723 89.5567716,132.346925 89.5523056,132.352938 L89.0287571,133.354606 L87.7696985,136.109545 L88.456083,132.106766 L88.4993685,131.844677 C88.6113611,131.171239 88.8099248,129.984589 88.8920299,129.606841 L89.0933418,128.738164 C89.4172961,127.343894 90.0920003,124.443939 90.1813196,123.931433 C90.4702332,122.232631 90.3565229,121.09762 89.8329744,120.463443 C89.4458095,119.99621 88.7985881,119.769137 87.8531777,119.769137 C86.1121384,119.769137 84.7108559,121.08418 82.2951123,124.981557 C81.9182536,125.590976 80.5070086,127.916528 79.3918915,129.757516 C77.9473235,132.14355 76.6367345,133.908494 76.6367345,133.908494 L76.9414508,130.718508 C77.1747116,129.286039 78.0479795,122.706937 78.0596597,122.398161 C78.0565679,121.010965 77.366061,120.365115 75.8854218,120.365115 C75.28286,120.365115 73.8135575,120.497044 73.1979414,121.718357 C72.6338557,122.834622 71.0683631,127.890708 70.3070878,135.622859 C70.3070878,135.622859 64.2484909,141.449649 57.7711238,141.449649 C55.3842372,141.449649 53.4951339,140.52155 52.8104671,138.708504 C52.8104671,138.708504 56.2757125,136.909605 57.9212489,135.771411 C62.1350588,132.856955 65.2004285,129.886969 65.2004285,126.073064 C65.2004285,121.406751 60.8966123,119.305442 57.341017,119.769137 C51.2350121,120.565307 46.0740741,126.955535 46.0740741,134.378202 C46.0740741,141.360517 49.9687392,146.392552 56.7467001,146.392552 C64.5971797,146.392552 70.016113,139.925572 70.016113,139.925572 L69.8529335,142.87752 C69.751934,144.416098 70.3867881,146.392552 72.9718949,146.392552 C73.6582793,146.392552 74.9114979,146.174322 75.5776137,144.712849 C79.5990435,135.936941 83.8104486,128.976909 83.8520165,128.908292 L83.995958,128.670962 L84.7266586,127.270679 L85.8146364,125.457632 L84.9427426,129.348997 C84.7843726,130.236774 83.3975186,138.132333 83.198955,141.613764 C83.0965813,143.37128 83.0952072,145.100854 83.7829658,145.841847 C84.1313111,146.218534 84.6909308,146.392552 85.542556,146.392552 C87.4460878,146.392552 88.6271638,145.735031 89.0531481,144.43732 C92.1521844,135.085948 95.4916957,128.776363 95.6325454,128.511445 L95.7634325,128.266687 L97.5158085,124.852812 C97.5158085,124.852812 96.1334205,132.640847 96.1334205,137.951948 C96.1334205,140.490425 96.6336086,145.111819 100.255506,145.989692 C105.830748,147.341519 109.256144,141.579809 109.256144,141.579809 L109.618917,142.589258 C111.210175,145.256127 113.854714,146.666667 117.267398,146.666667 C124.338738,146.666667 128.908451,141.181547 128.908451,132.691425 C128.908451,127.423829 126.476905,124.406094 126.476905,124.406094 C126.476905,124.406094 129.175722,125.351877 131.15758,126.768784 C133.304679,128.303471 134.829634,129.929059 134.829634,129.929059 L134.776386,130.276035 C134.712832,130.680309 134.655461,131.087413 134.597747,131.499116 C134.374793,133.127886 134.177947,134.835531 134.010988,136.576777 C133.857084,138.199535 133.777728,139.66702 133.777728,140.937143 C133.777728,141.708908 133.819639,142.420545 133.908615,143.11485 C133.986254,143.762114 134.145998,144.352433 134.380633,144.864939 C134.455524,145.021626 135.159085,146.392552 136.937226,146.392552 C138.124142,146.392552 138.886105,145.964226 139.448129,144.660149 C144.943327,131.904098 149.345395,127.816078 149.732216,127.409681 C150.752174,126.338336 150.291836,128.332474 150.291836,128.332474 L150.251642,128.594917 C150.244428,128.63736 149.565258,132.957759 149.412728,134.27174 C149.258824,135.567682 149.181185,136.805265 149.181185,137.951948 C149.181185,141.505179 149.977501,145.554646 154.145277,146.194482 C159.842474,147.069527 161.816431,142.628518 161.816431,142.628518 C161.816431,142.628518 163.877645,146.392552 168.744517,146.392552 C175.881129,146.392552 178.090407,140.957658 178.090407,140.957658 C178.842064,144.227578 180.179792,145.989692 183.397692,145.989692 C186.880801,145.989692 189.300323,142.091607 189.300323,142.091607 C189.300323,142.091607 191.315161,146.392552 196.238716,146.392552 C201.937631,146.392552 204.851157,142.057299 204.970708,141.875853 L205.632014,140.846243 C205.632014,140.846243 207.487451,145.523167 212.272561,145.791976 L212.272561,145.791976 Z M24.257241,144.585378 C19.0530925,144.406874 18.7660063,140.664084 23.5455656,139.697642 C27.9129714,138.814661 31.5555556,140.228044 31.5555556,140.228044 C31.5555556,140.228044 30.4534003,144.798288 24.257241,144.585378 L24.257241,144.585378 Z M46.7971988,105.191169 C49.6761732,105.430706 49.4598164,109.485705 48.6763734,112.028157 C46.3804738,119.481302 40.8888889,119.703704 40.8888889,119.703704 C40.8888889,119.703704 42.6262069,104.844179 46.7971988,105.191169 L46.7971988,105.191169 Z M39.0086098,131.802253 C39.7233433,127.306562 40.3070993,123.024559 40.3070993,123.024559 C40.3070993,123.024559 49.5866658,123.08684 52.7472242,112.033382 C54.5863806,105.600535 51.981878,100.118011 46.5512712,100.002039 C41.0676579,99.8849938 36.8196102,104.788017 34.8289576,119.441966 C34.8289576,119.441966 29.5286444,118.735756 27.1871227,114.514603 C26.0794567,112.517313 24.4082114,113.446876 24.9293855,115.345017 C26.6912549,121.763546 34.4948454,122.796911 34.4948454,122.796911 C34.4948454,122.796911 34.1716764,125.638217 33.6891458,129.116292 C33.2209782,132.490566 32.4173305,136.736059 32.4173305,136.736059 C32.4173305,136.736059 27.4938767,135.163999 22.2554615,136.268951 C14.2053051,137.967363 13.3195827,148.046874 23.16991,149.042297 C34.7212346,150.209173 36.9023688,142.143416 36.9023688,142.143416 C36.9023688,142.143416 39.1717332,143.256601 42.3921377,146.164482 C45.9610176,149.386991 47.5919095,151.385712 48.3319494,150.66948 C49.1431206,149.884166 47.3562868,147.142009 44.048336,143.645321 C40.3050475,139.688325 37.714224,138.66713 37.714224,138.66713 C37.714224,138.66713 38.3335457,136.049535 39.0086098,131.802253 L39.0086098,131.802253 Z" id="path-1"></path>
    </defs>
    <g id="2" stroke="none" stroke-width="1" fill="none" fill-rule="evenodd">
        <mask id="mask-2" fill="white">
            <use xlink:href="#path-1"></use>
        </mask>
        <use id="Mask" fill="#FFFFFF" xlink:href="#path-1"></use>
    </g>
</svg>