<?xml version="1.0" encoding="UTF-8"?>
<svg width="100px" height="100px" viewBox="0 0 100 100" version="1.1" xmlns="http://www.w3.org/2000/svg" xmlns:xlink="http://www.w3.org/1999/xlink">
    <title>obol-avatar-2</title>
    <g id="avatar-2" stroke="none" stroke-width="1" fill="none" fill-rule="evenodd">
        <rect id="Rectangle" fill="#00A383" x="0" y="0" width="100" height="100" rx="50"></rect>
        <g id="obol-logomark-white" transform="translate(10, 10)" fill="#FFFFFF" fill-rule="nonzero">
            <path d="M40,0 C62.0913899,0 80,17.90861 80,40 C80,62.0913899 62.0913899,80 40,80 C17.90861,80 0,62.0913899 0,40 C0,17.90861 17.90861,0 40,0 Z M58.3148354,19.6620105 C47.5708189,9.97034215 30.9963345,10.2988733 20.6476039,20.6476039 C9.95957063,31.3356371 9.95957063,48.6643629 20.6476039,59.3523962 C25.7911973,64.4959895 32.6376261,67.3070834 39.7669867,67.3674347 L48.6664865,67.3542674 C49.7135512,67.2326954 50.5263158,66.3428457 50.5263158,65.2631579 L50.5239495,61.0521126 L61.2981497,61.038468 C62.3451785,60.9168573 63.1578947,60.0270227 63.1578947,58.9473684 L63.1567025,51.8269328 L66.4179242,50.1815899 C67.3000293,49.6045724 67.6289987,48.4452225 67.1461625,47.4795503 L63.1574928,39.5027158 L63.1578947,30.0532893 C63.1578947,26.6260343 61.8576124,23.3344581 59.5328844,20.8364305 L58.3148354,19.6620105 Z M57.6826415,25.3657086 L57.9422627,25.8433617 C58.5968257,27.1361227 58.9473684,28.5764173 58.9473684,30.0532893 L58.9473684,37.8947368 L54.7368421,37.8947368 C53.5741375,37.8947368 52.6315789,38.8372954 52.6315789,40 C52.6315789,41.1627046 53.5741375,42.1052632 54.7368421,42.1052632 L59.7515789,42.1052632 L62.4380549,47.4780985 L59.8833733,48.7755571 C59.3033438,49.1627653 58.9473684,49.8175025 58.9473684,50.5263158 L58.9474716,56.8408785 L48.1755345,56.8562688 C47.1285057,56.9778796 46.3157895,57.8677141 46.3157895,58.9473684 L46.3153973,63.1570594 L39.8026284,63.1570594 C34.4763299,63.1119712 29.3437939,61.2563994 25.2182756,57.8284072 C32.0913472,50.9383168 35.5559737,47.4491438 35.6121552,47.3608876 C36.3553379,46.5343547 36.3293069,45.2611821 35.5340625,44.4659375 C33.0675933,41.9994684 33.0675933,38.0005316 35.5340625,35.5340625 C38.0005316,33.0675933 41.9994684,33.0675933 44.4659375,35.5340625 C45.1758691,36.2439939 46.2666855,36.3409 47.0800566,35.8264248 C47.2690764,35.7290602 47.4464411,35.6011766 47.6048436,35.4427741 L57.6826415,25.3657086 Z M23.6248956,23.6248956 C32.1788625,15.0709286 45.7597682,14.6076972 54.8581926,22.2352015 L45.8491926,31.2459933 C41.758132,28.5060813 36.1705343,28.9430069 32.5567707,32.5567707 C28.9436362,36.1699053 28.5062335,41.7561865 31.2445625,45.8470558 L22.2352015,54.8581926 C14.6076972,45.7597682 15.0709286,32.1788625 23.6248956,23.6248956 Z" id="Combined-Shape"></path>
        </g>
    </g>
</svg>