<?xml version="1.0" encoding="UTF-8"?>
<svg width="256px" height="256px" viewBox="0 0 256 256" version="1.1" xmlns="http://www.w3.org/2000/svg" xmlns:xlink="http://www.w3.org/1999/xlink">
    <title>obol-1</title>
    <g id="1" stroke="none" stroke-width="1" fill="none" fill-rule="evenodd">
        <g id="obol-logomark" transform="translate(75, 75)" fill="#1A1A33" fill-rule="nonzero">
            <path d="M53,0 C82.2710916,0 106,23.7289082 106,53 C106,82.2710916 82.2710916,106 53,106 C23.7289082,106 0,82.2710916 0,53 C0,23.7289082 23.7289082,0 53,0 Z M53,5.57894737 C26.8100758,5.57894737 5.57894737,26.8100758 5.57894737,53 C5.57894737,79.1899241 26.8100758,100.421053 53,100.421053 C79.1899241,100.421053 100.421053,79.1899241 100.421053,53 C100.421053,26.8100758 79.1899241,5.57894737 53,5.57894737 Z M78.8810719,27.6082704 C81.9613365,30.918157 83.6842105,35.2794955 83.6842105,39.8206083 L83.683678,52.3410984 L88.9686653,62.9104042 C89.6084233,64.1899198 89.1725388,65.7260585 88.0037496,66.4906066 L83.6826308,68.670686 L83.6842105,78.1052632 C83.6842105,79.5358051 82.6073615,80.7148359 81.2200483,80.8759701 L66.9442331,80.8940492 L66.9473684,86.4736842 C66.9473684,87.9042705 65.8704553,89.0833214 64.4830946,89.2444043 L52.6912574,89.261851 C43.2448546,89.1818855 34.1733364,85.4571861 27.3580751,78.641925 C13.1964311,64.4802809 13.1964311,41.5197191 27.3580751,27.3580751 C41.0701432,13.6460071 63.0313351,13.2107033 77.2671569,26.0521639 L78.8810719,27.6082704 Z M76.4295,33.6095639 L63.0764177,46.9616757 C62.8665344,47.171559 62.6315263,47.3410048 62.381075,47.4700129 C61.3033583,48.1516925 59.8580265,48.0232919 58.9173672,47.0826328 C55.6492957,43.8145611 50.3507043,43.8145611 47.0826328,47.0826328 C43.8145611,50.3507043 43.8145611,55.6492957 47.0826328,58.9173672 C48.1363317,59.9710663 48.1708227,61.65802 47.1861056,62.753176 C47.1116651,62.8701155 42.521035,67.4932698 33.4142151,76.6226395 C38.8805269,81.1647292 45.6811371,83.6233618 52.7384827,83.6831037 L61.3679014,83.6831037 L61.3684211,78.1052632 C61.3684211,76.6747212 62.44527,75.4956904 63.8325832,75.3345562 L78.1053998,75.314164 L78.1052632,66.9473684 C78.1052632,66.0081908 78.5769305,65.140664 79.3454696,64.6276131 L82.7304228,62.9084805 L79.1708421,55.7894737 L72.5263158,55.7894737 C70.9857322,55.7894737 69.7368421,54.5405836 69.7368421,53 C69.7368421,51.4594164 70.9857322,50.2105263 72.5263158,50.2105263 L78.1052632,50.2105263 L78.1052632,39.8206083 C78.1052632,37.8637529 77.640794,35.9553626 76.7734981,34.2424542 L76.4295,33.6095639 Z M31.3029866,31.3029866 C19.9689804,42.6369928 19.3551988,60.6316929 29.461642,72.6871052 L41.3990453,60.7473489 C37.7707594,55.3269471 38.350318,47.9251245 43.1377212,43.1377212 C47.925958,38.3494842 55.3295249,37.7705577 60.7501802,41.4009411 L72.6871052,29.461642 C60.6316929,19.3551988 42.6369928,19.9689804 31.3029866,31.3029866 Z" id="Shape"></path>
        </g>
    </g>
</svg>