<?xml version="1.0" encoding="UTF-8"?>
<svg width="1256px" height="620px" viewBox="0 0 1256 620" version="1.1" xmlns="http://www.w3.org/2000/svg" xmlns:xlink="http://www.w3.org/1999/xlink">
    <title>obol-preview</title>
    <g id="obol-preview" stroke="none" fill="none" fill-rule="evenodd" stroke-width="1">
        <g id="obol-full-logo" transform="translate(474, 262)" fill="#1A1A33">
            <g transform="translate(8, 12)">
                <g id="logomark" fill-rule="nonzero">
                    <path d="M38,0 C58.9868204,0 76,17.0131795 76,38 C76,58.9868204 58.9868204,76 38,76 C17.0131795,76 0,58.9868204 0,38 C0,17.0131795 17.0131795,0 38,0 Z M38,4 C19.2223185,4 4,19.2223185 4,38 C4,56.7776814 19.2223185,72 38,72 C56.7776814,72 72,56.7776814 72,38 C72,19.2223185 56.7776814,4 38,4 Z M56.5562402,19.794609 C58.7647318,22.1677352 60,25.2947326 60,28.5506248 L59.9996182,37.52758 L63.7888544,45.1055728 C64.2475488,46.0229614 63.9350278,47.1243438 63.097028,47.6725104 L59.9988674,49.2355862 L60,56 C60,57.0256716 59.2279196,57.8710144 58.2332422,57.9865446 L47.997752,57.999507 L48,62 C48,63.0257034 47.2278736,63.8710606 46.2331622,63.986554 L37.7786374,63.999063 C31.0057448,63.9417292 24.5016374,61.27119 19.6152237,56.3847764 C9.4615921,46.2311448 9.4615921,29.7688552 19.6152237,19.6152237 C29.4465178,9.78392962 45.192278,9.47182504 55.3990936,18.67891 L56.5562402,19.794609 Z M54.7985094,24.0974232 L45.2246014,33.6706354 C45.074119,33.8211178 44.9056226,33.9426072 44.7260538,34.0351036 C43.9533512,34.523855 42.9170756,34.4317942 42.2426406,33.7573594 C39.899495,31.4142136 36.100505,31.4142136 33.7573594,33.7573594 C31.4142136,36.100505 31.4142136,39.899495 33.7573594,42.2426406 C34.5128416,42.998123 34.537571,44.207637 33.8315474,44.9928432 C33.778175,45.0766866 30.4867798,48.391401 23.9573618,54.9369868 C27.8766042,58.1935794 32.7525134,59.9563726 37.812497,59.9992064 L43.9996274,59.9992064 L44,56 C44,54.9743284 44.7720804,54.1289856 45.7667578,54.0134554 L56.000098,53.9988346 L56,48 C56,47.3266274 56.3381766,46.704627 56.8892046,46.3367792 L59.3161522,45.1041936 L56.764,40 L52,40 C50.8954306,40 50,39.1045694 50,38 C50,36.8954306 50.8954306,36 52,36 L56,36 L56,28.5506248 C56,27.1475964 55.6669844,25.7793166 55.0451496,24.5511936 L54.7985094,24.0974232 Z M22.4436508,22.4436508 C14.3173822,30.5699194 13.8773124,43.4717798 21.1234414,52.115283 L29.6823344,43.554703 C27.0809218,39.6683772 27.4964544,34.36141 30.9289322,30.9289322 C34.3620076,27.4958566 39.6702254,27.0807772 43.556733,29.6836936 L52.115283,21.1234414 C43.4717798,13.8773124 30.5699194,14.3173822 22.4436508,22.4436508 Z" id="Shape"></path>
                </g>
                <g id="wordmark" transform="translate(94, 0)" fill-rule="nonzero">
                    <path d="M26,12 C40.3594034,12 52,23.6405966 52,38 C52,52.3594034 40.3594034,64 26,64 C11.6405965,64 0,52.3594034 0,38 C0,23.6405966 11.6405965,12 26,12 Z M26,16 C14.954305,16 6,25.8497356 6,38 C6,50.1502644 14.954305,60 26,60 C37.045695,60 46,50.1502644 46,38 C46,25.8497356 37.045695,16 26,16 Z M154,12 C168.359403,12 180,23.6405966 180,38 C180,52.3594034 168.359403,64 154,64 C139.640597,64 128,52.3594034 128,38 C128,23.6405966 139.640597,12 154,12 Z M154,16 C142.954305,16 134,25.8497356 134,38 C134,50.1502644 142.954305,60 154,60 C165.045695,60 174,50.1502644 174,38 C174,25.8497356 165.045695,16 154,16 Z M68,0 C69.1045694,0 70,0.8954305 70,2 L69.9995436,21.3862528 C74.7687582,15.6511653 81.9579914,12 90,12 C104.359403,12 116,23.6405966 116,38 C116,52.3594034 104.359403,64 90,64 C81.9579914,64 74.7687582,60.3488346 69.9995436,54.6137472 L70,62 C70,63.1045694 69.1045694,64 68,64 L66,64 C64.8954306,64 64,63.1045694 64,62 L64,2 C64,0.8954305 64.8954306,0 66,0 L68,0 Z M90,16 C78.954305,16 70,25.8497356 70,38 C70,50.1502644 78.954305,60 90,60 C101.045695,60 110,50.1502644 110,38 C110,25.8497356 101.045695,16 90,16 Z M194,0 L196,0 C197.104569,0 198,0.8954305 198,2 L198,62 C198,63.1045694 197.104569,64 196,64 L194,64 C192.895431,64 192,63.1045694 192,62 L192,2 C192,0.8954305 192.895431,0 194,0 Z" id="Shape"></path>
                </g>
            </g>
        </g>
    </g>
</svg>