<?xml version="1.0" encoding="UTF-8"?>
<svg width="256px" height="256px" viewBox="0 0 256 256" version="1.1" xmlns="http://www.w3.org/2000/svg" xmlns:xlink="http://www.w3.org/1999/xlink">
    <title>obol-2</title>
    <g id="2" stroke="none" stroke-width="1" fill="none" fill-rule="evenodd">
        <g id="obol-logomark-white" transform="translate(75, 75)" fill="#FFFFFF" fill-rule="nonzero">
            <path d="M53,0 C82.2710916,0 106,23.7289082 106,53 C106,82.2710916 82.2710916,106 53,106 C23.7289082,106 0,82.2710916 0,53 C0,23.7289082 23.7289082,0 53,0 Z M77.2671569,26.0521639 C63.0313351,13.2107033 41.0701432,13.6460071 27.3580751,27.3580751 C13.1964311,41.5197191 13.1964311,64.4802809 27.3580751,78.641925 C34.1733364,85.4571861 43.2448546,89.1818855 52.6912574,89.261851 L64.4830946,89.2444043 C65.8704553,89.0833214 66.9473684,87.9042705 66.9473684,86.4736842 L66.9442331,80.8940492 L81.2200483,80.8759701 C82.6073615,80.7148359 83.6842105,79.5358051 83.6842105,78.1052632 L83.6826308,68.670686 L88.0037496,66.4906066 C89.1725388,65.7260585 89.6084233,64.1899198 88.9686653,62.9104042 L83.683678,52.3410984 L83.6842105,39.8206083 C83.6842105,35.2794955 81.9613365,30.918157 78.8810719,27.6082704 L77.2671569,26.0521639 Z M76.4295,33.6095639 L76.7734981,34.2424542 C77.640794,35.9553626 78.1052632,37.8637529 78.1052632,39.8206083 L78.1052632,50.2105263 L72.5263158,50.2105263 C70.9857322,50.2105263 69.7368421,51.4594164 69.7368421,53 C69.7368421,54.5405836 70.9857322,55.7894737 72.5263158,55.7894737 L79.1708421,55.7894737 L82.7304228,62.9084805 L79.3454696,64.6276131 C78.5769305,65.140664 78.1052632,66.0081908 78.1052632,66.9473684 L78.1053998,75.314164 L63.8325832,75.3345562 C62.44527,75.4956904 61.3684211,76.6747212 61.3684211,78.1052632 L61.3679014,83.6831037 L52.7384827,83.6831037 C45.6811371,83.6233618 38.8805269,81.1647292 33.4142151,76.6226395 C42.521035,67.4932698 47.1116651,62.8701155 47.1861056,62.753176 C48.1708227,61.65802 48.1363317,59.9710663 47.0826328,58.9173672 C43.8145611,55.6492957 43.8145611,50.3507043 47.0826328,47.0826328 C50.3507043,43.8145611 55.6492957,43.8145611 58.9173672,47.0826328 C59.8580265,48.0232919 61.3033583,48.1516925 62.381075,47.4700129 C62.6315263,47.3410048 62.8665344,47.171559 63.0764177,46.9616757 L76.4295,33.6095639 Z M31.3029866,31.3029866 C42.6369928,19.9689804 60.6316929,19.3551988 72.6871052,29.461642 L60.7501802,41.4009411 C55.3295249,37.7705577 47.925958,38.3494842 43.1377212,43.1377212 C38.350318,47.9251245 37.7707594,55.3269471 41.3990453,60.7473489 L29.461642,72.6871052 C19.3551988,60.6316929 19.9689804,42.6369928 31.3029866,31.3029866 Z" id="Combined-Shape"></path>
        </g>
    </g>
</svg>