<?xml version="1.0" encoding="UTF-8"?>
<svg width="100px" height="100px" viewBox="0 0 100 100" version="1.1" xmlns="http://www.w3.org/2000/svg" xmlns:xlink="http://www.w3.org/1999/xlink">
    <title>obol-avatar-1</title>
    <g id="avatar-1" stroke="none" stroke-width="1" fill="none" fill-rule="evenodd">
        <rect id="Rectangle" fill="#F3F7F4" x="0" y="0" width="100" height="100" rx="50"></rect>
        <g id="obol-logomark" transform="translate(10, 10)" fill="#1A1A33" fill-rule="nonzero">
            <path d="M40,0 C62.0913899,0 80,17.90861 80,40 C80,62.0913899 62.0913899,80 40,80 C17.90861,80 0,62.0913899 0,40 C0,17.90861 17.90861,0 40,0 Z M40,4.21052632 C20.2340195,4.21052632 4.21052632,20.2340195 4.21052632,40 C4.21052632,59.7659804 20.2340195,75.7894737 40,75.7894737 C59.7659804,75.7894737 75.7894737,59.7659804 75.7894737,40 C75.7894737,20.2340195 59.7659804,4.21052632 40,4.21052632 Z M59.5328844,20.8364305 C61.8576124,23.3344581 63.1578947,26.6260343 63.1578947,30.0532893 L63.1574928,39.5027158 L67.1461625,47.4795503 C67.6289987,48.4452225 67.3000293,49.6045724 66.4179242,50.1815899 L63.1567025,51.8269328 L63.1578947,58.9473684 C63.1578947,60.0270227 62.3451785,60.9168573 61.2981497,61.038468 L50.5239495,61.0521126 L50.5263158,65.2631579 C50.5263158,66.3428457 49.7135512,67.2326954 48.6664865,67.3542674 L39.7669867,67.3674347 C32.6376261,67.3070834 25.7911973,64.4959895 20.6476039,59.3523962 C9.95957063,48.6643629 9.95957063,31.3356371 20.6476039,20.6476039 C30.9963345,10.2988733 47.5708189,9.97034215 58.3148354,19.6620105 L59.5328844,20.8364305 Z M57.6826415,25.3657086 L47.6048436,35.4427741 C47.4464411,35.6011766 47.2690764,35.7290602 47.0800566,35.8264248 C46.2666855,36.3409 45.1758691,36.2439939 44.4659375,35.5340625 C41.9994684,33.0675933 38.0005316,33.0675933 35.5340625,35.5340625 C33.0675933,38.0005316 33.0675933,41.9994684 35.5340625,44.4659375 C36.3293069,45.2611821 36.3553379,46.5343547 35.6121552,47.3608876 C35.5559737,47.4491438 32.0913472,50.9383168 25.2182756,57.8284072 C29.3437939,61.2563994 34.4763299,63.1119712 39.8026284,63.1570594 L46.3153973,63.1570594 L46.3157895,58.9473684 C46.3157895,57.8677141 47.1285057,56.9778796 48.1755345,56.8562688 L58.9474716,56.8408785 L58.9473684,50.5263158 C58.9473684,49.8175025 59.3033438,49.1627653 59.8833733,48.7755571 L62.4380549,47.4780985 L59.7515789,42.1052632 L54.7368421,42.1052632 C53.5741375,42.1052632 52.6315789,41.1627046 52.6315789,40 C52.6315789,38.8372954 53.5741375,37.8947368 54.7368421,37.8947368 L58.9473684,37.8947368 L58.9473684,30.0532893 C58.9473684,28.5764173 58.5968257,27.1361227 57.9422627,25.8433617 L57.6826415,25.3657086 Z M23.6248956,23.6248956 C15.0709286,32.1788625 14.6076972,45.7597682 22.2352015,54.8581926 L31.2445625,45.8470558 C28.5062335,41.7561865 28.9436362,36.1699053 32.5567707,32.5567707 C36.1705343,28.9430069 41.758132,28.5060813 45.8491926,31.2459933 L54.8581926,22.2352015 C45.7597682,14.6076972 32.1788625,15.0709286 23.6248956,23.6248956 Z" id="Shape"></path>
        </g>
    </g>
</svg>