<?xml version="1.0" encoding="UTF-8"?>
<svg width="100px" height="100px" viewBox="0 0 100 100" version="1.1" xmlns="http://www.w3.org/2000/svg" xmlns:xlink="http://www.w3.org/1999/xlink">
    <title>ourritual-avatar-2</title>
    <g id="avatar-2" stroke="none" stroke-width="1" fill="none" fill-rule="evenodd">
        <rect id="Rectangle" fill="#FF5B4C" x="0" y="0" width="100" height="100" rx="50"></rect>
        <path d="M58.1538522,26 C73.1131358,26 76.1049926,34.9755702 76.1049926,39.4633553 C76.1049926,43.9511404 73.8611,52.9267106 64.1375656,52.9267106 C64.1375656,52.9267106 68.4250438,59.6583883 77,73.1217436 L58.1002906,73.1217436 C56.3600515,71.0126617 54.7467191,68.9725267 53.2602936,67.0013386 C50.7441343,70.8818136 46.7005939,73.8697078 40.2027117,73.8697078 C23.6825016,73.8697078 23.0266493,54.5565765 23.0006119,50.3736282 L23,49.6181688 C23.0150184,45.705266 23.5156308,26 40.2027117,26 C43.0786939,26 45.4738768,26.5853208 47.4686393,27.5742364 C50.0671391,26.568796 53.5416997,26 58.1538522,26 Z M40.2027117,28.9918567 C33.5563108,28.9918567 29.6390603,32.5981993 27.5362715,39.0691001 C26.8553537,41.1644851 26.4206032,43.433682 26.1881038,45.7699074 C26.0320039,47.3384471 25.9913923,48.5116735 25.9913923,49.9348539 C25.9913923,51.3580342 26.0320039,52.5312606 26.1881038,54.0998004 C26.4206032,56.4360258 26.8553537,58.7052227 27.5362715,60.8006076 C29.6390603,67.2715085 33.5563108,70.877851 40.2027117,70.877851 C45.4909607,70.877851 49.0514705,68.5947891 51.3449741,64.4023055 C43.9167145,54.0710806 40.2027117,45.758332 40.2027117,39.4633553 C40.2027117,35.486607 41.0484489,31.9327273 44.0888983,29.4762037 C42.9120449,29.1556991 41.6193733,28.9918567 40.2027117,28.9918567 Z M58.1538522,28.9918567 C55.120743,28.9918567 52.6274394,29.246603 50.6151612,29.7260669 C57.1282291,35.6361737 57.3945315,46.7803688 57.4054235,49.6181688 L57.4054235,50.2515389 C57.3976553,52.2754667 57.2599704,58.5245143 54.819609,64.0863554 C56.1930851,65.9461361 57.6905598,67.8767331 59.311198,69.8764886 L59.5173909,70.1298869 L71.5476468,70.1298869 L71.4147717,69.921809 C69.8871718,67.5233571 68.9735388,66.0888815 68.0564758,64.6490205 L67.7806366,64.2159313 L67.5948002,63.9241535 C66.8465152,62.7492872 66.0301794,61.4675758 64.8296855,59.5827061 C62.7746443,56.3561298 62.2956137,55.6040141 61.9422231,55.0491631 L61.882602,54.9555533 C61.8629581,54.9247109 61.8434539,54.8940877 61.8238187,54.8632589 L61.7745143,54.7858471 C61.7246301,54.707525 61.6725425,54.6257434 61.6140769,54.5339478 C60.34554,52.5422452 61.7761963,49.9348539 64.1375656,49.9348539 C70.1281854,49.9348539 73.1131358,45.2217742 73.1131358,39.4633553 C73.1131358,37.3277801 72.2798138,34.9414489 70.5519411,33.0901567 C68.1530022,30.5198649 64.156673,28.9918567 58.1538522,28.9918567 Z M47.3172801,30.9213019 L47.1624627,31.0044826 C46.5618627,31.3385114 46.0440903,31.7109067 45.6043628,32.1192251 C43.9245178,33.6790812 43.1945685,35.9684676 43.1945685,39.4633553 C43.1945685,44.7452547 46.3565813,52.036849 52.737716,61.1898513 C52.7830849,61.0619842 52.8264918,60.9318854 52.869152,60.8006076 C53.5500698,58.7052227 53.9848203,56.4360258 54.2173197,54.0998004 C54.3734196,52.5312606 54.4140312,51.3580342 54.4140312,49.9348539 C54.4140312,48.5116735 54.3734196,47.3384471 54.2173197,45.7699074 C53.9848203,43.433682 53.5500698,41.1644851 52.869152,39.0691001 C51.6677168,35.3719301 49.8739606,32.6098793 47.3172801,30.9213019 Z" id="Shape" fill="#FFFFFF" fill-rule="nonzero"></path>
    </g>
</svg>