<?xml version="1.0" encoding="UTF-8"?>
<svg width="256px" height="256px" viewBox="0 0 256 256" version="1.1" xmlns="http://www.w3.org/2000/svg" xmlns:xlink="http://www.w3.org/1999/xlink">
    <title>ourritual-1</title>
    <g id="1" stroke="none" stroke-width="1" fill="none" fill-rule="evenodd">
        <g id="Group" transform="translate(74, 80)">
            <path d="M34.1501109,0 C0,0 0,41.5740481 0,47.5131978 C0,53.4523475 0,95.0263956 34.1501109,95.0263956 C68.3002218,95.0263956 68.3002218,53.4523475 68.3002218,47.5131978 C68.3002218,41.5740481 68.3002218,0 34.1501109,0 Z" id="Path-53" fill="#FF5B4C"></path>
            <path d="M69.7850092,0 C40.0892606,0 34.1501109,11.8782994 34.1501109,26.7261738 C34.1501109,42.5639063 45.9929686,64.8357178 69.6786839,93.5416081 L107.196591,93.5416081 C90.1744029,66.8154344 81.6633087,53.4523475 81.6633087,53.4523475 C100.965545,53.4523475 105.419908,35.6348983 105.419908,26.7261738 C105.419908,17.8174492 99.4807579,0 69.7850092,0 Z" id="Path-54" fill="#FF5B4C"></path>
            <path d="M48.5732764,3.12479469 C68.3002218,12.904083 68.3002218,42.5669009 68.3002218,47.5131978 L68.3001877,47.7019855 C68.2980968,51.7699339 68.167989,68.9067331 60.0718752,81.391712 C42.7900607,58.4753278 34.1501109,40.2537616 34.1501109,26.7261738 C34.1501109,16.4811405 36.9777401,7.6499218 48.4861909,3.15911392 Z" id="Combined-Shape" fill="#8C2C38"></path>
        </g>
    </g>
</svg>