<?xml version="1.0" encoding="UTF-8"?>
<svg width="1256px" height="620px" viewBox="0 0 1256 620" version="1.1" xmlns="http://www.w3.org/2000/svg" xmlns:xlink="http://www.w3.org/1999/xlink">
    <title>rune-preview</title>
    <g id="rune-preview" stroke="none" fill="none" fill-rule="evenodd" stroke-width="1">
        <g id="rune-logo-1" transform="translate(479, 271)">
            <path d="M22.1130812,56.6510286 L31.7521166,62.1047238 C31.8957392,62.1859842 32.0410672,62.2630868 32.1879259,62.3360314 L48.2026919,71.3970197 C48.7450781,71.7038962 48.9309142,72.3835568 48.6177683,72.9150842 C48.5182392,73.0840228 48.3750857,73.2243109 48.2026963,73.3218481 L43.0921582,76.2133671 C38.881813,78.5955443 33.6944535,78.5955443 29.4841083,76.2133671 L20.9790748,71.4012674 C20.628214,71.2027522 20.4120749,70.8358825 20.4120749,70.4388539 L20.4120749,57.6134426 C20.4120749,56.9996881 20.9197859,56.5021418 21.5460791,56.5021418 C21.7451388,56.5021418 21.9406916,56.5534911 22.1130812,56.6510286 Z M43.0921582,1.78663282 L65.7722415,14.6188284 C69.9825868,17.0010054 72.5762665,21.4034503 72.5762665,26.1678044 L72.5762665,51.8321956 C72.5762665,56.5965497 69.9825868,60.9989945 65.7722415,63.3811716 L57.2747218,68.1889447 C56.9238602,68.3874571 56.4915823,68.3874561 56.1407217,68.188942 L44.8066423,61.776213 C44.2642566,61.4693356 44.0784216,60.7896747 44.3915685,60.2581479 C44.4910994,60.0892068 44.6342558,59.9489174 44.8066489,59.8513803 L54.4321999,54.4054065 C57.2390967,52.8172883 58.9682165,49.8823253 58.9682165,46.706089 L58.9682165,31.3074543 C58.9682165,28.1312183 57.2390967,25.1962551 54.4321999,23.608137 L40.8241499,15.9088197 C38.017253,14.3207017 34.5590135,14.3207017 31.7521166,15.9088197 L18.1440666,23.608137 C15.3371697,25.1962551 13.60805,28.1312183 13.60805,31.3074543 L13.60805,65.3059613 C13.60805,65.9197157 13.100339,66.417262 12.4740458,66.417262 C12.2749888,66.417262 12.0794386,66.3659141 11.9070495,66.2683792 L6.80402498,63.3811716 C2.59367972,60.9989945 0,56.5965497 0,51.8321956 L0,26.1678044 C0,21.4034503 2.59367972,17.0010054 6.80402498,14.6188284 L29.4841083,1.78663282 C33.6944535,-0.595544272 38.881813,-0.595544272 43.0921582,1.78663282 Z" id="Shape" fill="#9635FF"></path>
            <path d="M38.5561416,22.3006947 L49.8961832,28.7167925 C51.2996316,29.5108515 52.1641915,30.9783331 52.1641915,32.5664512 L52.1641915,45.3986467 C52.1641915,46.9867649 51.2996316,48.4542464 49.8961832,49.2483054 L38.5561416,55.6644032 C37.1526932,56.4584622 35.4235733,56.4584622 34.0201249,55.6644032 L22.6800833,49.2483054 C21.2766349,48.4542464 20.4120749,46.9867649 20.4120749,45.3986467 L20.4120749,32.5664512 C20.4120749,30.9783331 21.2766349,29.5108515 22.6800833,28.7167925 L34.0201249,22.3006947 C35.4235733,21.5066357 37.1526932,21.5066357 38.5561416,22.3006947 Z" id="Polygon" fill="#9635FF" opacity="0.600000024"></path>
            <path d="M215.801141,13.1834274 L233.835815,38.7044418 C234.214632,39.2019015 234.926032,39.298868 235.424771,38.9210226 C235.707079,38.7071459 235.872866,38.3738919 235.872866,38.0202923 L235.872866,13.8675769 C235.872866,13.2428904 236.380577,12.736482 237.00687,12.736482 L248.346912,12.736482 C248.973205,12.736482 249.480916,13.2428904 249.480916,13.8675769 L249.480916,64.2012998 C249.480916,64.8259862 248.973205,65.3323947 248.346912,65.3323947 L236.43556,65.3323947 C236.081052,65.3323947 235.746942,65.167034 235.532516,64.8854516 L217.497841,39.3645598 C217.119023,38.8671012 216.407622,38.7701364 215.908884,39.147983 C215.626577,39.3618599 215.460791,39.695113 215.460791,40.0487116 L215.460791,64.2012998 C215.460791,64.8259862 214.95308,65.3323947 214.326787,65.3323947 L202.986745,65.3323947 C202.360452,65.3323947 201.852741,64.8259862 201.852741,64.2012998 L201.852741,13.8675769 C201.852741,13.2428904 202.360452,12.736482 202.986745,12.736482 L214.898094,12.736482 C215.252604,12.736482 215.586715,12.9018437 215.801141,13.1834274 Z M161.028591,50.628161 C161.028591,51.2528475 161.536302,51.7592559 162.162595,51.7592559 L180.306662,51.7592559 C180.932956,51.7592559 181.440666,51.2528475 181.440666,50.628161 L181.440666,13.8675769 C181.440666,13.2428904 181.948377,12.736482 182.57467,12.736482 L193.914712,12.736482 C194.541005,12.736482 195.048716,13.2428904 195.048716,13.8675769 L195.048716,51.7592559 C195.048716,59.2554935 188.956185,65.3323947 181.440666,65.3323947 L161.028591,65.3323947 C153.513072,65.3323947 147.420541,59.2554935 147.420541,51.7592559 L147.420541,13.8675769 C147.420541,13.2428904 147.928252,12.736482 148.554545,12.736482 L159.894587,12.736482 C160.520881,12.736482 161.028591,13.2428904 161.028591,13.8675769 L161.028591,50.628161 Z M295.975087,32.247869 C296.60138,32.247869 297.109091,32.7542774 297.109091,33.3789639 L297.109091,44.6899128 C297.109091,45.3145993 296.60138,45.8210077 295.975087,45.8210077 L271.026995,45.8210077 C270.400702,45.8210077 269.892991,46.3274162 269.892991,46.9521026 L269.892991,50.628161 C269.892991,51.2528475 270.400702,51.7592559 271.026995,51.7592559 L295.975087,51.7592559 C296.60138,51.7592559 297.109091,52.2656644 297.109091,52.8903508 L297.109091,64.2012998 C297.109091,64.8259862 296.60138,65.3323947 295.975087,65.3323947 L257.418945,65.3323947 C256.792652,65.3323947 256.284941,64.8259862 256.284941,64.2012998 L256.284941,33.3789639 L256.284941,32.247869 L295.975087,32.247869 Z M257.418945,12.736482 L295.975087,12.736482 C296.60138,12.736482 297.109091,13.2428904 297.109091,13.8675769 L297.109091,25.1785259 C297.109091,25.8032123 296.60138,26.3096208 295.975087,26.3096208 L271.311173,26.3096208 C270.527933,26.3096208 269.892991,26.9445624 269.892991,27.7278026 L269.892991,30.8296871 C269.892991,31.6129273 270.527933,32.247869 271.311173,32.247869 L272.564757,32.247869 L256.284941,32.247869 L256.284941,13.8675769 C256.284941,13.2428904 256.792652,12.736482 257.418945,12.736482 Z M127.008466,12.736482 C134.523985,12.736482 140.616516,18.8133832 140.616516,26.3096208 L140.616516,34.227285 C140.616516,38.2717497 138.843008,41.9030521 136.029369,44.3896959 C135.254529,45.0744857 133.932017,45.889164 132.061833,46.8337307 L133.447467,47.6315485 C137.833242,50.1571816 140.534993,54.8247439 140.534993,59.87601 L140.534993,64.2012998 C140.534993,64.8259862 140.027281,65.3323947 139.400989,65.3323947 L128.060947,65.3323947 C127.434658,65.3323947 126.926948,64.8259821 126.926943,64.2012998 L126.926895,60.20254 C126.92689,59.7984418 126.710751,59.4250411 126.359891,59.2229926 L108.297396,48.8214021 C107.75501,48.5090598 107.061464,48.6944194 106.748318,49.2354143 C106.648789,49.407362 106.596391,49.6024121 106.596391,49.8009599 L106.596391,64.2012998 C106.596391,64.8259862 106.08868,65.3323947 105.462387,65.3323947 L94.1223456,65.3323947 C93.4960524,65.3323947 92.9883414,64.8259862 92.9883414,64.2012998 L92.9883414,13.8675769 C92.9883414,13.2428904 93.4960524,12.736482 94.1223456,12.736482 L127.008466,12.736482 Z M122.47245,26.3096208 L107.730396,26.3096208 C107.104102,26.3096208 106.596391,26.8160292 106.596391,27.4407157 L106.596391,36.4894748 C106.596391,37.1141613 107.104102,37.6205697 107.730396,37.6205697 L122.47245,37.6205697 C124.977622,37.6205697 127.008466,35.594936 127.008466,33.0961901 L127.008466,30.8340003 C127.008466,28.3352545 124.977622,26.3096208 122.47245,26.3096208 Z" id="Shape" fill="#140825"></path>
        </g>
    </g>
</svg>