<?xml version="1.0" encoding="UTF-8"?>
<svg width="256px" height="256px" viewBox="0 0 256 256" version="1.1" xmlns="http://www.w3.org/2000/svg" xmlns:xlink="http://www.w3.org/1999/xlink">
    <title>rune-1</title>
    <g id="1" stroke="none" stroke-width="1" fill="none" fill-rule="evenodd">
        <g id="symbol" transform="translate(79, 75)" fill="#9635FF">
            <path d="M29.9313498,77.4466614 L42.9783465,84.9023158 C43.1727481,85.0134056 43.369458,85.1188112 43.5682398,85.2185325 L65.245162,97.6056562 C65.9793135,98.0251819 66.2308535,98.9543344 65.8069922,99.6809765 C65.6722738,99.9119296 65.4785072,100.103715 65.2451679,100.237056 L58.3277559,104.190003 C52.6288073,107.446637 45.6074131,107.446637 39.9084646,104.190003 L28.3964045,97.611463 C27.9214938,97.3400764 27.628937,96.838535 27.628937,96.2957639 L27.628937,78.7623614 C27.628937,77.9233081 28.3161535,77.243121 29.163878,77.243121 C29.4333169,77.243121 29.6980089,77.3133197 29.9313498,77.4466614 Z M58.3277559,2.44247545 L89.0265748,19.9851526 C94.7255234,23.2417866 98.2362205,29.2602943 98.2362205,35.7735621 L98.2362205,70.8589165 C98.2362205,77.3721844 94.7255234,83.3906921 89.0265748,86.647326 L77.524685,93.2199513 C77.0497734,93.4913342 76.4646599,93.4913328 75.9897496,93.2199476 L60.6484104,84.4532143 C59.9142596,84.0336874 59.6627212,83.1045345 60.0865837,82.3778931 C60.2213045,82.1469368 60.4150752,81.9551494 60.6484192,81.8218082 L73.6771654,74.3767095 C77.4764644,72.2056202 79.8169291,68.1932818 79.8169291,63.8511032 L79.8169291,42.7998905 C79.8169291,38.457712 77.4764644,34.4453735 73.6771654,32.2742842 L55.257874,21.7486779 C51.458575,19.5775886 46.7776455,19.5775886 42.9783465,21.7486779 L24.5590551,32.2742842 C20.7597561,34.4453735 18.4192913,38.457712 18.4192913,42.7998905 L18.4192913,89.2786733 C18.4192913,90.1177266 17.7320749,90.7979137 16.8843504,90.7979137 C16.6149151,90.7979137 16.3502265,90.7277169 16.1168878,90.5943786 L9.20964567,86.647326 C3.5106971,83.3906921 0,77.3721844 0,70.8589165 L0,35.7735621 C0,29.2602943 3.5106971,23.2417866 9.20964567,19.9851526 L39.9084646,2.44247545 C45.6074131,-0.814158482 52.6288073,-0.814158482 58.3277559,2.44247545 Z" id="Shape"></path>
            <path d="M52.1879921,30.486902 L67.5374016,39.2582406 C69.4370511,40.3437852 70.6072835,42.3499545 70.6072835,44.5210437 L70.6072835,62.0637209 C70.6072835,64.2348102 69.4370511,66.2409794 67.5374016,67.3265241 L52.1879921,76.0978627 C50.2883426,77.1834073 47.9478779,77.1834073 46.0482283,76.0978627 L30.6988189,67.3265241 C28.7991694,66.2409794 27.628937,64.2348102 27.628937,62.0637209 L27.628937,44.5210437 C27.628937,42.3499545 28.7991694,40.3437852 30.6988189,39.2582406 L46.0482283,30.486902 C47.9478779,29.4013573 50.2883426,29.4013573 52.1879921,30.486902 Z" id="Polygon" opacity="0.600000024"></path>
        </g>
    </g>
</svg>