<?xml version="1.0" encoding="UTF-8"?>
<svg width="100px" height="100px" viewBox="0 0 100 100" version="1.1" xmlns="http://www.w3.org/2000/svg" xmlns:xlink="http://www.w3.org/1999/xlink">
    <title>rune-avatar-4</title>
    <g id="avatar-4" stroke="none" stroke-width="1" fill="none" fill-rule="evenodd">
        <rect id="Rectangle" fill="#9635FF" x="0" y="0" width="100" height="100" rx="50"></rect>
        <g id="symbol" transform="translate(20, 17)" fill="#FFFFFF">
            <path d="M18.5859383,48.483633 L26.6875,53.1510674 C26.8082141,53.2206126 26.9303616,53.2865992 27.0537956,53.3490274 L40.5141287,61.1036904 C40.9700018,61.3663244 41.126196,61.9479982 40.8629985,62.4028951 C40.7793447,62.5474777 40.659025,62.6675404 40.5141324,62.7510157 L36.21875,65.2256636 C32.6799752,67.2644015 28.3200248,67.2644015 24.78125,65.2256636 L17.6328106,61.1073256 C17.3379138,60.9374305 17.15625,60.6234525 17.15625,60.2836636 L17.15625,49.3072956 C17.15625,48.7820263 17.5829786,48.3562114 18.109375,48.3562114 C18.2766837,48.3562114 18.4410448,48.4001576 18.5859383,48.483633 Z M36.21875,1.52905343 L55.28125,12.5112276 C58.8200248,14.5499655 61,18.3177085 61,22.3951843 L61,44.3595326 C61,48.4370085 58.8200248,52.2047515 55.28125,54.2434894 L48.1391259,58.3581245 C47.8442285,58.5280173 47.480901,58.5280164 47.1860044,58.3581222 L37.6597656,52.8699182 C37.203893,52.6072834 37.0476997,52.0256094 37.310898,51.5707129 C37.3945532,51.4261282 37.5148755,51.3060643 37.6597711,51.2225892 L45.75,46.561763 C48.1091832,45.2026043 49.5625,42.6907757 49.5625,39.9724585 L49.5625,26.7938495 C49.5625,24.0755323 48.1091832,21.5637036 45.75,20.204545 L34.3125,13.6152405 C31.9533168,12.2560819 29.0466832,12.2560819 26.6875,13.6152405 L15.25,20.204545 C12.8908168,21.5637036 11.4375,24.0755323 11.4375,26.7938495 L11.4375,55.8907816 C11.4375,56.4160508 11.0107714,56.8418657 10.484375,56.8418657 C10.3170685,56.8418657 10.1527096,56.7979207 10.0078174,56.7144474 L5.71875,54.2434894 C2.17997518,52.2047515 0,48.4370085 0,44.3595326 L0,22.3951843 C0,18.3177085 2.17997518,14.5499655 5.71875,12.5112276 L24.78125,1.52905343 C28.3200248,-0.509684476 32.6799752,-0.509684476 36.21875,1.52905343 Z" id="Shape" opacity="0.600000024"></path>
            <path d="M32.40625,19.085597 L41.9375,24.5766841 C43.1170916,25.2562634 43.84375,26.5121777 43.84375,27.8713363 L43.84375,38.8535105 C43.84375,40.2126691 43.1170916,41.4685834 41.9375,42.1481627 L32.40625,47.6392498 C31.2266584,48.3188291 29.7733416,48.3188291 28.59375,47.6392498 L19.0625,42.1481627 C17.8829084,41.4685834 17.15625,40.2126691 17.15625,38.8535105 L17.15625,27.8713363 C17.15625,26.5121777 17.8829084,25.2562634 19.0625,24.5766841 L28.59375,19.085597 C29.7733416,18.4060177 31.2266584,18.4060177 32.40625,19.085597 Z" id="Polygon"></path>
        </g>
    </g>
</svg>