<?xml version="1.0" encoding="UTF-8"?>
<svg width="256px" height="256px" viewBox="0 0 256 256" version="1.1" xmlns="http://www.w3.org/2000/svg" xmlns:xlink="http://www.w3.org/1999/xlink">
    <title>serenity-1</title>
    <defs>
        <linearGradient x1="50%" y1="0%" x2="50%" y2="100%" id="linearGradient-1">
            <stop stop-color="#8CADFF" offset="0.0655594406%"></stop>
            <stop stop-color="#FF8686" offset="100%"></stop>
        </linearGradient>
    </defs>
    <g id="1" stroke="none" stroke-width="1" fill="none" fill-rule="evenodd">
        <g id="serenity-logomark-1" transform="translate(79, 89)" fill-rule="nonzero">
            <path d="M21.7777778,43.5555556 C21.7777778,47.4276751 22.5862213,51.1109724 24.0435247,54.4458638 L0,54.4444444 L0,43.5555556 L21.7777778,43.5555556 Z M98,43.5555556 L98,54.4444444 L73.9564753,54.4458638 C75.4137787,51.1109724 76.2222222,47.4276751 76.2222222,43.5555556 L98,43.5555556 Z M24.0429314,32.6666667 L0,32.6666667 L0,21.7777778 L32.6645982,21.777338 C28.9278835,24.5846468 25.9371371,28.3312599 24.0429314,32.6666667 Z M98,21.7777778 L98,32.6666667 L73.9570686,32.6666667 C72.0628629,28.3312599 69.0721165,24.5846468 65.3354018,21.777338 L98,21.7777778 Z M98,0 L98,10.8888889 L0,10.8888889 L0,0 L98,0 Z" id="Shape" fill="url(#linearGradient-1)"></path>
            <polygon id="Path" fill="#FF6B6B" points="49 37.0886763 97.9996683 65.3222041 97.9996683 77.9832596 49 49.6635251 0 77.9288152 0 65.3548707"></polygon>
        </g>
    </g>
</svg>