<?xml version="1.0" encoding="UTF-8"?>
<svg width="1256px" height="620px" viewBox="0 0 1256 620" version="1.1" xmlns="http://www.w3.org/2000/svg" xmlns:xlink="http://www.w3.org/1999/xlink">
    <title>serenity-preview</title>
    <defs>
        <linearGradient x1="50%" y1="0%" x2="50%" y2="100%" id="linearGradient-1">
            <stop stop-color="#8CADFF" offset="0.0655594406%"></stop>
            <stop stop-color="#FF8686" offset="100%"></stop>
        </linearGradient>
    </defs>
    <g id="serenity-preview" stroke="none" fill="none" fill-rule="evenodd" stroke-width="1">
        <g id="serenity-full-logo-1" transform="translate(387, 256)">
            <g transform="translate(28.8, 27.9)">
                <g id="logomark" transform="translate(0, 0.9)">
                    <path d="M14.4,28.8 C14.4,31.3603402 14.9345626,33.7958266 15.8981674,36.0009385 L0,36 L0,28.8 L14.4,28.8 Z M64.8,28.8 L64.8,36 L48.9018326,36.0009385 C49.8654373,33.7958266 50.4,31.3603402 50.4,28.8 L64.8,28.8 Z M15.897775,21.6 L0,21.6 L0,14.4 L21.5986323,14.3997092 C19.127825,16.2559705 17.1502702,18.7333229 15.897775,21.6 Z M64.8,14.4 L64.8,21.6 L48.9022249,21.6 C47.6497298,18.7333229 45.672175,16.2559705 43.2013677,14.3997092 L64.8,14.4 Z M64.8,0 L64.8,7.2 L0,7.2 L0,0 L64.8,0 Z" id="Shape" fill="url(#linearGradient-1)" fill-rule="nonzero"></path>
                    <polygon id="Path" fill="#FF6B6B" points="32.4 24.5239411 64.7997807 43.1926411 64.7997807 51.5644411 32.4 32.838739 0 51.5284411 0 43.2142411"></polygon>
                </g>
                <g id="wordmark" transform="translate(87.3, 0)" fill="#313359" fill-rule="nonzero">
                    <path d="M218.0403,51.2994543 L195.3,11.9115 L195.3,51.3 L188.1,51.3 L188.1,0.9 L197.2557,0.89945435 L219.6,39.6 L219.6,0.9 L226.8,0.9 L226.8,51.3 L218.0403,51.2994543 Z M238.5,0.9 L245.7,0.9 L245.7,51.3 L238.5,51.3 L238.5,0.9 Z M293.4,0.9 L293.4,8.1 L278.1,8.1 L278.1,51.3 L270.9,51.3 L270.9,8.1 L255.6,8.1 L255.6,0.9 L293.4,0.9 Z M47.7,51.3 L47.7,0.9 L81.9,0.9 L81.9,8.1 L54.9,8.1 L54.9,22.4991 L78.3,22.5 L78.3,29.7 L54.9,29.6991 L54.9,44.1 L81.9,44.1 L81.9,51.3 L47.7,51.3 Z M142.2,0.9 L176.4,0.9 L176.4,8.1 L149.4,8.1 L149.4,22.4991 L172.8,22.5 L172.8,29.7 L149.4,29.6991 L149.4,44.1 L142.2,44.1 L142.2,0.9 Z M307.677716,0.9 L319.288163,21.0969022 L330.980344,0.9 L339.352633,0.9 L322.9578,29.2338 L322.959365,51.3 L315.759365,51.3 L315.7587,29.3373 L299.390419,0.9 L307.677716,0.9 Z M18.9,29.7 C6.3,27.3 0,22.2 0,14.4 C0,8.1 4.5,0 18.9,0 C34.2,0 37.8,11.7 37.8,15.3 L30.6,15.3 C30.6,11.7 27,7.2 18.9,7.2 C11.7,7.2 7.2,9.9 7.2,14.4 C7.2,18 11.1,20.7 18.9,22.5 C31.35,24.8714285 37.6491072,29.8789541 37.7973214,37.5225765 L37.8,37.8 C37.8,44.1 33.3,52.2 18.9,52.2 C3.6,52.2 0,40.5 0,36.9 L7.2,36.9 C7.2,40.5 10.8,45 18.9,45 C26.1,45 30.6,42.3 30.6,37.8 C30.6,34.2620689 26.8333234,31.5933709 19.2999703,29.7939061 L18.9,29.7 Z M113.4,0.9 C123.341126,0.9 131.4,8.9588745 131.4,18.9 C131.4,27.4611722 124.459799,34.4013736 115.898627,34.4013736 C115.375238,34.4013736 114.852344,34.3748661 114.33195,34.3220008 L131.4,44.1756 L131.4,52.4889 L100.8,34.821 L100.8,51.3 L93.6,51.3 L93.6,0.9 L113.4,0.9 Z M112.5,8.1 L100.8,8.1 L100.8,29.6991 L112.5,29.7 C118.464675,29.7 123.3,24.8646753 123.3,18.9 C123.3,12.9353247 118.464675,8.1 112.5,8.1 Z M142.2,44.1 L176.4,44.1 L176.4,51.3 L142.2,51.3 L142.2,44.1 Z" id="Shape"></path>
                </g>
            </g>
        </g>
    </g>
</svg>