<?xml version="1.0" encoding="UTF-8"?>
<svg width="100px" height="100px" viewBox="0 0 100 100" version="1.1" xmlns="http://www.w3.org/2000/svg" xmlns:xlink="http://www.w3.org/1999/xlink">
    <title>serenity-avatar-2</title>
    <defs>
        <linearGradient x1="50%" y1="0%" x2="50%" y2="100%" id="linearGradient-1">
            <stop stop-color="#8CADFF" offset="0.0655594406%"></stop>
            <stop stop-color="#F6EACE" offset="100%"></stop>
        </linearGradient>
    </defs>
    <g id="avatar-2" stroke="none" stroke-width="1" fill="none" fill-rule="evenodd">
        <rect id="Rectangle" fill="url(#linearGradient-1)" x="0" y="0" width="100" height="100" rx="50"></rect>
        <g id="serenity-logomark-1" transform="translate(21, 29)" fill="#313359" fill-rule="nonzero">
            <path d="M12.6666667,25.3387715 C12.6666667,27.5914062 13.1368838,29.734192 13.9844991,31.6742902 L0,31.6734644 L0,25.3387715 L12.6666667,25.3387715 Z M57,25.3387715 L57,31.6734644 L43.0155009,31.6742902 C43.8631162,29.734192 44.3333333,27.5914062 44.3333333,25.3387715 L57,25.3387715 Z M13.984154,19.0040787 L0,19.0040787 L0,12.6693858 L18.9987969,12.6691299 C16.8254016,14.3023029 15.0858858,16.4819232 13.984154,19.0040787 Z M57,12.6693858 L57,19.0040787 L43.015846,19.0040787 C41.9141142,16.4819232 40.1745984,14.3023029 38.0012031,12.6691299 L57,12.6693858 Z M57,0 L57,6.33469289 L0,6.33469289 L0,0 L57,0 Z" id="Shape"></path>
            <polygon id="Path" points="28.5 21.576616 56.9998071 38.0016828 56.9998071 45.3673469 28.5 28.8921287 0 45.3356735 0 38.0206869"></polygon>
        </g>
    </g>
</svg>