<?xml version="1.0" encoding="UTF-8"?>
<svg width="1256px" height="620px" viewBox="0 0 1256 620" version="1.1" xmlns="http://www.w3.org/2000/svg" xmlns:xlink="http://www.w3.org/1999/xlink">
    <title>studypaths-preview</title>
    <defs>
        <linearGradient x1="50%" y1="1.08940634e-13%" x2="50%" y2="100%" id="linearGradient-1">
            <stop stop-color="#FFB300" offset="0%"></stop>
            <stop stop-color="#FF3C7D" offset="47.923951%"></stop>
            <stop stop-color="#008CFF" offset="100%"></stop>
        </linearGradient>
    </defs>
    <g id="studypaths-preview" stroke="none" fill="none" fill-rule="evenodd" stroke-width="1">
        <g id="studypaths-full-logo-gradient-black" transform="translate(382, 257)">
            <g transform="translate(15.8312, 11.013)">
                <g id="studypaths-wordmark" transform="translate(77.7792, 11.013)" fill="#161820" fill-rule="nonzero">
                    <path d="M19.961039,0 C36.4805195,0 39.9220779,13.0779221 39.9220779,15.8311688 L31.6623377,15.8311688 C31.6623377,13.0779221 28.2207792,6.88311688 19.961039,6.88311688 C14.4545455,6.88311688 9.63636364,10.3246753 9.63636364,15.8311688 C9.63636364,21.3376623 13.8028519,24.87072 19.961039,26.1558442 L20.3167179,26.2271806 C32.0022292,28.6290938 38.5454545,35.7547866 38.5454545,44.7402597 C38.5454545,52.1309693 33.038961,60.5714286 19.961039,60.5714286 C3.44155844,60.5714286 0,47.4935065 0,44.7402597 L8.25974026,44.7402597 C8.25974026,47.4935065 11.7012987,53.6883117 19.961039,53.6883117 C25.4675325,53.6883117 30.2857143,50.2467532 30.2857143,44.7402597 C30.2857143,39.2337662 26.119226,35.7007086 19.961039,34.4155844 L19.60536,34.344248 C7.91984871,31.9423347 1.37662338,24.8166419 1.37662338,15.8311688 C1.37662338,8.44045952 6.88311688,0 19.961039,0 Z M366.87013,42.6753247 L366.609533,42.6309355 C358.45183,41.2112991 351.038961,37.0818865 351.038961,28.9090909 C351.038961,24.0909091 355.168831,16.5194805 366.87013,16.5194805 C379.25974,16.5194805 383.38961,26.8441558 383.38961,29.5974026 L375.12987,29.5974026 L375.057655,29.3878533 C374.302453,27.2660959 372.196083,23.4025974 366.87013,23.4025974 C362.051948,23.4025974 359.298701,26.1558442 359.298701,28.9090909 C359.298701,32.2254285 362.051948,33.7272727 366.87013,34.4155844 C375.12987,35.7922078 382.701299,39.9220779 382.701299,48.1818182 C382.701299,53 378.571429,60.5714286 366.87013,60.5714286 C354.480519,60.5714286 350.350649,50.2467532 350.350649,47.4935065 L358.61039,47.4935065 L358.682605,47.7030558 C359.437806,49.8248132 361.544177,53.6883117 366.87013,53.6883117 C371.688312,53.6883117 374.441558,50.9350649 374.441558,48.1818182 C374.441558,44.8654806 371.688312,43.3636364 366.87013,42.6753247 Z M57.1298701,5.50649351 L57.1298701,17.2077922 L66.7662338,17.2077922 L66.7662338,23.4025974 L57.1298701,23.4025974 L57.1298701,48.1818182 C57.1298701,51.6233766 58.3645533,53.6883117 61.2597403,53.6883117 C63.0952383,53.6883117 64.9307357,53.4588747 66.7662338,53 L66.7662338,59.8831169 C65.8484851,60.3419916 64.012987,60.5714286 61.2597403,60.5714286 C51.8626378,60.5714286 48.9293205,53.8266623 48.8710203,48.3490945 L48.8701299,23.4025974 L43.3636364,23.4025974 L43.3636364,17.2077922 L48.8701299,17.2077922 L48.8701299,5.50649351 L57.1298701,5.50649351 Z M294.597403,5.50649351 L294.597403,17.2077922 L304.233766,17.2077922 L304.233766,23.4025974 L294.597403,23.4025974 L294.597403,48.1818182 C294.597403,51.6233766 295.832086,53.6883117 298.727273,53.6883117 C300.562771,53.6883117 302.398268,53.4588747 304.233766,53 L304.233766,59.8831169 C303.316018,60.3419916 301.480519,60.5714286 298.727273,60.5714286 C289.33017,60.5714286 286.396853,53.8266623 286.338553,48.3490945 L286.337662,23.4025974 L280.831169,23.4025974 L280.831169,17.2077922 L286.337662,17.2077922 L286.337662,5.50649351 L294.597403,5.50649351 Z M72.2727273,17.2077922 L80.5324675,17.2077922 L80.5324675,37.8571429 C80.5324675,49.4554153 84.4525912,53.6883117 90.1688312,53.6883117 C95.8850711,53.6883117 99.8051948,49.4554153 99.8051948,37.8571429 L99.8051948,17.2077922 L108.064935,17.2077922 L108.064935,59.8831169 L99.8051948,59.8831169 L99.8060325,55.101004 C97.0109777,58.9538768 92.9503882,60.5714286 88.1038961,60.5714286 C78.71293,60.5714286 72.2727273,54.4981427 72.2727273,37.8571429 L72.2727273,17.2077922 Z M318,0.688311688 L318.000156,21.8228069 C320.795179,18.087644 324.855381,16.5194805 329.701299,16.5194805 C339.092265,16.5194805 345.532468,22.4087276 345.532468,38.5454545 L345.532468,59.8831169 L337.272727,59.8831169 L337.272727,38.5454545 L337.271554,38.2147451 C337.194935,27.4815342 333.374609,23.4842987 327.809049,23.4038401 L327.636364,23.4025974 C321.977286,23.4025974 318.078582,27.3708825 318.001174,38.2147451 L318,59.8831169 L309.74026,59.8831169 L309.74026,0.688311688 L318,0.688311688 Z M131.638479,23.403815 L131.467532,23.4025974 C125.808455,23.4025974 121.909751,27.3708825 121.832342,38.2147451 L121.832342,38.876164 C121.909751,49.7200266 125.808455,53.6883117 131.467532,53.6883117 C137.183772,53.6883117 141.103896,49.6394543 141.103896,38.5454545 C141.103896,27.5623948 137.261783,23.4842791 131.638479,23.403815 L131.638479,23.403815 Z M129.402597,16.5194805 C134.249114,16.5194805 138.309719,18.0880311 141.104776,21.8241901 L141.103896,0.688311688 L149.363636,0.688311688 L149.363636,59.8831169 L141.103896,59.8831169 L141.104776,55.2667191 C138.309719,59.0028777 134.249114,60.5714286 129.402597,60.5714286 C120.011631,60.5714286 113.571429,54.6821815 113.571429,38.5454545 C113.571429,22.4087276 120.011631,16.5194805 129.402597,16.5194805 Z M218.194805,60.5714286 C213.348887,60.5714286 209.288686,59.0032653 206.493662,55.268102 L206.493506,76.4025974 L198.233766,76.4025974 L198.233766,17.2077922 L206.493506,17.2077922 L206.493662,21.8228069 C209.288686,18.087644 213.348887,16.5194805 218.194805,16.5194805 C227.585771,16.5194805 234.025974,22.4087276 234.025974,38.5454545 C234.025974,54.6821815 227.585771,60.5714286 218.194805,60.5714286 Z M225.76506,38.2147451 C225.688441,27.4815342 221.868115,23.4842987 216.302555,23.4038401 L216.12987,23.4025974 C210.470792,23.4025974 206.572088,27.3708825 206.49468,38.2147451 L206.493506,38.5454545 C206.493506,49.6394543 210.41363,53.6883117 216.12987,53.6883117 C221.84611,53.6883117 225.766234,49.6394543 225.766234,38.5454545 L225.76506,38.2147451 Z M153.493506,17.2077922 L162.441558,17.2077922 L173.454545,48.1818182 L184.467532,17.2077922 L193.415584,17.2077922 L172.077922,76.4025974 L163.12987,76.4025974 L169.324675,59.8831169 L153.493506,17.2077922 Z M255.363636,16.5194805 C260.210153,16.5194805 264.270758,18.0880311 267.065815,21.8241901 L267.064935,17.2077922 L275.324675,17.2077922 L275.324675,59.8831169 L267.064935,59.8831169 L267.065815,55.2667191 C264.270758,59.0028777 260.210153,60.5714286 255.363636,60.5714286 C245.97267,60.5714286 239.532468,54.6821815 239.532468,38.5454545 C239.532468,22.4087276 245.97267,16.5194805 255.363636,16.5194805 Z M257.599518,23.403815 L257.428571,23.4025974 C251.769494,23.4025974 247.87079,27.3708825 247.793381,38.2147451 L247.793381,38.876164 C247.87079,49.7200266 251.769494,53.6883117 257.428571,53.6883117 C263.144811,53.6883117 267.064935,49.6394543 267.064935,38.5454545 C267.064935,27.5623948 263.222822,23.4842791 257.599518,23.403815 L257.599518,23.403815 Z" id="Shape"></path>
                </g>
                <g id="studypaths-symbol-black" fill="url(#linearGradient-1)" fill-rule="nonzero">
                    <path d="M30.2857143,71.5844156 L29.7848846,71.580358 C20.576205,71.4310535 12.3666232,67.1717581 6.9105459,60.5568784 C10.3087545,70.1885622 19.4911697,77.0909091 30.2857143,77.0909091 C43.9712724,77.0905367 55.0649351,65.9966442 55.0649351,52.3116883 L60.5714286,52.3116883 C60.5714286,69.0380265 47.0120524,82.5974026 30.2857143,82.5974026 C13.5590036,82.5974026 0,69.0377966 0,52.3116883 L0,30.2857143 C0,13.7266395 13.2895445,0.271504201 29.7848846,0.00405739091 L30.2857143,0 L30.786544,0.00405739091 C47.1169305,0.268829766 60.3053169,13.4588556 60.5674515,29.7898833 L60.5707403,30.2857143 L60.5714286,52.3116883 L55.0649351,52.3116883 L55.0616153,51.9019185 C54.8427955,38.4057313 43.8340478,27.5324675 30.2857143,27.5324675 C28.7651381,27.5324675 27.5324675,28.7651381 27.5324675,30.2857143 L27.535837,30.423129 C27.6051295,31.8328743 28.7347312,32.963871 30.143895,33.0353716 L30.2857143,33.038961 C40.9297476,33.038961 49.5584416,41.6676549 49.5584416,52.3116883 C49.5584416,62.9557217 40.9297476,71.5844156 30.2857143,71.5844156 Z M30.2857143,38.5454545 C25.7239857,38.5454545 22.025974,34.8474429 22.025974,30.2857143 C22.025974,25.7941662 25.611076,22.1399634 30.0757966,22.0285895 L30.2857143,22.025974 L30.786544,22.0300314 C39.9952234,22.1793361 48.2048057,26.4386318 53.6608825,33.0535115 C50.2626739,23.4218276 41.0802587,16.5194805 30.2857143,16.5194805 C22.6828333,16.5194805 16.5194805,22.6828333 16.5194805,30.2857143 L16.5214815,30.5228304 C16.6466935,37.9366116 22.6326227,43.9233656 30.0460808,44.0499043 L30.2857143,44.0519481 C34.8474429,44.0519481 38.5454545,47.7499597 38.5454545,52.3116883 C38.5454545,56.8032366 34.9603526,60.4574393 30.495632,60.568813 L30.2857143,60.5714286 C20.8745346,60.5714286 12.4659585,56.2787727 6.91115471,49.5446292 C10.3091931,59.1759048 19.4914274,66.0779221 30.2857143,66.0779221 L30.5228304,66.0759212 C38.0163294,65.9493627 44.0519481,59.8353728 44.0519481,52.3116883 C44.0519481,44.788004 38.0163294,38.674014 30.5228304,38.5474555 L30.2857143,38.5454545 Z M11.012987,30.2857143 C11.012987,19.7481212 19.4699699,11.1857624 29.9670045,11.015569 L30.2857143,11.012987 L30.786544,11.0170444 C39.9952234,11.1663491 48.2048057,15.4256448 53.6608825,22.0405245 C50.2626739,12.4088406 41.0802587,5.50649351 30.2857143,5.50649351 C16.6005285,5.50649351 5.50649351,16.6005285 5.50649351,30.2857143 L5.50981323,30.695484 C5.72644509,44.0567094 16.5182844,54.8472076 29.8800344,55.0616814 L30.2857143,55.0649351 C31.8062905,55.0649351 33.038961,53.8322645 33.038961,52.3116883 C33.038961,50.7911121 31.8062905,49.5584416 30.2857143,49.5584416 C19.6416809,49.5584416 11.012987,40.9297476 11.012987,30.2857143 Z" id="Shape"></path>
                </g>
            </g>
        </g>
    </g>
</svg>