<?xml version="1.0" encoding="UTF-8"?>
<svg width="100px" height="100px" viewBox="0 0 100 100" version="1.1" xmlns="http://www.w3.org/2000/svg" xmlns:xlink="http://www.w3.org/1999/xlink">
    <title>studypaths-avatar-5</title>
    <defs>
        <linearGradient x1="50%" y1="1.08940634e-13%" x2="50%" y2="100%" id="linearGradient-1">
            <stop stop-color="#FFB300" offset="0%"></stop>
            <stop stop-color="#FF3C7D" offset="47.923951%"></stop>
            <stop stop-color="#008CFF" offset="100%"></stop>
        </linearGradient>
    </defs>
    <g id="avatar-5" stroke="none" fill="none">
        <rect id="Rectangle" fill="#161820" fill-rule="evenodd" x="0" y="0" width="100" height="100" rx="50"></rect>
        <path d="M50.5,72.1818182 L50.1279213,72.1788037 C43.2865674,72.0678818 37.1874677,68.9035467 33.1340141,63.9891903 C35.6586266,71.1448044 42.480468,76.2727273 50.5,76.2727273 C60.6673368,76.2724506 68.9090909,68.0305257 68.9090909,57.8636364 L73,57.8636364 C73,70.2900432 62.9264069,80.3636364 50.5,80.3636364 C38.0733164,80.3636364 28,70.2898724 28,57.8636364 L28,41.5 C28,29.1978572 37.8731286,19.2017071 50.1279213,19.0030143 L50.5,19 L50.8720787,19.0030143 C63.0043234,19.1997202 72.8022991,28.9989139 72.9970453,41.131635 L72.9994886,41.5 L73,57.8636364 L68.9090909,57.8636364 L68.9066246,57.5592083 C68.744058,47.5325598 60.5653893,39.4545455 50.5,39.4545455 C49.3703266,39.4545455 48.4545455,40.3703266 48.4545455,41.5 L48.4570487,41.6020888 C48.5085278,42.6494231 49.3477366,43.4896683 50.3946389,43.5427878 L50.5,43.5454545 C58.4077135,43.5454545 64.8181818,49.9559229 64.8181818,57.8636364 C64.8181818,65.7713498 58.4077135,72.1818182 50.5,72.1818182 Z M50.5,47.6363636 C47.1109799,47.6363636 44.3636364,44.8890201 44.3636364,41.5 C44.3636364,38.1631187 47.0270966,35.4483219 50.344047,35.3655795 L50.5,35.3636364 L50.8720787,35.3666507 C57.7134325,35.4775728 63.8125326,38.641908 67.8659858,43.5562644 C65.3413733,36.4006502 58.5195318,31.2727273 50.5,31.2727273 C44.8516332,31.2727273 40.2727273,35.8516332 40.2727273,41.5 L40.2742139,41.6761594 C40.3672369,47.1840393 44.8143305,51.6317457 50.3219704,51.7257544 L50.5,51.7272727 C53.8890201,51.7272727 56.6363636,54.4746163 56.6363636,57.8636364 C56.6363636,61.2005178 53.9729034,63.9153146 50.655953,63.9980568 L50.5,64 C43.5082038,64 37.2612663,60.8108807 33.1344664,55.8079203 C35.6589524,62.9632312 42.4806595,68.0909091 50.5,68.0909091 L50.6761594,68.0894226 C56.2432636,67.9953991 60.7272727,63.4531661 60.7272727,57.8636364 C60.7272727,52.2741067 56.2432636,47.7318736 50.6761594,47.6378502 L50.5,47.6363636 Z M36.1818182,41.5 C36.1818182,33.6713637 42.4647182,27.3101773 50.2632227,27.1837364 L50.5,27.1818182 L50.8720787,27.1848325 C57.7134325,27.2957547 63.8125326,30.4600899 67.8659858,35.3744462 C65.3413733,28.218832 58.5195318,23.0909091 50.5,23.0909091 C40.3329398,23.0909091 32.0909091,31.3329398 32.0909091,41.5 L32.0933754,41.804428 C32.2543165,51.7308101 40.2718387,59.7473359 50.1986105,59.9066737 L50.5,59.9090909 C51.6296734,59.9090909 52.5454545,58.9933097 52.5454545,57.8636364 C52.5454545,56.733963 51.6296734,55.8181818 50.5,55.8181818 C42.5922865,55.8181818 36.1818182,49.4077135 36.1818182,41.5 Z" id="Shape" fill="url(#linearGradient-1)" fill-rule="nonzero"></path>
    </g>
</svg>