<?xml version="1.0" encoding="UTF-8"?>
<svg width="256px" height="256px" viewBox="0 0 256 256" version="1.1" xmlns="http://www.w3.org/2000/svg" xmlns:xlink="http://www.w3.org/1999/xlink">
    <title>studypaths-1</title>
    <defs>
        <linearGradient x1="50%" y1="1.08940634e-13%" x2="50%" y2="100%" id="linearGradient-1">
            <stop stop-color="#FFB300" offset="0%"></stop>
            <stop stop-color="#FF3C7D" offset="47.923951%"></stop>
            <stop stop-color="#008CFF" offset="100%"></stop>
        </linearGradient>
    </defs>
    <g id="1" stroke="none" fill="none" fill-rule="nonzero">
        <path d="M128,167.545455 L127.338527,167.540095 C115.17612,167.342901 104.333276,161.717416 97.1271361,152.980783 C101.615336,165.701875 113.743054,174.818182 128,174.818182 C146.075265,174.81769 160.727273,160.165379 160.727273,142.090909 L168,142.090909 C168,164.182299 150.09139,182.090909 128,182.090909 C105.908118,182.090909 88,164.181995 88,142.090909 L88,113 C88,91.1295239 105.552229,73.3585905 127.338527,73.0053588 L128,73 L128.661473,73.0053588 C150.229908,73.3550582 167.648532,90.775847 167.994747,112.345129 L167.999091,113 L168,142.090909 L160.727273,142.090909 L160.722888,141.549704 C160.433881,123.724551 145.894025,109.363636 128,109.363636 C125.991692,109.363636 124.363636,110.991692 124.363636,113 L124.368087,113.181491 C124.459605,115.043419 125.951532,116.537188 127.812691,116.631623 L128,116.636364 C142.058157,116.636364 153.454545,128.032752 153.454545,142.090909 C153.454545,156.149066 142.058157,167.545455 128,167.545455 Z M128,123.909091 C121.975075,123.909091 117.090909,119.024925 117.090909,113 C117.090909,107.067767 121.825949,102.241461 127.72275,102.094364 L128,102.090909 L128.661473,102.096268 C140.82388,102.293463 151.666725,107.918948 158.872864,116.655581 C154.384664,103.934489 142.256945,94.8181818 128,94.8181818 C117.958459,94.8181818 109.818182,102.958459 109.818182,113 L109.820825,113.313172 C109.986199,123.104959 117.892143,131.011992 127.683503,131.179119 L128,131.181818 C134.024925,131.181818 138.909091,136.065985 138.909091,142.090909 C138.909091,148.023143 134.174051,152.849448 128.27725,152.996545 L128,153 C115.57014,153 104.464473,147.330455 97.1279402,138.436303 C101.615915,151.156855 113.743395,160.272727 128,160.272727 L128.313172,160.270085 C138.210246,160.102932 146.181818,152.027851 146.181818,142.090909 C146.181818,132.153968 138.210246,124.078886 128.313172,123.911734 L128,123.909091 Z M102.545455,113 C102.545455,99.0824243 113.715055,87.7736485 127.579063,87.5488647 L128,87.5454545 L128.661473,87.5508134 C140.82388,87.7480083 151.666725,93.3734931 158.872864,102.110127 C154.384664,89.3890347 142.256945,80.2727273 128,80.2727273 C109.925226,80.2727273 95.2727273,94.9252264 95.2727273,113 L95.2771118,113.541205 C95.5632294,131.188107 109.816602,145.439708 127.464196,145.722975 L128,145.727273 C130.008308,145.727273 131.636364,144.099217 131.636364,142.090909 C131.636364,140.082601 130.008308,138.454545 128,138.454545 C113.941843,138.454545 102.545455,127.058157 102.545455,113 Z" id="Shape" fill="url(#linearGradient-1)"></path>
    </g>
</svg>