<?xml version="1.0" encoding="UTF-8"?>
<svg width="1256px" height="620px" viewBox="0 0 1256 620" version="1.1" xmlns="http://www.w3.org/2000/svg" xmlns:xlink="http://www.w3.org/1999/xlink">
    <title>swan-preview</title>
    <defs>
        <linearGradient x1="0%" y1="80.0817871%" x2="0%" y2="-6.10622664e-14%" id="linearGradient-1">
            <stop stop-color="#FFFFFF" stop-opacity="0" offset="0%"></stop>
            <stop stop-color="#FFFFFF" offset="100%"></stop>
        </linearGradient>
        <linearGradient x1="0%" y1="27.243042%" x2="0%" y2="100%" id="linearGradient-2">
            <stop stop-color="#FFFFFF" stop-opacity="0" offset="0%"></stop>
            <stop stop-color="#FFFFFF" offset="100%"></stop>
        </linearGradient>
    </defs>
    <g id="swan-preview" stroke="none" fill="none" fill-rule="evenodd" stroke-width="1">
        <g id="swan-full-logo-black" transform="translate(454, 264)">
            <g transform="translate(5.963, 8.5185)">
                <g id="swan-symbol-black">
                    <polygon id="Path" fill="#0C0B10" points="27.2592593 68.1481481 0 40.8888889 27.2592593 40.8888889 27.2592593 13.6296296 54.5185185 40.8888889 54.5185185 0 68.1481481 0 81.7777778 13.6296296 63.6098924 13.6296296 81.7777778 40.8888889 81.7777778 68.1481481"></polygon>
                    <polygon id="Path" fill="url(#linearGradient-1)" opacity="0.300000012" points="54.5185185 0 54.5185185 40.8888889 81.7777778 68.1481481 81.7777778 40.8888889"></polygon>
                    <polygon id="Path" fill="url(#linearGradient-2)" opacity="0.300000012" points="81.7777778 68.1481481 27.2592593 13.6296296 27.2592593 68.1481481"></polygon>
                </g>
                <g id="swan-wordmark" transform="translate(103.9259, 12.7778)" fill="#0C0B10" fill-rule="nonzero">
                    <path d="M22.1481481,0 C30.0987654,0 36.9135802,2.55555556 42.5925926,7.66666667 L34.0740741,16.1851852 C30.6666667,13.345679 26.691358,11.9259259 22.1481481,11.9259259 L21.6661967,11.9296108 C17.5735005,11.9926427 13.6296296,12.8742138 13.6296296,15.3333333 C13.6296296,17.6049383 16.1851852,19.1666667 21.2962963,20.0185185 L21.7469988,20.1011875 C35.6440613,22.6982944 42.5925926,28.4917258 42.5925926,37.4814815 C42.5925926,47.7037037 32.3703704,52.8148148 20.4444444,52.8148148 C12.4938272,52.8148148 5.67901237,50.2592593 0,45.1481481 L8.51851852,36.6296296 C11.9259259,39.4691358 15.9012346,40.8888889 20.4444444,40.8888889 L20.9263959,40.885204 C25.0190921,40.8221721 28.962963,39.940601 28.962963,37.4814815 C28.962963,35.2098765 26.4074074,33.6481481 21.2962963,32.7962963 L20.8455937,32.7136273 C6.94853128,30.1165204 0,24.3230891 0,15.3333333 C0,5.11111111 10.2222222,0 22.1481481,0 Z M149.925926,30.6666667 L149.925926,28.962963 L149.07736,29.0803714 C136.958872,30.8193784 132.888889,34.1315023 132.888889,36.6296296 C132.888889,39.1851852 135.444444,40.8888889 139.703704,40.8888889 C143.962963,40.8888889 149.925926,37.4814815 149.925926,30.6666667 Z M149.925926,45.1481481 C146.518519,50.2592593 142.259259,52.8148148 137.148148,52.8148148 C127.777778,52.8148148 119.259259,47.7037037 119.259259,37.4814815 C119.259259,26.4074074 128.62963,20.4444444 149.925926,17.8888889 L149.925926,17.037037 C149.925926,14.4814815 146.518519,11.9259259 142.259259,11.9259259 C137.71605,11.9259259 133.740741,13.345679 130.333333,16.1851852 L121.814815,7.66666667 C127.493827,2.55555556 134.308642,0 142.259259,0 C154.185185,0 163.555556,6.81481481 163.555556,17.037037 L163.555556,51.962963 L149.925926,51.962963 L149.925926,45.1481481 Z M59.6296296,51.962963 L70.7037037,51.962963 L81.7777778,20.4444444 L92.8518519,51.962963 L103.925926,51.962963 L117.555556,0.851851852 L103.925926,0.851851852 L97.1111111,30.6666667 L87.7407407,0.851851852 L75.8148148,0.851851852 L66.4444444,30.6666667 L59.6296296,0.851851852 L46,0.851851852 L59.6296296,51.962963 Z M204.429428,24.7043963 C204.439547,24.3434395 204.444444,23.9818798 204.444444,23.6206349 C204.444444,16.3284307 201.462963,11.9259259 195.78395,11.9259259 C190.104939,11.9259259 186.555556,16.7056794 186.555556,23.9978836 C186.555556,24.2336033 186.558234,24.4690629 186.563643,24.7040328 L186.555556,51.962963 L172.925926,51.962963 L172.925926,0.851851852 L186.555556,0.851851852 L186.55537,5.53340091 C189.82593,2.01844882 194.382421,0 200.076438,0 C212.546099,0 218.074074,9.68031658 218.074074,23.5590278 C218.074074,23.9416918 218.070662,24.3235522 218.063741,24.7043623 L218.074074,24.7037037 L218.074074,51.962963 L204.444444,51.962963 L204.444444,24.7037037 L204.429428,24.7043963 Z" id="Shape"></path>
                </g>
            </g>
        </g>
    </g>
</svg>