<?xml version="1.0" encoding="UTF-8"?>
<svg width="256px" height="256px" viewBox="0 0 256 256" version="1.1" xmlns="http://www.w3.org/2000/svg" xmlns:xlink="http://www.w3.org/1999/xlink">
    <title>tenzai-1</title>
    <defs>
        <radialGradient cx="50%" cy="50%" fx="50%" fy="50%" r="55.0533137%" gradientTransform="translate(0.5, 0.5), scale(1, 0.9083), rotate(-90), translate(-0.5, -0.5)" id="radialGradient-1">
            <stop stop-color="#19191A" stop-opacity="0.5" offset="0%"></stop>
            <stop stop-color="#19191A" offset="100%"></stop>
        </radialGradient>
    </defs>
    <g id="1" stroke="none" fill="none" transform="translate(0, 0)" fill-rule="evenodd" stroke-width="1">
        <g id="tenzai-symbol-black" transform="translate(79, 79)">
            <path d="M71.8453737,59.6140887 L89.8333333,77.5197278 L78.2833333,89.0166667 L60.2971179,71.1120013 L60.2977778,59.6167985 L71.8453737,59.6140887 Z M26.9672508,59.6140887 L38.5188889,59.6167985 L38.518229,71.1120013 L20.5333334,89.0166667 L8.98333333,77.5197278 L26.9672508,59.6140887 Z M57.5754167,0 L57.5754167,29.1471948 L78.2833333,8.5380946 L89.8333333,20.0350335 L71.8508184,37.9352529 L26.9699732,37.9352529 L8.98333333,20.0350335 L20.5333334,8.5380946 L41.24125,29.1471948 L41.24125,0 L57.5754167,0 Z" id="Shape" fill="url(#radialGradient-1)" fill-rule="nonzero"></path>
            <polygon id="Path" fill="#19191A" fill-rule="nonzero" points="98 40.8333333 98 57.1666667 57.1666667 57.1666667 57.1666667 98 40.8333333 98 40.8333333 57.1666667 0 57.1666667 0 40.8333333"></polygon>
        </g>
    </g>
</svg>