<?xml version="1.0" encoding="UTF-8"?>
<svg width="256px" height="256px" viewBox="0 0 256 256" version="1.1" xmlns="http://www.w3.org/2000/svg" xmlns:xlink="http://www.w3.org/1999/xlink">
    <title>tenzai-2</title>
    <defs>
        <radialGradient cx="50%" cy="50%" fx="50%" fy="50%" r="54.9327194%" gradientTransform="translate(0.5, 0.5), scale(1, 0.9041), rotate(-90), translate(-0.5, -0.5)" id="radialGradient-1">
            <stop stop-color="#00A8BF" offset="0%"></stop>
            <stop stop-color="#88FFFF" offset="100%"></stop>
        </radialGradient>
    </defs>
    <g id="2" stroke="none" fill="none" transform="translate(0, 0)" fill-rule="evenodd" stroke-width="1">
        <g id="tenzai-symbol-blue" transform="translate(79, 79)">
            <path d="M71.4358957,59.8861667 L89.4229376,77.8735269 L77.8735268,89.4229376 L59.888229,71.4365556 L59.8888889,59.8888889 L71.4358957,59.8861667 Z M26.5600624,59.8861667 L38.1111111,59.8888889 L38.1104512,71.4365556 L20.1264732,89.4229376 L8.57706236,77.8735269 L26.5600624,59.8861667 Z M57.1666667,0 L57.1666667,29.2802222 L77.8735269,8.57706236 L89.4229376,20.1264732 L71.4413401,38.1083889 L26.5627846,38.1083889 L8.57706236,20.1264732 L20.1264732,8.57706236 L40.8333333,29.2802222 L40.8333333,0 L57.1666667,0 Z" id="Shape" fill="url(#radialGradient-1)" fill-rule="nonzero"></path>
            <polygon id="Path" fill="#88FFFF" fill-rule="nonzero" points="98 40.8333333 98 57.1666667 57.1666667 57.1666667 57.1666667 98 40.8333333 98 40.8333333 57.1666667 0 57.1666667 0 40.8333333"></polygon>
        </g>
    </g>
</svg>