<?xml version="1.0" encoding="UTF-8"?>
<svg width="1256px" height="620px" viewBox="0 0 1256 620" version="1.1" xmlns="http://www.w3.org/2000/svg" xmlns:xlink="http://www.w3.org/1999/xlink">
    <title>vetric-preview</title>
    <defs>
        <radialGradient cx="75.5414676%" cy="24.1291826%" fx="75.5414676%" fy="24.1291826%" r="80.4407614%" gradientTransform="translate(0.7554, 0.2413), scale(1, 0.8647), rotate(92.6487), translate(-0.7554, -0.2413)" id="radialGradient-1">
            <stop stop-color="#0099FF" offset="0%"></stop>
            <stop stop-color="#2969FF" offset="100%"></stop>
        </radialGradient>
    </defs>
    <g id="vetric-preview" stroke="none" fill="none" fill-rule="evenodd" stroke-width="1">
        <g id="vetric-full-logo-1" transform="translate(455, 263)">
            <g transform="translate(18.7238, 4.8621)">
                <g id="vetric-logomark" transform="translate(0, 19.4551)" fill="url(#radialGradient-1)" fill-rule="nonzero">
                    <path d="M46.8444138,19.4478273 L23.4222069,54.1743445 L0,19.4478273 L12.1912909,19.4478273 C14.3462913,19.4478273 16.3604196,20.5189433 17.5655667,22.3054615 L23.4222069,30.9873849 L29.2757086,22.3064992 C30.4807585,20.5193809 32.4952407,19.4478273 34.6506842,19.4478273 L46.8444138,19.4478273 Z M9.61954656,0 L37.2184034,0 C39.8576429,0 42.2334183,1.59999604 43.2256135,4.04563164 L46.8444138,12.9655172 L0,12.9655172 L3.6108207,4.04937171 C4.55894846,1.70817383 6.77477837,0.140882014 9.27669501,0.00902156897 L9.61954656,0 Z" id="Shape"></path>
                </g>
                <g id="vetric-wordmark" transform="translate(62.3107, 0)" fill="#0E1027" fill-rule="nonzero">
                    <path d="M80.7054828,17.8275862 C95.9590324,17.8275862 106.636517,29.8001095 106.636517,44.5689655 C106.636517,45.94767 106.544914,47.3012271 106.365199,48.622964 L68.0926793,48.6213634 C69.2831933,55.1586234 73.4874612,59.9655172 80.7054828,59.9655172 C85.5978346,59.9655172 89.4641815,58.0868023 91.7617397,55.1045233 L105.459566,55.1050126 C101.661672,64.6736826 92.129918,71.3103448 80.7054828,71.3103448 C65.4519331,71.3103448 54.7744483,59.3378215 54.7744483,44.5689655 C54.7744483,29.8001095 65.4519331,17.8275862 80.7054828,17.8275862 Z M14.1907586,19.4482759 L27.2227851,52.358 L40.2546897,19.4482759 L54.4454483,19.4482759 L34.0344828,69.6896552 L20.4206897,69.6896552 L0,19.4482759 L14.1907586,19.4482759 Z M123.034655,6.48113793 L127.705483,6.48275862 L127.705483,19.4482759 L140.671,19.4482759 L140.671,30.7931034 L127.705483,30.7931034 L127.705483,51.862069 C127.705483,55.4423977 130.607913,58.3448276 134.188241,58.3448276 L140.671,58.3448276 L140.671,69.6896552 L134.188241,69.6896552 C123.447255,69.6896552 114.739966,60.9823655 114.739966,50.2413793 L114.739966,30.7931034 L106.636517,30.7931034 L123.034655,6.48113793 Z M80.7054828,29.1724138 C74.0979831,29.1724138 70.0159737,33.2005345 68.4594548,38.8967447 L92.9515107,38.8967447 C91.3949918,33.2005345 87.3129825,29.1724138 80.7054828,29.1724138 Z M224.946862,17.8275862 C236.336996,17.8275862 245.175558,24.5033594 248.922131,34.0342646 L234.934519,34.0343828 C232.777323,31.0417738 229.448104,29.1724138 224.946862,29.1724138 C216.303184,29.1724138 211.981345,36.0656848 211.981345,44.5689655 C211.981345,53.0722462 216.303184,59.9655172 224.946862,59.9655172 C229.447297,59.9655172 232.776129,58.0968284 234.933357,55.1051599 L248.921494,55.1052868 C245.174557,64.6353283 236.336351,71.3103448 224.946862,71.3103448 C209.693312,71.3103448 199.015828,59.3378215 199.015828,44.5689655 C199.015828,29.8001095 209.693312,17.8275862 224.946862,17.8275862 Z M147.153759,69.6896552 L160.119276,69.6896552 L160.119276,37.2758621 C160.119276,33.6955333 163.021706,30.7931034 166.602034,30.7931034 L173.084793,30.7931034 L173.084793,19.4482759 L166.602034,19.4482759 C155.861048,19.4482759 147.153759,28.1555656 147.153759,38.8965517 L147.153759,69.6896552 Z M179.567552,19.4482759 L192.533069,19.4482759 L192.533069,69.6896552 L179.567552,69.6896552 L179.567552,19.4482759 Z M179.567552,0 L192.533069,0 L192.533069,12.9655172 L179.567552,12.9655172 L179.567552,0 Z" id="Shape"></path>
                </g>
            </g>
        </g>
    </g>
</svg>