<?xml version="1.0" encoding="UTF-8"?>
<svg width="100px" height="100px" viewBox="0 0 100 100" version="1.1" xmlns="http://www.w3.org/2000/svg" xmlns:xlink="http://www.w3.org/1999/xlink">
    <title>yess-avatar-4</title>
    <defs>
        <path d="M34.7513463,67.7719399 C37.5635288,63.2414386 45.4199894,62.0413058 52.665442,62.0174322 C52.3311108,62.708799 51.9858285,63.3940361 51.6170335,64.0654007 C48.949148,68.8562534 44.5252186,73.8713244 38.6538092,73.4067569 C35.7395236,73.1460829 33.2549083,70.5528927 34.7513463,67.7719399 Z M69,58.2860516 C66.6875964,57.9161182 65.0029495,57.6651227 63.9460593,57.5330651 C62.8815462,57.4111161 61.8002844,57.2949742 60.7077494,57.1904465 C64.3844261,46.4995862 65.7794052,34.2833959 65.9150058,26.6996535 C65.9172604,26.6951369 65.9195151,26.6902977 65.9217697,26.685781 C65.9217697,26.685781 65.9175825,26.6835227 65.9153279,26.6825549 L65.9092081,26.6796513 C65.6505685,26.5509274 61.3049074,24.3929467 61.3049074,24.3929467 C60.9902238,24.9772049 60.3247195,26.3617641 59.4812242,27.8923662 C55.8712206,34.8411995 49.2680188,47.1067502 44.8808079,47.0415817 C41.8724715,46.774778 42.7321342,42.3100904 43.174044,40.1121053 C44.2192315,35.5803135 46.2674126,31.0840096 48.3896748,26.865801 L42.6181137,24 C41.4988451,26.325096 40.4436727,28.6950356 39.5047754,31.147565 C37.6955864,36.1190828 35.4061587,42.7543331 37.5622404,48.0742766 C39.0480494,51.8101738 43.6430095,53.7832953 47.399887,52.5108965 C50.4098338,51.5446605 52.658678,49.1456854 54.5078064,46.8157502 C55.9749341,44.8745677 57.3048507,42.8588608 58.5436153,40.7960519 C57.7918533,46.182777 56.6716184,51.6475752 54.8456806,56.7900796 C48.4428199,56.561022 41.9298038,57.1310851 36.1737032,59.8062198 C32.3665794,61.6048059 28.7816988,65.2503705 29.0103839,69.85217 C29.1798042,74.6675415 33.4900352,78.2508412 38.0357152,78.7031493 C47.8450177,79.2977313 54.4353358,71.9524024 58.7346157,62.2448767 C60.4542632,62.3745685 62.0138312,62.5426516 63.2960782,62.7097669 C64.3050841,62.8325762 65.9208034,63.0691615 68.1432361,63.4195228 L69,58.2860516 Z" id="path-1"></path>
    </defs>
    <g id="avatar-4" stroke="none" stroke-width="1" fill="none" fill-rule="evenodd">
        <rect id="Rectangle" fill="#00A6A9" fill-rule="nonzero" x="0" y="0" width="100" height="100" rx="50"></rect>
        <mask id="mask-2" fill="white">
            <use xlink:href="#path-1"></use>
        </mask>
        <use id="Mask" fill="#FFFFFF" fill-rule="nonzero" xlink:href="#path-1"></use>
    </g>
</svg>