<?xml version="1.0" encoding="UTF-8"?>
<svg width="1256px" height="620px" viewBox="0 0 1256 620" version="1.1" xmlns="http://www.w3.org/2000/svg" xmlns:xlink="http://www.w3.org/1999/xlink">
    <title>yess-preview</title>
    <g id="yess-preview" stroke="none" fill="none" fill-rule="nonzero">
        <path d="M556.057688,270 L566.677512,275.235598 C562.772494,282.941941 559.003787,291.156342 557.080614,299.435577 C556.891706,300.368482 556.66131,301.524899 556.488309,302.756734 L556.444546,303.079695 C556.42338,303.241934 556.403337,303.405236 556.384636,303.569275 L556.349089,303.898234 C555.962376,307.690302 556.363086,311.755473 560.221105,312.095197 C568.293688,312.214255 580.443753,289.806038 587.086255,277.111054 C588.638309,274.314761 589.862854,271.785278 590.44188,270.717883 C590.44188,270.717883 598.438011,274.660348 598.913915,274.895517 L598.925175,274.900821 C598.929324,274.90259 598.937028,274.906715 598.937028,274.906715 C598.93288,274.914967 598.928731,274.923808 598.924583,274.932059 C598.675074,288.786973 596.108276,311.105013 589.343094,330.636393 C591.353387,330.827357 593.342937,331.039539 595.301669,331.26233 C598.218728,331.624219 601.727851,332.14996 604.601053,332.637979 C617.45638,334.897131 630.528028,336.550384 643.55404,336.836241 C659.051433,337.112078 675.419439,335.518943 689.611801,329.400431 C695.91471,326.635578 702.496169,322.49154 705.871351,316.767333 C708.83523,311.574761 707.406333,307.308719 701.733419,305.236405 C696.416098,303.117529 691.44489,298.156589 690.484193,292.128844 C689.399037,285.962002 691.943315,279.63897 696.764581,275.810848 C701.090978,272.423004 706.037295,271.351483 711.042285,270.774465 C715.547073,270.335366 719.814204,270.391358 724.023256,270.645977 L724.023256,280.076301 C717.691899,280.624439 708.570905,280.801847 704.002703,284.513268 C701.72927,286.535483 701.063716,290.161443 703.318184,292.417648 C704.763675,294.081511 707.883422,294.821202 709.826153,296.081329 C719.658336,301.780781 721.640774,313.2233 715.806064,322.597631 C703.907285,340.944326 676.1087,345.318817 655.949465,346.167547 C638.191678,346.911363 620.468857,345.054768 603.024585,342.016436 C600.265766,341.562012 596.890583,341.056311 594.105687,340.719766 C591.746319,340.41446 588.876673,340.107385 585.712476,339.870448 C577.801688,357.605351 565.675329,371.024701 547.625954,369.938446 C539.261783,369.112114 531.330844,362.565701 531.019107,353.768388 C530.59832,345.361254 537.194595,338.701088 544.199803,335.415209 C554.791179,330.527944 566.775301,329.486483 578.556733,329.904953 C581.916506,320.509993 583.977768,310.526227 585.36103,300.685095 C583.081671,304.453688 580.634589,308.136229 577.935035,311.682621 C574.532591,315.939233 570.394658,320.321976 564.856277,322.087215 C557.943523,324.41179 549.488676,320.807048 546.754748,313.981851 C542.787501,304.262724 547.000108,292.140632 550.329063,283.058051 C552.056659,278.577469 553.998204,274.247771 556.057688,270 Z M574.545036,339.454924 C561.213213,339.498539 546.757119,341.69109 541.582629,349.967967 C538.829143,355.048554 543.400901,359.786113 548.763263,360.262344 C559.566811,361.111073 567.706958,351.948924 572.615937,343.196405 C573.29453,341.969874 573.929858,340.717998 574.545036,339.454924 Z M629.708797,270.786666 C635.014857,269.325555 641.504454,270.164854 645.704615,274.207516 C652.094645,280.228778 651.114983,289.984448 645.506668,296.067006 C639.364961,302.821476 630.341755,305.358233 621.674144,306.277689 C619.327814,306.522288 616.996893,306.621896 614.683752,306.62838 C614.532625,309.03488 614.804062,311.400123 615.75824,313.338644 C617.321077,316.44181 621.894612,317.678362 625.481374,317.195057 C629.976086,316.666959 633.839025,313.975191 636.279588,310.082825 C636.279588,310.082825 638.368556,311.197519 640.457525,312.312213 L640.848696,312.520946 C642.799454,313.561889 644.635462,314.5416 644.635462,314.5416 C639.767375,325.196687 626.721805,331.120109 615.410943,327.012025 C598.515471,320.87642 601.173539,299.537366 609.034544,287.273229 C613.701127,279.672978 620.868723,273.206133 629.708797,270.786666 Z M675.951883,270.602421 C680.571645,270.236996 684.84174,270.395543 689.056126,270.645447 L689.056126,280.075771 C682.891898,280.684026 671.148989,280.204848 667.961678,285.773454 C666.221044,288.390369 667.158035,292.157784 670.038349,293.538737 C670.619153,293.85701 670.856216,293.902983 672.4072,294.563695 C674.904657,295.674705 677.307882,297.230119 679.3727,299.359015 C685.279714,305.291278 685.871779,314.415705 680.480376,321.031077 C674.398528,328.450974 664.171636,328.374942 655.633816,328.117376 C654.073942,328.068457 650.906782,327.920518 649.348094,327.816785 L649.348094,318.386461 C653.52692,318.117697 657.661889,318.061115 661.472675,317.620837 C665.300647,317.11101 669.98501,316.736154 671.892181,313.331218 C673.938626,309.91862 670.86155,306.676946 667.613196,305.334893 C662.135265,303.471814 657.184207,298.921094 655.85784,292.935785 C654.390421,286.836723 656.589772,280.318012 661.255762,276.161597 C665.38599,272.37709 670.8414,271.046825 675.951883,270.602421 Z M637.252138,289.008998 C641.010178,284.376352 638.365741,280.220526 632.650155,281.878495 C625.626575,284.127038 620.374447,290.107631 617.328781,296.793731 C624.638615,296.069364 632.523919,294.238702 637.252138,289.008998 Z" id="Shape" fill="#000000"></path>
    </g>
</svg>