<?xml version="1.0" encoding="UTF-8"?>
<svg width="256px" height="256px" viewBox="0 0 256 256" version="1.1" xmlns="http://www.w3.org/2000/svg" xmlns:xlink="http://www.w3.org/1999/xlink">
    <title>yess-2</title>
    <g id="2" stroke="none" stroke-width="1" fill="none" fill-rule="evenodd">
        <g id="logo" transform="translate(54, 104)" fill="#FFFFFF" fill-rule="nonzero">
            <path d="M19.2129067,0 L27.355625,4.01437892 C24.361464,9.923194 21.4718192,16.2215615 19.9972324,22.56964 C19.8523877,23.2849424 19.6757319,24.1716217 19.5430842,25.1161269 L19.5095287,25.3637566 C19.4932999,25.4881526 19.477932,25.6133644 19.4635932,25.7391401 L19.4363378,25.991369 C19.1398268,28.8989254 19.4470697,32.0158835 22.405194,32.2763657 C28.5948232,32.367653 37.910849,15.1862196 43.0039672,5.45237889 C44.1939997,3.30833024 45.1329161,1.36885666 45.5768826,0.550434934 C45.5768826,0.550434934 51.7078919,3.5733079 52.0727896,3.7536228 L52.0814236,3.75769005 C52.0846045,3.7590458 52.0905119,3.76220922 52.0905119,3.76220922 C52.087331,3.76853606 52.0841501,3.77531481 52.0809692,3.78164165 C51.8896591,14.4048551 49.9215743,31.5171451 44.7343914,46.4927714 C46.2757777,46.6391926 47.8012593,46.8018827 49.3031112,46.9727073 C51.5397572,47.2501844 54.2303669,47.6532944 56.4333859,48.0274816 C66.2901693,49.7596796 76.3128153,51.0273068 86.3004711,51.2464866 C98.1830505,51.4579838 110.73317,50.2364521 121.615121,45.5451014 C126.447857,43.4251587 131.494171,40.2477301 134.082082,35.858712 C136.354627,31.877323 135.259025,28.6063476 130.909335,27.0174073 C126.832295,25.3927656 123.020636,21.58898 122.284024,16.9672246 C121.451985,12.2388168 123.402802,7.390651 127.099493,4.45544993 C130.416745,1.85783088 134.209319,1.03624573 138.04688,0.593818969 C141.500912,0.257140786 144.772723,0.300072903 148,0.495301057 L148,7.72597343 C143.145451,8.14625626 136.151956,8.28228329 132.649302,11.1280048 C130.906154,12.6785321 130.395842,15.4587256 132.124449,17.188664 C133.232774,18.4644257 135.624831,19.0315816 137.114414,19.9977802 C144.653211,24.3678178 146.173239,33.1413349 141.699493,40.3290752 C132.57614,54.3963483 111.261658,57.7504764 95.8046261,58.4012369 C82.188896,58.9715562 68.5999766,57.5480176 55.2246337,55.2183853 C53.1093174,54.8699573 50.5214062,54.4822125 48.3860954,54.2241679 C46.5770569,53.9900749 44.3767644,53.7546261 41.950626,53.5729554 C35.885053,67.1711387 26.5872039,77.4603855 12.7479001,76.6275024 C6.33469722,75.9939147 0.253673962,70.9744723 0.0146500322,64.2291588 C-0.307986832,57.7830144 4.74968683,52.6763521 10.120909,50.1569147 C18.2418152,46.4096187 27.430604,45.6110813 36.4639817,45.9319424 C39.040078,38.7283851 40.6205442,31.0733626 41.6811561,23.5277041 C39.933464,26.4172615 38.0571716,29.2408391 35.9872971,31.9600238 C33.3784827,35.2237685 30.2057354,38.5842235 25.9591981,39.937715 C20.6588652,41.7200758 14.1761363,38.9561512 12.0799055,33.7229521 C9.03803061,26.2708404 12.2680346,16.976263 14.8205012,10.0122217 C16.14513,6.57674844 17.6338037,3.25696599 19.2129067,0 Z M33.3880254,53.2543539 C23.1658899,53.2877958 12.0817232,54.9689271 8.11419857,61.3151979 C6.002972,65.2107226 9.50835336,68.8432317 13.6199285,69.2083806 C21.9035164,69.8591411 28.1449492,62.834091 31.9088945,56.1231232 C32.4292032,55.1826839 32.9163394,54.2228121 33.3880254,53.2543539 Z M75.6846732,0.603173651 C79.7530786,-0.51712865 84.728957,0.126401191 87.9494182,3.22610005 C92.8489543,7.84288436 92.0978012,15.3230149 87.7976425,19.9867986 C83.0885076,25.1657677 76.1699917,27.1108186 69.5241267,27.8158091 C67.7250854,28.0033547 65.9378589,28.0797287 64.164265,28.0846998 C64.0483884,29.929877 64.2565119,31.74342 64.9881251,33.2297751 C66.1864256,35.6091182 69.6931703,36.5572401 72.4433087,36.1866681 C75.8896157,35.7817505 78.851513,33.7178454 80.7228068,30.7333854 C80.7228068,30.7333854 82.3245171,31.5880735 83.9262274,32.4427616 L84.2261569,32.6028071 C85.7218946,33.4009472 87.1296479,34.1521377 87.1296479,34.1521377 C83.3970575,42.3218937 73.3944058,46.8636597 64.721836,43.7137981 C51.7672843,39.0093419 53.8053496,22.647686 59.8327515,13.2441966 C63.4108398,7.41672661 68.9065725,2.45829303 75.6846732,0.603173651 Z M111.141419,0.461904389 C114.683609,0.181715835 117.957691,0.303281514 121.189058,0.494894332 L121.189058,7.7255667 C116.462656,8.19194507 107.458815,7.82453653 105.014954,12.0942486 C103.680328,14.1007602 104.398763,16.9894138 106.607235,18.0482553 C107.052565,18.2922905 107.234332,18.3275401 108.423545,18.8341391 C110.338463,19.6860026 112.181128,20.8786117 113.764321,22.510936 C118.293506,27.0594808 118.74747,34.0556082 114.613628,39.1279249 C109.950389,44.8171083 102.10895,44.758811 95.562603,44.5613233 C94.3665745,44.5238142 91.9381641,44.410383 90.7430444,44.3308456 L90.7430444,37.1001732 C93.9471466,36.8940991 97.1176218,36.850715 100.03953,36.513133 C102.974617,36.1222248 106.566338,35.8348056 108.028655,33.2240809 C109.597761,30.6074813 107.238422,28.1219377 104.747756,27.0929227 C100.54757,25.6644129 96.7513608,22.1751616 95.734373,17.5859442 C94.6092338,12.9095069 96.2955794,7.9113046 99.8732133,4.72438575 C103.040053,1.82262655 107.222972,0.802649825 111.141419,0.461904389 Z M81.468507,14.5750923 C84.3499723,11.0230245 82.3223586,7.83655753 77.9399503,9.10780011 C72.5546412,10.8318636 68.5275878,15.4174656 66.1923331,20.5440123 C71.7971261,19.9886063 77.8431592,18.584952 81.468507,14.5750923 Z" id="Shape"></path>
        </g>
    </g>
</svg>